<svg width="505" height="367" viewBox="0 0 505 367" fill="none" xmlns="http://www.w3.org/2000/svg">
<path opacity="0.4" d="M504.51 241.756L483.512 229.838L332.791 252.482L308.729 266.386L374.672 304.465L338.466 325.406L371.324 344.36L407.531 323.42L425.066 333.521L451.739 318.085L434.203 307.984L504.51 241.756ZM401.402 289.029L369.281 270.472L422.342 263.094C435.225 260.654 448.164 258.157 460.308 255.546L461.273 256.114C451.285 261.335 435.736 269.166 425.974 274.841L401.402 289.029Z" fill="#A8C4E5"/>
<path opacity="0.4" d="M147.785 155.496L81.8408 117.416L105.903 103.513L252.602 83.0825L295.789 107.996L207.372 159.071L224.908 169.173L198.235 184.609L180.7 174.507L144.493 195.448L111.635 176.493L147.785 155.496ZM174.457 140.116L199.03 125.929C208.791 120.311 224.284 112.422 234.329 107.201L233.364 106.634C221.163 109.244 208.28 111.685 195.398 114.182L142.337 121.559L174.457 140.116Z" fill="#A8C4E5"/>
<path opacity="0.4" d="M252.829 169.91C304.301 140.173 352.596 137.506 385.227 156.347C417.859 175.188 413.205 203.052 361.733 232.789C310.26 262.526 260.774 265.875 228.143 247.034C195.511 228.193 201.357 199.647 252.829 169.91ZM328.42 213.551C369.905 189.602 370.075 178.99 358.101 172.067C346.353 165.257 327.682 165.257 286.198 189.205C244.941 213.04 243.579 224.617 255.326 231.371C267.3 238.294 287.163 237.329 328.42 213.551Z" fill="#A8C4E5"/>
<path d="M72.3066 105.385L109.251 83.9338L139.329 101.299L102.384 122.751L72.3066 105.385Z" fill="#8478EB"/>
<path d="M133.087 169.4L170.032 147.948L169.918 187.162L132.974 208.614L133.087 169.4Z" fill="#5349BF"/>
<path d="M91.2612 80.6988L128.206 59.1904L109.251 83.9335L72.3066 105.385L91.2612 80.6988Z" fill="#312A6C"/>
<path d="M149.544 149.991L186.488 128.483L186.432 157.425L149.487 178.877L149.544 149.991Z" fill="#5349BF"/>
<path d="M133.144 140.514L170.088 119.062L186.489 128.483L149.544 149.991L133.144 140.514Z" fill="#8478EB"/>
<path d="M103.009 59.8144L139.953 38.3628C136.321 45.3431 132.292 52.2666 128.206 59.2469L91.2617 80.6984C95.3477 73.7182 99.377 66.7946 103.009 59.8144Z" fill="#312A6C"/>
<path d="M133.427 44.7756L170.372 23.324L170.088 119.062L133.144 140.513L133.427 44.7756Z" fill="#5349BF"/>
<path d="M93.0215 21.4516L129.966 0L170.372 23.3243L133.428 44.7759L93.0215 21.4516Z" fill="#8478EB"/>
<path d="M136.549 138.527L152.95 148.005L152.893 176.89L149.488 178.877L136.492 167.413L136.379 206.628L132.974 208.614L105.62 188.865L105.733 149.65L43.9893 114.011L44.046 87.9628L93.0214 21.4516L96.4265 19.4653L136.833 42.7897L136.549 138.527ZM105.847 94.2054C105.904 83.6498 106.812 68.384 107.322 58.3392L106.414 57.8285C102.782 64.8088 98.7532 71.7323 94.6672 78.7125L75.7126 103.399L105.79 120.764L105.847 94.2054Z" fill="white"/>
<path d="M225.42 230.576C225.647 230.462 225.817 230.406 226.044 230.292L265.202 208.841C265.032 208.954 264.805 209.068 264.578 209.124C264.521 209.181 264.464 209.181 264.351 209.181C264.237 209.238 264.067 209.295 263.953 209.351C263.783 209.408 263.556 209.465 263.386 209.522C263.329 209.522 263.272 209.521 263.216 209.578C263.102 209.635 262.932 209.635 262.818 209.692C262.591 209.749 262.421 209.749 262.194 209.805C262.137 209.805 262.137 209.805 262.081 209.805C261.854 209.805 261.627 209.862 261.4 209.862C261.286 209.862 261.173 209.862 261.002 209.862C260.889 209.862 260.832 209.862 260.719 209.862C260.492 209.862 260.265 209.805 260.094 209.805C260.038 209.805 259.981 209.805 259.981 209.805C259.811 209.805 259.64 209.749 259.47 209.749C259.413 209.749 259.357 209.749 259.243 209.692C259.073 209.635 258.959 209.635 258.789 209.578C258.732 209.578 258.619 209.522 258.562 209.522C258.449 209.465 258.278 209.465 258.165 209.408C258.051 209.408 257.995 209.351 257.881 209.351C257.768 209.295 257.597 209.238 257.484 209.238C257.37 209.181 257.314 209.181 257.2 209.124C257.087 209.068 256.916 209.011 256.803 208.954C256.689 208.897 256.633 208.897 256.519 208.841C256.406 208.784 256.235 208.727 256.122 208.67C256.008 208.614 255.895 208.557 255.781 208.5C255.668 208.443 255.554 208.387 255.384 208.33C255.271 208.273 255.157 208.216 254.987 208.159C254.76 208.046 254.533 207.933 254.306 207.819C254.192 207.762 254.136 207.705 254.022 207.649C253.852 207.535 253.682 207.478 253.511 207.365C253.455 207.308 253.398 207.308 253.341 207.252C253.114 207.138 252.887 206.968 252.66 206.854L252.603 206.797C252.433 206.684 252.263 206.571 252.036 206.4C251.979 206.343 251.922 206.287 251.866 206.287C251.695 206.173 251.582 206.06 251.412 205.946C251.355 205.889 251.298 205.833 251.241 205.776C251.071 205.662 250.901 205.492 250.731 205.379C250.674 205.379 250.674 205.322 250.617 205.322C250.447 205.152 250.22 204.981 250.05 204.868C249.993 204.811 249.936 204.754 249.879 204.698C249.766 204.584 249.596 204.471 249.482 204.357C249.425 204.3 249.312 204.244 249.255 204.187C249.142 204.073 249.028 203.96 248.915 203.903C248.858 203.846 248.744 203.79 248.688 203.676C248.574 203.563 248.461 203.449 248.347 203.336C248.29 203.279 248.177 203.165 248.12 203.109C248.007 202.995 247.893 202.882 247.78 202.768C247.723 202.711 247.666 202.655 247.609 202.541C247.496 202.428 247.326 202.257 247.212 202.087C247.155 202.03 247.099 201.974 247.099 201.917C246.928 201.747 246.758 201.52 246.588 201.293C246.588 201.236 246.531 201.236 246.531 201.179C246.361 201.009 246.191 200.782 246.077 200.612C246.02 200.555 246.02 200.498 245.964 200.441C245.68 200.044 245.339 199.647 245.056 199.25C244.999 199.193 244.999 199.136 244.942 199.079C244.715 198.739 244.488 198.455 244.318 198.115C244.261 198.058 244.204 198.001 244.204 197.888C244.091 197.661 243.921 197.49 243.807 197.263C243.75 197.15 243.694 197.093 243.637 196.98C243.523 196.753 243.353 196.526 243.24 196.242C243.183 196.185 243.183 196.128 243.126 196.072C242.956 195.788 242.786 195.504 242.615 195.164C242.559 195.107 242.559 194.993 242.502 194.937C242.388 194.71 242.275 194.483 242.161 194.199C242.105 194.085 242.048 193.972 241.991 193.858C241.878 193.631 241.764 193.461 241.707 193.234C241.651 193.121 241.594 193.007 241.537 192.894C241.424 192.667 241.31 192.383 241.197 192.099C241.14 192.042 241.14 191.986 241.083 191.929C240.913 191.588 240.799 191.248 240.629 190.907C240.572 190.851 240.572 190.737 240.516 190.624C240.402 190.283 240.289 189.999 240.118 189.659C240.062 189.545 240.062 189.432 240.005 189.318C239.835 188.921 239.721 188.524 239.551 188.07C239.551 188.07 239.551 188.013 239.494 188.013C239.324 187.502 239.154 186.992 238.983 186.481C238.983 186.424 238.927 186.311 238.927 186.254C238.756 185.743 238.586 185.176 238.416 184.608C238.359 184.495 238.359 184.324 238.302 184.211C238.246 184.041 238.189 183.814 238.132 183.643C238.075 183.473 238.019 183.303 237.962 183.076C237.905 182.906 237.848 182.679 237.792 182.508C237.735 182.338 237.678 182.168 237.621 181.941C237.565 181.714 237.508 181.487 237.451 181.26C237.394 181.09 237.338 180.919 237.338 180.749C237.281 180.522 237.224 180.238 237.167 180.011C237.111 179.841 237.111 179.671 237.054 179.501C236.997 179.16 236.884 178.82 236.827 178.479C236.827 178.366 236.77 178.252 236.77 178.139C236.657 177.685 236.6 177.231 236.486 176.72C236.486 176.663 236.43 176.55 236.43 176.493C236.373 176.039 236.259 175.642 236.203 175.188C236.146 175.017 236.146 174.847 236.089 174.677C236.032 174.28 235.976 173.939 235.862 173.542C235.862 173.372 235.805 173.201 235.805 173.031C235.692 172.464 235.635 171.839 235.522 171.215C235.522 171.102 235.522 171.045 235.465 170.931C235.408 170.421 235.295 169.853 235.238 169.286C235.238 169.115 235.181 168.945 235.181 168.832C235.068 168.151 235.011 167.413 234.897 166.675C234.897 166.562 234.897 166.448 234.841 166.335C234.784 165.654 234.67 164.973 234.614 164.235C234.614 164.121 234.614 164.008 234.557 163.894C234.557 163.667 234.5 163.497 234.5 163.27C234.443 162.986 234.443 162.646 234.387 162.362C234.387 162.135 234.33 161.908 234.33 161.681C234.33 161.397 234.273 161.057 234.273 160.773C234.273 160.546 234.216 160.319 234.216 160.035C234.216 159.752 234.16 159.411 234.16 159.127C234.16 158.9 234.103 158.617 234.103 158.39C234.103 158.106 234.046 157.822 234.046 157.538C234.046 157.198 233.989 156.801 233.989 156.403C233.989 156.176 233.933 155.893 233.933 155.666C233.933 155.268 233.876 154.871 233.876 154.417C233.876 154.19 233.876 153.963 233.819 153.736C233.819 153.225 233.762 152.715 233.762 152.204C233.762 152.09 233.762 151.92 233.762 151.807C233.762 151.126 233.706 150.501 233.706 149.82C233.706 149.707 233.706 149.537 233.706 149.423C233.706 148.856 233.649 148.231 233.649 147.664C233.649 147.437 233.649 147.153 233.649 146.926C233.649 146.415 233.649 145.905 233.649 145.394C233.649 145.11 233.649 144.883 233.649 144.599C233.649 144.089 233.649 143.521 233.649 143.01C233.649 142.783 233.649 142.556 233.649 142.273C233.649 141.478 233.649 140.74 233.649 139.946C233.649 139.378 233.649 138.811 233.649 138.3C233.649 137.846 233.649 137.392 233.649 136.938C233.649 136.484 233.649 136.087 233.649 135.633C233.649 135.179 233.649 134.725 233.649 134.327C233.649 133.93 233.649 133.476 233.706 133.079C233.706 132.682 233.706 132.228 233.762 131.83C233.762 131.433 233.762 131.036 233.819 130.639C233.819 130.241 233.876 129.844 233.876 129.447C233.876 128.993 233.933 128.482 233.933 128.028C233.933 127.801 233.933 127.574 233.989 127.29C234.046 126.666 234.046 125.985 234.103 125.361C234.103 125.304 234.103 125.247 234.103 125.191C234.16 124.51 234.216 123.829 234.216 123.204C234.216 122.977 234.273 122.807 234.273 122.58C234.33 122.126 234.33 121.672 234.387 121.218C234.387 121.048 234.443 120.878 234.443 120.707C234.5 120.253 234.5 119.799 234.557 119.402C234.557 119.232 234.614 119.062 234.614 118.948C234.67 118.381 234.727 117.813 234.784 117.302C234.784 117.246 234.784 117.189 234.784 117.132C234.841 116.621 234.897 116.167 234.954 115.657C234.954 115.543 235.011 115.373 235.011 115.259C235.068 114.805 235.124 114.351 235.238 113.897C235.238 113.841 235.238 113.784 235.238 113.784C235.295 113.273 235.408 112.819 235.465 112.365C235.465 112.252 235.522 112.138 235.522 112.025C235.578 111.571 235.692 111.117 235.749 110.663C235.862 110.209 235.919 109.811 236.032 109.357C236.032 109.301 236.089 109.187 236.089 109.13C236.203 108.733 236.259 108.336 236.373 107.995C236.486 107.541 236.6 107.144 236.713 106.747C236.713 106.69 236.713 106.633 236.77 106.577C236.884 106.123 236.997 105.669 237.167 105.271C237.224 105.158 237.281 104.988 237.281 104.874C237.394 104.59 237.451 104.307 237.565 104.08C237.621 103.909 237.678 103.796 237.735 103.626C237.792 103.399 237.905 103.172 237.962 102.945C238.019 102.774 238.075 102.661 238.132 102.491C238.246 102.264 238.302 102.037 238.416 101.866C238.473 101.753 238.529 101.583 238.586 101.469C238.7 101.242 238.756 101.072 238.87 100.902C238.927 100.788 238.983 100.675 239.04 100.561C239.21 100.277 239.324 99.9936 239.494 99.7099C239.494 99.6531 239.551 99.6531 239.551 99.5964C239.721 99.3126 239.891 99.0289 240.118 98.7451C240.232 98.5748 240.345 98.4613 240.459 98.2911C240.516 98.2343 240.516 98.1776 240.572 98.1208C240.743 97.8938 240.856 97.7236 241.026 97.5533C241.083 97.4966 241.083 97.4966 241.14 97.4398C241.253 97.3263 241.367 97.1561 241.48 97.0426C241.537 96.9858 241.594 96.9291 241.651 96.8723C241.764 96.7588 241.878 96.6453 241.991 96.5886C242.048 96.5318 242.105 96.4751 242.161 96.4183C242.275 96.3048 242.388 96.2481 242.502 96.1346C242.559 96.0778 242.615 96.0211 242.672 95.9643C242.786 95.8508 242.899 95.7941 243.013 95.7373C243.069 95.6806 243.126 95.6806 243.183 95.6238C243.353 95.5103 243.523 95.3968 243.694 95.3401L204.536 116.792C204.366 116.905 204.196 117.019 204.025 117.075C203.969 117.132 203.912 117.132 203.855 117.189C203.741 117.246 203.628 117.359 203.515 117.416C203.458 117.473 203.401 117.529 203.344 117.586C203.231 117.643 203.117 117.756 203.004 117.87C202.947 117.927 202.89 117.983 202.833 118.04C202.72 118.154 202.606 118.267 202.493 118.324C202.436 118.381 202.38 118.437 202.323 118.494C202.209 118.608 202.096 118.778 201.982 118.891C201.925 118.948 201.925 118.948 201.869 119.005C201.698 119.175 201.585 119.402 201.415 119.572C201.358 119.629 201.358 119.686 201.301 119.743C201.188 119.856 201.131 119.97 201.017 120.14L200.961 120.197C200.79 120.48 200.62 120.764 200.393 121.048C200.393 121.105 200.336 121.105 200.336 121.161C200.166 121.445 200.053 121.729 199.882 122.013C199.882 122.069 199.826 122.069 199.826 122.126C199.769 122.183 199.769 122.296 199.712 122.353C199.599 122.523 199.542 122.75 199.428 122.977C199.372 123.091 199.315 123.261 199.258 123.375C199.145 123.602 199.088 123.772 198.974 123.999C198.918 124.112 198.918 124.169 198.861 124.283C198.861 124.339 198.804 124.396 198.804 124.453C198.691 124.68 198.634 124.907 198.577 125.134C198.52 125.304 198.464 125.418 198.407 125.588C198.293 125.872 198.237 126.099 198.123 126.382C198.066 126.496 198.066 126.609 198.01 126.723V126.78C197.896 127.234 197.726 127.631 197.612 128.085C197.612 128.142 197.612 128.198 197.556 128.255C197.442 128.652 197.329 129.106 197.215 129.504C197.215 129.56 197.215 129.56 197.215 129.617C197.158 129.958 197.045 130.298 196.988 130.639C196.988 130.695 196.931 130.809 196.931 130.866C196.818 131.263 196.761 131.717 196.648 132.171C196.648 132.171 196.648 132.171 196.648 132.228C196.591 132.511 196.534 132.852 196.477 133.192C196.477 133.306 196.421 133.476 196.421 133.59C196.421 133.703 196.364 133.817 196.364 133.93C196.307 134.384 196.194 134.895 196.137 135.349C196.137 135.406 196.137 135.462 196.137 135.462C196.08 135.916 196.023 136.37 195.91 136.824C195.91 136.938 195.853 137.051 195.853 137.222C195.853 137.335 195.796 137.449 195.796 137.562C195.74 137.959 195.683 138.3 195.626 138.697C195.626 138.754 195.626 138.811 195.626 138.867C195.569 139.435 195.513 139.946 195.456 140.513C195.456 140.684 195.399 140.854 195.399 141.024C195.342 141.478 195.286 141.875 195.286 142.329C195.286 142.5 195.229 142.67 195.229 142.84C195.229 142.954 195.229 143.067 195.172 143.181C195.115 143.521 195.115 143.862 195.115 144.202C195.115 144.429 195.059 144.599 195.059 144.826C195.002 145.451 194.945 146.132 194.945 146.813C194.945 146.869 194.945 146.869 194.945 146.926C194.888 147.55 194.888 148.231 194.832 148.856C194.832 149.083 194.832 149.31 194.775 149.537C194.775 149.877 194.718 150.274 194.718 150.615C194.718 150.728 194.718 150.842 194.718 150.955C194.718 151.353 194.661 151.75 194.661 152.204C194.661 152.601 194.605 152.998 194.605 153.396C194.605 153.793 194.605 154.247 194.548 154.644C194.548 155.041 194.548 155.439 194.491 155.893C194.491 156.347 194.491 156.744 194.491 157.198C194.491 157.595 194.491 158.049 194.491 158.503C194.491 158.957 194.491 159.411 194.491 159.865C194.491 160.206 194.491 160.489 194.491 160.83C194.491 161.057 194.491 161.284 194.491 161.511C194.491 162.305 194.491 163.1 194.491 163.838C194.491 164.065 194.491 164.292 194.491 164.575C194.491 165.086 194.491 165.654 194.491 166.164C194.491 166.448 194.491 166.675 194.491 166.959C194.491 167.47 194.491 167.98 194.491 168.491C194.491 168.718 194.491 169.002 194.491 169.229C194.491 169.853 194.548 170.421 194.548 170.988C194.548 171.102 194.548 171.215 194.548 171.329V171.385C194.548 172.066 194.605 172.691 194.605 173.372C194.605 173.542 194.605 173.655 194.605 173.826C194.605 174.336 194.661 174.79 194.661 175.301C194.661 175.528 194.661 175.755 194.718 175.982C194.718 176.379 194.775 176.777 194.775 177.174C194.775 177.458 194.832 177.685 194.832 177.912C194.832 178.252 194.888 178.649 194.888 178.99C194.888 179.103 194.888 179.217 194.888 179.274C194.888 179.444 194.888 179.671 194.945 179.841C194.945 180.068 195.002 180.352 195.002 180.579C195.002 180.863 195.059 181.203 195.059 181.487C195.059 181.714 195.115 181.941 195.115 182.225C195.115 182.508 195.172 182.849 195.172 183.133C195.172 183.36 195.229 183.587 195.229 183.814C195.286 184.154 195.286 184.438 195.342 184.722C195.342 184.949 195.399 185.119 195.399 185.346C195.399 185.403 195.399 185.403 195.399 185.459C195.399 185.516 195.399 185.573 195.399 185.686C195.456 186.367 195.569 187.105 195.626 187.786C195.626 187.9 195.626 188.013 195.683 188.183C195.796 188.921 195.853 189.602 195.967 190.34C195.967 190.397 195.967 190.453 195.967 190.567C195.967 190.68 195.967 190.737 196.023 190.851C196.08 191.418 196.194 191.929 196.25 192.44C196.25 192.553 196.307 192.667 196.307 192.723C196.421 193.348 196.477 193.915 196.591 194.539C196.591 194.596 196.591 194.653 196.591 194.71C196.591 194.823 196.648 194.937 196.648 195.05C196.704 195.447 196.761 195.788 196.818 196.185C196.875 196.355 196.875 196.526 196.931 196.696C196.988 197.15 197.102 197.547 197.158 198.001C197.158 198.058 197.158 198.115 197.215 198.228V198.285C197.329 198.739 197.385 199.193 197.499 199.704C197.499 199.817 197.556 199.931 197.556 200.044C197.612 200.385 197.726 200.725 197.783 201.066C197.783 201.122 197.783 201.179 197.839 201.236C197.896 201.349 197.896 201.463 197.953 201.633C198.01 201.86 198.066 202.144 198.123 202.371C198.18 202.541 198.237 202.711 198.237 202.882C198.293 203.109 198.35 203.336 198.407 203.563C198.407 203.619 198.464 203.733 198.464 203.79C198.464 203.903 198.52 204.017 198.52 204.13C198.577 204.3 198.634 204.527 198.691 204.698C198.747 204.868 198.804 205.095 198.861 205.265C198.918 205.436 198.974 205.662 199.031 205.833C199.031 205.89 199.088 206.003 199.088 206.06C199.088 206.117 199.145 206.173 199.145 206.23C199.315 206.797 199.485 207.365 199.655 207.876V207.932C199.655 207.989 199.712 208.046 199.712 208.103C199.882 208.614 200.053 209.124 200.223 209.635V209.692C200.393 210.089 200.507 210.543 200.677 210.94C200.677 210.997 200.734 211.054 200.734 211.054C200.734 211.111 200.79 211.167 200.79 211.224C200.904 211.565 201.017 211.848 201.188 212.189C201.188 212.246 201.244 212.302 201.244 212.359C201.244 212.359 201.244 212.416 201.301 212.416C201.471 212.756 201.585 213.097 201.755 213.437C201.755 213.437 201.755 213.437 201.755 213.494C201.755 213.551 201.812 213.608 201.812 213.664C201.926 213.948 202.039 214.175 202.152 214.459C202.152 214.516 202.209 214.516 202.209 214.572C202.266 214.629 202.266 214.743 202.323 214.799C202.436 215.026 202.55 215.197 202.607 215.424C202.607 215.48 202.663 215.537 202.663 215.594C202.663 215.651 202.72 215.707 202.72 215.764C202.833 215.991 202.947 216.218 203.06 216.502C203.117 216.559 203.117 216.615 203.174 216.672C203.174 216.672 203.174 216.729 203.231 216.729C203.401 217.013 203.571 217.353 203.742 217.637C203.742 217.637 203.742 217.637 203.742 217.694C203.742 217.75 203.798 217.807 203.798 217.807C203.912 218.034 204.082 218.261 204.196 218.545C204.252 218.658 204.309 218.715 204.366 218.829C204.479 219.056 204.65 219.283 204.763 219.453C204.82 219.51 204.82 219.566 204.877 219.623C204.877 219.623 204.877 219.68 204.933 219.68C205.16 220.02 205.387 220.304 205.558 220.645C205.558 220.701 205.614 220.701 205.614 220.758L205.671 220.815C205.955 221.212 206.239 221.609 206.579 222.007L206.636 222.063C206.636 222.12 206.693 222.12 206.693 222.177C206.863 222.404 207.033 222.574 207.147 222.744L207.203 222.801C207.374 223.028 207.544 223.198 207.714 223.425C207.771 223.482 207.771 223.482 207.828 223.539C207.941 223.709 208.111 223.823 208.225 223.993C208.225 223.993 208.225 224.05 208.282 224.05C208.338 224.106 208.395 224.163 208.452 224.22C208.565 224.333 208.679 224.447 208.792 224.56L208.849 224.617C208.906 224.674 208.963 224.731 209.019 224.787C209.133 224.901 209.246 225.014 209.36 225.128C209.417 225.185 209.417 225.185 209.473 225.241C209.53 225.298 209.53 225.298 209.587 225.355C209.7 225.468 209.814 225.582 209.927 225.639C209.984 225.695 209.984 225.695 210.041 225.752C210.098 225.752 210.098 225.809 210.154 225.809C210.268 225.922 210.438 226.036 210.552 226.149C210.608 226.206 210.608 226.206 210.665 226.263C210.665 226.263 210.665 226.263 210.722 226.32C210.892 226.49 211.119 226.66 211.289 226.774L211.346 226.83C211.516 226.944 211.687 227.114 211.857 227.228L211.914 227.284C211.97 227.341 211.97 227.341 212.027 227.398C212.197 227.511 212.311 227.625 212.481 227.738C212.538 227.738 212.538 227.795 212.595 227.795L212.651 227.852C212.822 227.965 212.992 228.079 213.219 228.249L213.276 228.306C213.503 228.419 213.73 228.59 213.957 228.703C213.957 228.703 214.013 228.703 214.013 228.76C214.07 228.76 214.07 228.817 214.127 228.817C214.297 228.93 214.467 228.987 214.638 229.1C214.694 229.1 214.694 229.157 214.751 229.157C214.808 229.214 214.865 229.214 214.921 229.271C215.092 229.384 215.319 229.498 215.489 229.554C215.489 229.554 215.546 229.554 215.546 229.611C215.659 229.668 215.773 229.725 215.943 229.781C216.056 229.838 216.113 229.895 216.227 229.895C216.227 229.895 216.283 229.895 216.283 229.952C216.397 230.008 216.51 230.065 216.624 230.122C216.737 230.179 216.794 230.235 216.908 230.235C216.964 230.235 216.964 230.235 217.021 230.292C217.135 230.349 217.191 230.349 217.305 230.406C217.418 230.462 217.475 230.462 217.589 230.519C217.645 230.519 217.702 230.576 217.702 230.576C217.816 230.633 217.872 230.633 217.986 230.689C218.043 230.689 218.156 230.746 218.213 230.746C218.27 230.746 218.326 230.803 218.383 230.803C218.497 230.803 218.553 230.86 218.667 230.86C218.724 230.86 218.78 230.916 218.837 230.916C218.894 230.916 219.007 230.973 219.064 230.973C219.121 230.973 219.234 231.03 219.291 231.03C219.348 231.03 219.348 231.03 219.405 231.03C219.518 231.03 219.632 231.087 219.745 231.087C219.802 231.087 219.859 231.143 219.972 231.143H220.029C220.199 231.2 220.369 231.2 220.483 231.2C220.54 231.2 220.596 231.2 220.596 231.2C220.823 231.2 220.994 231.257 221.221 231.257C221.334 231.257 221.391 231.257 221.504 231.257C221.618 231.257 221.731 231.257 221.845 231.257C222.072 231.257 222.299 231.257 222.526 231.2C222.583 231.2 222.583 231.2 222.639 231.2C222.866 231.2 223.037 231.143 223.264 231.087H223.32C223.434 231.087 223.547 231.03 223.661 231.03C223.718 231.03 223.774 231.03 223.831 230.973C224.001 230.916 224.172 230.86 224.399 230.803C224.512 230.746 224.682 230.689 224.796 230.633C225.307 230.633 225.363 230.576 225.42 230.576Z" fill="#5349BF"/>
<path d="M236.079 206H202.079C201.579 200.833 198.179 151.7 198.579 140.5C199.079 126.5 204.079 117 207.079 115.5C210.079 114 216.079 118 223.079 125C228.679 130.6 240.079 163 236.079 206Z" fill="url(#paint0_linear)"/>
<path d="M302.146 177.571C302.146 177.288 302.146 176.947 302.146 176.663C302.146 175.812 302.089 174.961 302.089 174.11C302.089 173.939 302.089 173.769 302.089 173.599C302.089 173.542 302.089 173.485 302.089 173.372C302.032 172.35 302.032 171.272 301.975 170.251C301.975 170.024 301.975 169.797 301.918 169.513C301.862 168.662 301.862 167.867 301.805 167.073C301.805 166.902 301.805 166.732 301.805 166.562C301.805 166.448 301.805 166.278 301.748 166.165C301.691 165.37 301.635 164.632 301.578 163.838C301.578 163.668 301.578 163.441 301.521 163.27C301.465 162.306 301.351 161.341 301.294 160.433C301.294 160.376 301.294 160.319 301.294 160.263C301.294 160.036 301.238 159.865 301.238 159.638C301.181 159.014 301.124 158.333 301.01 157.709C300.954 157.368 300.954 157.085 300.897 156.744C300.84 156.12 300.784 155.552 300.67 154.928C300.67 154.758 300.613 154.531 300.613 154.36C300.613 154.247 300.556 154.133 300.556 154.02C300.5 153.452 300.386 152.885 300.329 152.261C300.273 151.977 300.273 151.693 300.216 151.409C300.102 150.558 299.989 149.764 299.819 148.912V148.856C299.705 148.061 299.535 147.21 299.421 146.415C299.365 146.132 299.308 145.905 299.308 145.621C299.194 145.11 299.138 144.543 299.024 144.032C299.024 143.975 299.024 143.862 298.967 143.805C298.911 143.521 298.854 143.294 298.797 143.067C298.74 142.613 298.627 142.159 298.513 141.762C298.457 141.421 298.4 141.081 298.286 140.74C298.173 140.286 298.116 139.889 298.003 139.492C298.003 139.378 297.946 139.265 297.946 139.151C297.946 139.038 297.889 138.981 297.889 138.868C297.605 137.506 297.265 136.2 296.981 134.895C296.981 134.838 296.924 134.725 296.924 134.668C296.924 134.555 296.868 134.498 296.868 134.384C296.584 133.193 296.243 132.001 295.903 130.809C295.903 130.752 295.846 130.639 295.846 130.582C295.846 130.469 295.789 130.355 295.733 130.298C295.392 129.163 295.108 128.028 294.768 126.893C294.768 126.837 294.768 126.78 294.711 126.78C294.654 126.666 294.654 126.61 294.598 126.496C294.257 125.418 293.917 124.396 293.576 123.318C293.576 123.261 293.576 123.261 293.519 123.205C293.519 123.205 293.519 123.205 293.519 123.148C293.179 122.183 292.838 121.218 292.555 120.31C292.498 120.197 292.498 120.083 292.441 119.97C292.384 119.856 292.384 119.8 292.328 119.686C291.987 118.778 291.703 117.927 291.363 117.076C291.363 117.019 291.363 117.019 291.306 116.962C291.249 116.849 291.249 116.792 291.193 116.678C290.909 115.941 290.625 115.26 290.341 114.579C290.285 114.465 290.228 114.352 290.171 114.238C290.114 114.125 290.114 114.068 290.058 113.954C289.717 113.217 289.433 112.422 289.093 111.684V111.628C288.752 110.833 288.412 110.095 288.071 109.301C288.015 109.187 288.015 109.131 287.958 109.017C287.901 108.904 287.844 108.79 287.788 108.677C287.447 107.939 287.107 107.258 286.766 106.577C286.709 106.52 286.709 106.407 286.653 106.35C286.653 106.35 286.653 106.293 286.596 106.293C286.199 105.442 285.745 104.647 285.291 103.796C285.234 103.683 285.177 103.626 285.12 103.512C285.064 103.399 285.007 103.285 284.95 103.172C284.723 102.718 284.496 102.321 284.269 101.867C284.156 101.64 284.042 101.469 283.929 101.242C283.645 100.675 283.304 100.164 283.021 99.5966C282.964 99.5398 282.964 99.4831 282.907 99.3696C282.34 98.4616 281.829 97.5536 281.261 96.6455C281.205 96.532 281.148 96.4185 281.091 96.305C280.524 95.4538 280.013 94.6025 279.445 93.808C279.389 93.7513 279.332 93.6378 279.275 93.581C279.218 93.4675 279.162 93.4108 279.105 93.2973C278.935 93.0135 278.708 92.7298 278.537 92.5028C278.367 92.2758 278.197 91.992 278.027 91.765C277.856 91.4813 277.629 91.2543 277.459 90.9705C277.346 90.8003 277.232 90.63 277.119 90.4598C277.062 90.403 277.062 90.3463 277.005 90.2895C276.438 89.5518 275.87 88.814 275.303 88.0763C275.246 88.0195 275.189 87.9628 275.132 87.906C275.076 87.7925 275.019 87.7358 274.905 87.6223C274.508 87.1115 274.111 86.6008 273.714 86.09C273.657 86.0333 273.6 85.9198 273.543 85.863L273.487 85.8063C273.033 85.2388 272.522 84.6712 272.011 84.1037C271.954 84.047 271.898 83.9902 271.898 83.9335C271.841 83.82 271.727 83.7632 271.671 83.6497C271.273 83.1957 270.876 82.7985 270.479 82.3445C270.422 82.231 270.309 82.1742 270.252 82.0607C270.195 82.004 270.138 81.9472 270.138 81.8905C269.628 81.3797 269.117 80.8122 268.606 80.3015L268.549 80.2447C268.493 80.188 268.436 80.1312 268.379 80.0745C267.868 79.5637 267.414 79.1097 266.904 78.599C266.847 78.5422 266.733 78.4287 266.677 78.372C266.62 78.3152 266.563 78.2585 266.506 78.2017C265.939 77.691 265.371 77.1235 264.804 76.6127L264.747 76.556C264.69 76.4992 264.634 76.4425 264.577 76.3857C264.066 75.9317 263.499 75.421 262.988 74.967C262.931 74.9102 262.818 74.8535 262.761 74.7967C262.704 74.74 262.704 74.74 262.647 74.6832C262.023 74.1725 261.456 73.7185 260.831 73.2077C260.775 73.151 260.718 73.151 260.661 73.0942C260.604 73.0375 260.491 72.9807 260.434 72.924C259.867 72.47 259.299 72.0727 258.732 71.6187C258.675 71.562 258.618 71.562 258.561 71.5052C258.561 71.5052 258.505 71.5052 258.505 71.4485C257.88 70.9945 257.256 70.5405 256.632 70.0865C256.575 70.0297 256.518 69.9729 256.405 69.9162C256.348 69.8594 256.235 69.8027 256.178 69.7459C255.554 69.2919 254.873 68.8947 254.248 68.4407C254.192 68.4407 254.192 68.3839 254.135 68.3839C253.511 67.9867 252.886 67.5894 252.205 67.2489C252.149 67.1922 252.035 67.1354 251.978 67.0787C251.808 66.9652 251.638 66.8517 251.468 66.7949C250.957 66.5112 250.446 66.2274 249.935 65.9437C249.879 65.8869 249.822 65.8869 249.765 65.8302C249.652 65.7734 249.538 65.7167 249.425 65.6599C249.254 65.5464 249.084 65.4897 248.914 65.3762C248.687 65.2627 248.517 65.1492 248.29 65.0357C248.119 64.9789 247.949 64.8654 247.779 64.8087C247.722 64.8087 247.665 64.7519 247.609 64.7519C247.552 64.6952 247.495 64.6952 247.438 64.6952C246.814 64.4114 246.19 64.0709 245.566 63.8439H245.509C244.941 63.5602 244.317 63.3332 243.75 63.1062C243.693 63.1062 243.636 63.0494 243.579 63.0494C243.579 63.0494 243.523 63.0494 243.523 62.9927C242.955 62.7657 242.388 62.5387 241.82 62.3684C241.763 62.3684 241.707 62.3117 241.65 62.3117C241.593 62.3117 241.536 62.2549 241.48 62.2549C240.912 62.0847 240.401 61.9144 239.834 61.7442C239.777 61.7442 239.777 61.7442 239.72 61.6874C239.664 61.6874 239.607 61.6874 239.55 61.6307C238.983 61.4604 238.472 61.2902 237.904 61.1767H237.848C237.28 61.0632 236.713 60.8929 236.145 60.7794C236.088 60.7794 236.032 60.7794 235.975 60.7227C235.918 60.7227 235.861 60.7227 235.805 60.7227C235.691 60.7227 235.521 60.6659 235.407 60.6659C235.237 60.6092 235.01 60.6092 234.84 60.5524C234.726 60.5524 234.556 60.4957 234.443 60.4957C234.329 60.4957 234.216 60.4389 234.159 60.4389C234.102 60.4389 233.988 60.4389 233.932 60.3822C233.761 60.3822 233.591 60.3254 233.478 60.3254C233.308 60.3254 233.137 60.2687 232.967 60.2687C232.797 60.2687 232.626 60.2687 232.513 60.2119C232.456 60.2119 232.343 60.2119 232.286 60.2119C232.172 60.2119 232.116 60.2119 232.002 60.2119C231.832 60.2119 231.662 60.2119 231.491 60.2119C231.321 60.2119 231.151 60.2119 230.981 60.2119C230.81 60.2119 230.64 60.2119 230.527 60.2119C230.47 60.2119 230.356 60.2119 230.3 60.2119C230.243 60.2119 230.129 60.2119 230.073 60.2119C229.846 60.2119 229.619 60.2119 229.448 60.2119C229.335 60.2119 229.165 60.2119 229.051 60.2119C228.824 60.2119 228.597 60.2119 228.427 60.2687C228.313 60.2687 228.257 60.2687 228.143 60.2687C228.086 60.2687 228.086 60.2687 228.03 60.2687C227.632 60.3254 227.292 60.3254 226.951 60.3822C226.895 60.3822 226.838 60.3822 226.781 60.3822C226.441 60.4389 226.157 60.4957 225.816 60.5524C225.76 60.5524 225.703 60.5524 225.703 60.5524C225.646 60.5524 225.589 60.5524 225.533 60.6092C225.079 60.7227 224.625 60.7794 224.227 60.9497H224.171C223.773 61.0632 223.319 61.1767 222.922 61.3469C222.865 61.3469 222.809 61.3469 222.809 61.4037C222.752 61.4037 222.752 61.4604 222.695 61.4604C222.525 61.5172 222.355 61.5739 222.184 61.6307C222.071 61.6874 221.957 61.7442 221.787 61.8009C221.617 61.8577 221.447 61.9712 221.276 62.0279C221.163 62.0847 221.049 62.1414 220.936 62.1982C220.766 62.3117 220.539 62.3684 220.368 62.4819C220.255 62.5387 220.198 62.5954 220.085 62.5954C219.801 62.7657 219.517 62.8792 219.233 63.0494L182.289 84.501C182.573 84.3307 182.857 84.1605 183.14 84.047C183.254 83.9903 183.311 83.9335 183.424 83.9335C183.594 83.82 183.821 83.7632 183.992 83.6497C184.105 83.593 184.219 83.5363 184.332 83.4795C184.502 83.4228 184.673 83.3092 184.843 83.2525C184.956 83.1957 185.07 83.139 185.24 83.0822C185.41 83.0255 185.581 82.9688 185.751 82.912C185.808 82.8552 185.921 82.8552 185.978 82.7985C186.375 82.6282 186.829 82.5147 187.226 82.4012H187.283C187.737 82.2877 188.191 82.1742 188.588 82.0607C188.702 82.0607 188.759 82.004 188.872 82.004C189.156 81.9472 189.496 81.8905 189.837 81.8337C189.894 81.8337 189.95 81.8337 190.007 81.8337C190.348 81.777 190.745 81.7202 191.085 81.7202C191.199 81.7202 191.312 81.7202 191.426 81.6635C191.653 81.6635 191.88 81.6067 192.05 81.6067C192.164 81.6067 192.334 81.6067 192.447 81.6067C192.674 81.6067 192.845 81.6067 193.072 81.6067C193.242 81.6067 193.355 81.6067 193.526 81.6067C193.696 81.6067 193.866 81.6067 193.98 81.6067C194.15 81.6067 194.32 81.6067 194.49 81.6067C194.661 81.6067 194.831 81.6067 194.944 81.6067C195.115 81.6067 195.285 81.6067 195.455 81.6635C195.625 81.6635 195.796 81.6635 195.909 81.7202C196.079 81.7202 196.25 81.777 196.42 81.777C196.59 81.777 196.76 81.8337 196.874 81.8337C197.044 81.8337 197.214 81.8905 197.441 81.8905C197.555 81.8905 197.725 81.9472 197.839 81.9472C198.009 82.004 198.236 82.004 198.406 82.0607C198.52 82.0607 198.69 82.1175 198.803 82.1175C198.917 82.1175 199.03 82.1742 199.087 82.1742C199.655 82.2877 200.222 82.4012 200.79 82.5715H200.846C201.414 82.685 201.925 82.8552 202.492 83.0255C202.549 83.0255 202.662 83.0822 202.719 83.0822C203.23 83.2525 203.797 83.4227 204.365 83.593C204.478 83.6497 204.592 83.6497 204.705 83.7065C205.273 83.8767 205.84 84.1038 206.408 84.3308C206.465 84.3875 206.578 84.3875 206.635 84.4443C207.202 84.6713 207.77 84.8983 208.394 85.182C208.451 85.182 208.451 85.182 208.508 85.2388C209.132 85.5225 209.756 85.8063 210.38 86.09C210.494 86.1468 210.607 86.2035 210.721 86.2603C210.891 86.317 211.061 86.4305 211.232 86.4873C211.459 86.6008 211.686 86.7143 211.856 86.8278C212.026 86.9413 212.196 86.998 212.367 87.1115C212.537 87.225 212.764 87.2818 212.934 87.3953C213.445 87.679 213.956 87.9628 214.41 88.2465C214.693 88.4168 214.92 88.5303 215.204 88.7005C215.828 89.0978 216.453 89.4383 217.077 89.8355C217.134 89.8355 217.134 89.8923 217.19 89.8923C217.871 90.2895 218.496 90.7435 219.12 91.1975C219.29 91.311 219.404 91.3678 219.574 91.4813C220.198 91.9353 220.822 92.3893 221.447 92.8433C221.503 92.9 221.617 92.9568 221.674 93.0135C222.241 93.4108 222.809 93.8648 223.376 94.3188C223.49 94.4323 223.603 94.489 223.773 94.6025C224.398 95.0565 224.965 95.5673 225.589 96.078C225.703 96.1915 225.816 96.305 225.93 96.3618C226.441 96.8158 227.008 97.2698 227.519 97.7806C227.632 97.8373 227.689 97.9508 227.803 98.0075C228.37 98.5183 228.938 99.029 229.505 99.5398C229.619 99.6533 229.789 99.7668 229.902 99.9371C230.413 100.391 230.867 100.902 231.378 101.413C231.435 101.469 231.548 101.583 231.605 101.64C232.116 102.15 232.626 102.661 233.137 103.229C233.251 103.342 233.364 103.512 233.535 103.626C233.932 104.08 234.329 104.477 234.726 104.931C234.84 105.101 234.953 105.215 235.124 105.385C235.634 105.953 236.088 106.52 236.599 107.088C236.656 107.201 236.769 107.258 236.826 107.371C237.223 107.882 237.621 108.393 238.018 108.904C238.131 109.074 238.245 109.187 238.358 109.358C238.926 110.095 239.493 110.833 240.061 111.571C240.231 111.798 240.345 111.968 240.515 112.195C240.685 112.479 240.912 112.706 241.082 112.99C241.253 113.217 241.423 113.444 241.593 113.727C241.763 114.011 241.99 114.295 242.161 114.522C242.274 114.692 242.388 114.862 242.501 115.033C243.069 115.884 243.636 116.678 244.147 117.53C244.204 117.643 244.26 117.757 244.317 117.87C244.885 118.778 245.452 119.686 245.963 120.594C246.02 120.651 246.076 120.764 246.076 120.821C246.417 121.332 246.701 121.899 246.984 122.467C247.098 122.694 247.211 122.864 247.325 123.091C247.552 123.488 247.779 123.942 248.006 124.396C248.119 124.623 248.233 124.794 248.346 125.021C248.8 125.815 249.198 126.666 249.652 127.518C249.708 127.631 249.765 127.688 249.765 127.801C250.106 128.482 250.446 129.22 250.787 129.901C250.9 130.128 250.957 130.298 251.07 130.525C251.411 131.263 251.751 132.058 252.149 132.852V132.909C252.489 133.647 252.83 134.441 253.113 135.179C253.227 135.406 253.284 135.633 253.397 135.803C253.681 136.484 253.965 137.222 254.248 137.903C254.305 138.016 254.362 138.187 254.419 138.3C254.759 139.151 255.1 140.059 255.383 140.911C255.44 141.138 255.554 141.308 255.61 141.535C255.951 142.5 256.291 143.408 256.575 144.372C256.575 144.429 256.575 144.429 256.632 144.486C256.972 145.507 257.313 146.586 257.653 147.664C257.71 147.777 257.767 147.948 257.767 148.061C258.107 149.196 258.448 150.331 258.732 151.466C258.788 151.636 258.845 151.807 258.902 151.977C259.242 153.169 259.526 154.36 259.867 155.552C259.923 155.723 259.98 155.893 259.98 156.063C260.321 157.368 260.604 158.674 260.888 160.036C260.945 160.263 261.002 160.49 261.058 160.66C261.172 161.057 261.229 161.511 261.342 161.908C261.399 162.249 261.456 162.589 261.569 162.93C261.683 163.384 261.739 163.781 261.853 164.235C261.91 164.576 261.966 164.916 262.023 165.257C262.137 165.767 262.193 166.335 262.307 166.846C262.364 167.129 262.42 167.356 262.42 167.64C262.534 168.435 262.704 169.229 262.818 170.08C262.818 170.08 262.818 170.08 262.818 170.137C262.931 170.988 263.045 171.783 263.215 172.634C263.272 172.918 263.272 173.202 263.328 173.485C263.385 174.053 263.499 174.677 263.555 175.245C263.612 175.585 263.612 175.869 263.669 176.209C263.726 176.834 263.839 177.401 263.896 178.025C263.953 178.366 263.953 178.65 264.009 178.99C264.066 179.614 264.123 180.295 264.236 180.92C264.236 181.203 264.293 181.43 264.293 181.714C264.407 182.679 264.463 183.644 264.52 184.552C264.52 184.722 264.577 184.949 264.577 185.119C264.634 185.914 264.69 186.651 264.747 187.446C264.747 187.73 264.804 188.07 264.804 188.354C264.861 189.148 264.917 190 264.917 190.794C264.917 191.021 264.917 191.248 264.974 191.532C265.031 192.553 265.088 193.575 265.088 194.653C265.088 194.88 265.088 195.107 265.088 195.334C265.088 196.185 265.144 197.037 265.144 197.945C265.144 198.228 265.144 198.569 265.144 198.853C265.144 199.931 265.144 201.009 265.144 202.087C265.144 203.052 265.144 203.96 265.144 204.925C265.144 205.095 265.144 205.322 265.144 205.492C265.144 206.287 265.088 207.081 265.088 207.876C265.088 207.989 265.088 208.103 265.088 208.216C265.088 209.068 265.031 209.919 264.974 210.77C264.974 210.94 264.974 211.111 264.974 211.338C264.917 212.189 264.917 212.983 264.861 213.835C264.861 213.891 264.861 213.948 264.861 214.005C264.804 214.799 264.747 215.537 264.69 216.332C264.69 216.502 264.69 216.615 264.634 216.786C264.634 217.126 264.577 217.467 264.52 217.807C264.463 218.488 264.407 219.169 264.35 219.793C264.293 220.134 264.293 220.531 264.236 220.872C264.18 221.496 264.123 222.063 264.009 222.688C263.953 223.028 263.953 223.369 263.896 223.766C263.839 224.333 263.726 224.958 263.669 225.525C263.612 225.866 263.555 226.15 263.555 226.49C263.442 227.171 263.328 227.852 263.215 228.533C263.158 228.703 263.158 228.93 263.101 229.101C262.931 229.952 262.818 230.803 262.647 231.598C262.591 231.825 262.534 231.995 262.534 232.222C262.42 232.846 262.307 233.414 262.137 233.981C262.08 234.265 262.023 234.549 261.966 234.832C261.853 235.343 261.739 235.854 261.626 236.365C261.569 236.648 261.456 236.932 261.399 237.216C261.285 237.67 261.115 238.181 261.002 238.635C260.888 238.975 260.831 239.316 260.718 239.656C260.661 239.77 260.661 239.883 260.604 239.997C260.434 240.564 260.264 241.132 260.094 241.642C260.037 241.756 260.037 241.813 259.98 241.926C259.81 242.437 259.64 242.948 259.469 243.402C259.469 243.458 259.413 243.515 259.413 243.572C259.242 244.083 259.015 244.593 258.788 245.104C258.732 245.218 258.675 245.331 258.618 245.445C258.448 245.899 258.221 246.353 258.051 246.75C258.051 246.807 257.994 246.863 257.994 246.92C257.767 247.374 257.597 247.828 257.37 248.282C257.313 248.452 257.199 248.566 257.143 248.736C256.972 249.077 256.802 249.36 256.632 249.701C256.575 249.871 256.462 249.985 256.405 250.155C256.235 250.495 256.008 250.836 255.837 251.176C255.781 251.29 255.724 251.403 255.667 251.517C255.44 251.914 255.156 252.368 254.929 252.765C254.646 253.219 254.305 253.73 253.965 254.184C253.908 254.298 253.851 254.354 253.794 254.468C253.511 254.808 253.284 255.149 253 255.489C252.886 255.66 252.773 255.773 252.659 255.943C252.432 256.227 252.205 256.454 251.978 256.738C251.865 256.908 251.695 257.022 251.581 257.192C251.354 257.419 251.127 257.646 250.957 257.873C250.787 258.043 250.673 258.157 250.503 258.327C250.276 258.554 250.049 258.724 249.822 258.951C249.652 259.065 249.538 259.235 249.368 259.348C249.141 259.575 248.914 259.746 248.687 259.916C248.517 260.029 248.403 260.143 248.233 260.256C247.949 260.427 247.722 260.654 247.438 260.824C247.325 260.937 247.211 260.994 247.041 261.108C246.644 261.391 246.247 261.618 245.849 261.845L282.794 240.394C283.191 240.167 283.588 239.883 283.985 239.656C284.099 239.543 284.269 239.486 284.383 239.372C284.666 239.202 284.893 238.975 285.177 238.805C285.347 238.691 285.461 238.578 285.631 238.464C285.858 238.294 286.085 238.067 286.312 237.897C286.482 237.783 286.596 237.613 286.766 237.5C286.993 237.273 287.22 237.102 287.447 236.875C287.617 236.705 287.731 236.592 287.901 236.421C288.128 236.194 288.355 235.967 288.525 235.74C288.639 235.57 288.809 235.457 288.923 235.286C289.15 235.059 289.377 234.776 289.604 234.492C289.717 234.322 289.831 234.208 289.944 234.038C290.228 233.697 290.455 233.357 290.739 233.016C290.795 232.903 290.852 232.846 290.909 232.733C291.249 232.279 291.533 231.825 291.874 231.314C291.874 231.314 291.874 231.257 291.93 231.257C292.157 230.86 292.441 230.463 292.668 230.065C292.725 229.952 292.782 229.838 292.838 229.725C293.009 229.384 293.236 229.044 293.406 228.703C293.463 228.533 293.576 228.42 293.633 228.249C293.803 227.909 293.973 227.625 294.144 227.285C294.2 227.114 294.314 227.001 294.371 226.831C294.427 226.774 294.427 226.66 294.484 226.604C294.654 226.206 294.825 225.866 294.995 225.468C295.052 225.412 295.052 225.355 295.052 225.298C295.222 224.844 295.449 224.447 295.619 223.993C295.676 223.88 295.733 223.766 295.789 223.652C295.96 223.199 296.187 222.688 296.357 222.177C296.357 222.12 296.357 222.12 296.414 222.063C296.414 222.007 296.47 221.95 296.47 221.893C296.641 221.382 296.811 220.872 296.981 220.418C297.038 220.304 297.038 220.247 297.095 220.134C297.265 219.566 297.435 219.056 297.605 218.488C297.662 218.375 297.662 218.261 297.719 218.148C297.776 217.977 297.832 217.807 297.889 217.637C297.946 217.467 298.003 217.296 298.003 217.126C298.116 216.672 298.286 216.218 298.4 215.707C298.457 215.424 298.57 215.14 298.627 214.856C298.74 214.345 298.854 213.835 298.967 213.324C299.024 213.154 299.081 212.927 299.081 212.756C299.081 212.7 299.138 212.586 299.138 212.473C299.251 211.905 299.365 211.281 299.535 210.713C299.592 210.486 299.648 210.316 299.648 210.089C299.819 209.295 299.989 208.443 300.103 207.592V207.535C300.103 207.365 300.159 207.195 300.159 207.025C300.273 206.344 300.386 205.663 300.5 204.982C300.556 204.641 300.613 204.357 300.613 204.017C300.67 203.449 300.784 202.882 300.84 202.258C300.84 202.087 300.897 201.974 300.897 201.804C300.897 201.633 300.954 201.406 300.954 201.179C301.011 200.555 301.067 199.988 301.181 199.363C301.237 199.023 301.237 198.682 301.294 198.285C301.351 197.604 301.408 196.98 301.464 196.299C301.464 196.072 301.521 195.845 301.521 195.561C301.521 195.448 301.521 195.334 301.521 195.221C301.521 195.05 301.521 194.937 301.578 194.767C301.635 194.029 301.691 193.234 301.748 192.44C301.748 192.383 301.748 192.326 301.748 192.27C301.805 191.475 301.862 190.624 301.862 189.773C301.862 189.602 301.862 189.432 301.862 189.262C301.862 189.092 301.862 188.921 301.862 188.751C301.862 188.07 301.918 187.389 301.918 186.708C301.918 186.595 301.918 186.481 301.918 186.368C301.918 185.573 301.975 184.779 301.975 183.984C301.975 183.814 301.975 183.587 301.975 183.417C301.975 182.622 301.975 181.828 301.975 181.033C301.975 180.863 301.975 180.749 301.975 180.579C302.146 179.728 302.146 178.65 302.146 177.571Z" fill="#5349BF"/>
<path d="M219.064 85.5793C249.595 103.229 269.969 143.635 269.798 199.363C269.628 255.092 249.141 273.195 218.61 255.603C188.078 237.954 167.705 196.242 167.875 140.514C167.989 84.7848 188.532 67.9868 219.064 85.5793ZM218.667 226.206C229.903 232.676 238.472 225.979 238.586 181.374C238.699 136.484 230.187 121.502 219.007 115.033C207.997 108.677 199.201 113.671 199.088 158.56C198.917 203.166 207.657 219.85 218.667 226.206Z" fill="white"/>
<path d="M309.41 242.266L346.355 220.815L376.432 238.18L339.488 259.632L309.41 242.266Z" fill="#8478EB"/>
<path d="M370.132 306.281L407.133 284.83L407.02 324.044L370.075 345.496L370.132 306.281Z" fill="#5349BF"/>
<path d="M328.365 217.58L365.309 196.072L346.355 220.815L309.41 242.267L328.365 217.58Z" fill="#312A6C"/>
<path d="M386.647 286.872L423.591 265.364L423.478 294.306L386.533 315.758L386.647 286.872Z" fill="#5349BF"/>
<path d="M370.245 277.395L407.189 255.943L423.59 265.364L386.646 286.872L370.245 277.395Z" fill="#8478EB"/>
<path d="M340.112 196.696L377.056 175.245C373.424 182.225 369.395 189.148 365.309 196.129L328.364 217.58C332.45 210.6 336.48 203.676 340.112 196.696Z" fill="#312A6C"/>
<path d="M370.529 181.714L407.473 160.206L407.189 255.943L370.245 277.395L370.529 181.714Z" fill="#5349BF"/>
<path d="M330.123 158.333L367.067 136.881L407.474 160.206L370.529 181.714L330.123 158.333Z" fill="#8478EB"/>
<path d="M374.275 274.785L390.676 284.262L390.619 313.148L386.59 315.815L374.275 303.727L374.162 343.225L370.133 345.552L343.403 325.122L343.517 285.908L281.716 250.268L281.773 224.22L330.067 158.39L334.38 155.893L374.559 179.104L374.275 274.785ZM343.63 230.406C343.687 219.85 344.595 204.584 345.106 194.54L344.198 194.029C340.566 201.009 336.537 207.933 332.451 214.913L313.496 239.599L343.574 256.965L343.63 230.406Z" fill="white"/>
<path d="M214.466 88.5298C244.998 106.179 265.371 146.585 265.201 202.314C265.031 258.043 244.544 276.146 214.012 258.553C183.481 240.904 163.107 199.193 163.277 143.464C163.448 87.7353 183.935 70.8805 214.466 88.5298ZM214.069 229.1C225.305 235.57 233.875 228.873 233.988 184.267C234.102 139.378 225.589 124.396 214.409 117.926C203.4 111.57 194.604 116.564 194.49 161.454C194.377 206.06 203.059 222.744 214.069 229.1Z" fill="#A4C2FC"/>
<path d="M370.246 277.395L386.647 286.872L386.59 315.758L370.189 306.281L370.076 345.495L339.317 327.732L339.431 288.518L277.687 252.879L277.743 226.831L330.124 158.333L370.53 181.657L370.246 277.395ZM339.544 233.073C339.601 222.518 340.509 207.252 341.02 197.207L340.112 196.696C336.48 203.676 332.45 210.6 328.364 217.58L309.41 242.267L339.487 259.632L339.544 233.073Z" fill="#A4C2FC"/>
<path d="M133.144 140.514L149.544 149.991L149.488 178.877L133.087 169.399L132.973 208.614L102.215 190.851L102.328 151.637L40.584 115.997L40.6407 89.9492L93.0212 21.4517L133.427 44.776L133.144 140.514ZM102.498 96.1917C102.555 85.6361 103.463 70.3703 103.974 60.3256L103.066 59.8148C99.4339 66.7951 95.4047 73.7186 91.3187 80.6989L72.3641 105.385L102.442 122.751L102.498 96.1917Z" fill="#A4C2FC"/>
<path d="M229.278 31.0475C227.065 35.4173 223.546 44.1 218.836 45.8026C212.366 48.0726 205.613 40.3545 200.449 36.4388C198.122 34.6795 200.392 30.707 202.776 32.523C206.975 35.701 212.253 38.425 217.587 36.4955C221.106 35.1903 223.716 32.1258 225.362 28.8342C226.667 26.1102 230.583 28.437 229.278 31.0475Z" fill="#BAD4F5"/>
<path d="M200.052 35.2472L198.065 34.0554C197.044 33.4312 196.703 32.0691 197.327 31.0476C197.952 30.0261 199.314 29.6856 200.335 30.3099L202.322 31.5016C203.343 32.1259 203.684 33.4879 203.059 34.5094C202.435 35.5309 201.073 35.8714 200.052 35.2472Z" fill="#FFC2B0"/>
<path d="M211.403 22.8756C213.616 21.4 213.446 18.9598 213.446 18.9598L213.332 18.1653C210.835 18.7895 209.303 21.0028 209.303 21.0028C209.303 21.0028 209.19 24.4078 211.403 22.8756ZM209.757 21.1163C209.757 21.1163 211.006 19.357 212.935 18.903L212.992 19.5273C212.992 19.5273 213.105 21.3433 211.46 22.4783C209.757 23.5566 209.757 21.1163 209.757 21.1163Z" fill="#1F3B82"/>
<path d="M198.293 68.4462C198.974 62.2604 201.471 57.9474 208.792 57.4366C209.246 57.3799 209.7 57.4934 210.154 57.6636L235.578 65.2114C235.578 65.2114 241.139 79.0017 227.519 83.2012C220.596 85.301 207.203 78.3207 201.131 74.3482C199.144 73.043 198.066 70.7729 198.293 68.4462Z" fill="#4852DB"/>
<path d="M212.878 24.181C214.75 27.6427 219.007 28.1535 220.823 25.2592C222.639 22.365 222.639 17.1439 220.766 13.6822C218.893 10.2204 215.942 9.70966 214.126 12.6607C212.253 15.5549 211.005 20.7192 212.878 24.181Z" fill="#FFC2B0"/>
<path d="M224.115 32.9768L224.512 32.8065C225.817 32.239 226.385 30.7068 225.76 29.4015L222.469 22.1942C221.901 20.889 220.369 20.3215 219.064 20.9457L218.667 21.116C217.361 21.6835 216.794 23.2157 217.418 24.521L219.575 31.8985C220.199 33.2038 222.866 33.601 224.115 32.9768Z" fill="#FFC2B0"/>
<path d="M225.136 22.1377C225.136 22.1377 226.158 24.6347 221.731 25.8265C218.156 26.7913 217.872 20.038 214.184 20.2082C210.154 20.3785 208.395 15.725 209.53 13.5117C210.665 11.2985 214.808 9.4257 218.213 10.1635C221.618 10.9012 228.428 10.5039 225.136 22.1377Z" fill="#4852DB"/>
<path d="M235.578 65.1544C235.01 59.1956 232.684 59.0253 233.251 51.1938C233.421 49.094 233.478 47.051 233.421 44.9513C233.308 33.5445 232.4 25.8265 225.93 27.6992L223.887 28.21C222.923 28.4937 221.958 28.8342 221.05 29.2882C211.573 34.1687 206.862 34.339 208.621 44.8378C209.019 55.2231 213.729 52.9531 211.743 63.2816C211.8 75.6531 235.578 72.8724 235.578 65.1544Z" fill="#BAD4F5"/>
<path d="M210.155 52.4992L215.32 41.2627C215.717 47.7322 215.206 53.464 212.255 57.4933L210.155 52.4992Z" fill="#8FB6EB"/>
<path d="M218.213 27.0755L218.44 26.054C218.44 26.054 217.873 26.9052 216.454 27.0187C216.454 27.0755 217.362 27.3592 218.213 27.0755Z" fill="#F09A82"/>
<path d="M217.476 22.5349C217.476 22.5349 219.859 25.0887 220.256 28.21C220.71 32.069 223.207 34.4525 226.499 32.3527C228.145 31.2745 229.563 30.1395 229.45 28.9477C228.542 18.9597 225.25 13.2847 225.25 13.2847L217.476 22.5349Z" fill="#4852DB"/>
<path d="M215.319 39.2761C215.319 39.2761 214.184 63.2814 201.472 55.5067C193.527 50.6829 194.378 36.6656 194.378 36.6656L197.897 36.0981C197.897 36.0981 201.699 51.1369 205.728 48.9236C209.757 46.7104 208.736 35.8711 210.722 35.0198C212.652 34.2253 215.319 39.2761 215.319 39.2761Z" fill="#BAD4F5"/>
<path d="M196.819 39.6167C197.897 39.2762 198.464 38.0844 198.124 37.0062L196.535 32.4094C196.194 31.3312 195.003 30.7637 193.924 31.1042C192.846 31.4447 192.279 32.6364 192.619 33.7147L194.208 38.3115C194.605 39.3897 195.74 39.9572 196.819 39.6167Z" fill="#FFC2B0"/>
<path d="M196.875 39.3907L201.812 35.702C202.096 35.475 202.209 35.021 201.982 34.6237L197.159 24.8059C196.988 24.4087 196.591 24.2952 196.307 24.5222L191.37 28.0975C191.086 28.3245 190.973 28.7785 191.2 29.1757L196.024 38.9935C196.137 39.2205 196.251 39.2772 196.534 39.334L196.875 39.3907Z" fill="#97CBFF"/>
<path d="M196.307 29.4018C196.307 29.4018 202.209 34.9634 202.039 34.5661L197.158 24.4078L196.704 24.3511C196.591 24.3511 196.42 24.3511 196.307 24.4646L191.37 28.0398C191.199 28.1533 191.143 28.3236 191.086 28.4938L196.307 29.4018Z" fill="#97CBFF"/>
<path d="M197.386 39.3331L202.266 35.7579C202.55 35.5309 202.607 35.0769 202.436 34.6796L197.613 24.8618C197.442 24.4646 197.045 24.3511 196.761 24.5781L191.881 28.1534C191.597 28.3804 191.54 28.8344 191.711 29.2316L196.534 39.0494C196.705 39.3899 197.102 39.5602 197.386 39.3331Z" fill="#1F3B82"/>
<path d="M191.881 29.9692L192.165 30.5367C192.165 30.5935 192.165 30.5935 192.108 30.5935C192.051 30.5935 192.051 30.5367 191.995 30.48L191.711 29.9125C191.711 29.8557 191.711 29.8557 191.768 29.8557C191.824 29.8557 191.881 29.9125 191.881 29.9692Z" fill="#45446C"/>
<path d="M192.39 30.9341L192.674 31.5016C192.674 31.5583 192.674 31.5583 192.617 31.5583C192.561 31.5583 192.561 31.5016 192.504 31.4448L192.22 30.8773C192.22 30.8206 192.22 30.8206 192.277 30.8206C192.277 30.8773 192.334 30.9341 192.39 30.9341Z" fill="#45446C"/>
<path d="M196.647 37.6874L201.471 34.1689L197.214 25.4861L192.391 29.0046L196.704 37.4604C196.704 37.5171 196.533 37.7441 196.647 37.6874Z" fill="#DBEDFF"/>
<path d="M193.753 27.5291L195.286 26.3941C195.342 26.3373 195.342 26.2806 195.342 26.2238C195.286 26.1671 195.229 26.1103 195.172 26.1671L193.64 27.3021C193.583 27.3588 193.583 27.4156 193.583 27.4723C193.64 27.5291 193.697 27.5858 193.753 27.5291Z" fill="white"/>
<path d="M209.416 21.5134L215.091 20.6054C215.318 20.5486 215.431 20.3784 215.374 20.2081C215.318 19.9811 215.147 19.8676 214.977 19.9244L209.302 20.8324C209.075 20.8891 208.962 21.0594 209.018 21.2296C209.018 21.3999 209.245 21.5701 209.416 21.5134Z" fill="#1F3B82"/>
<path d="M214.581 22.2512C215.035 23.1024 216.057 23.4429 216.908 22.9889C217.759 22.5349 218.1 21.5134 217.646 20.6622C217.192 19.8109 216.17 19.4704 215.319 19.9244C214.468 20.3217 214.127 21.3999 214.581 22.2512Z" fill="#FFC2B0"/>
<path d="M194.265 31.7291C194.946 32.8641 196.365 33.1478 197.443 32.3533C198.521 31.5588 198.862 30.0266 198.238 28.8916C197.613 27.7565 196.138 27.4728 195.06 28.2673C193.981 29.005 193.641 30.5941 194.265 31.7291ZM194.946 31.2751C194.492 30.5373 194.719 29.459 195.457 28.9483C196.195 28.4375 197.159 28.6078 197.613 29.3455C198.067 30.0833 197.84 31.1616 197.103 31.6723C196.365 32.1831 195.4 32.0128 194.946 31.2751Z" fill="#2C4482"/>
<path d="M194.265 31.7285C193.868 31.0475 193.811 30.1962 194.151 29.4585L194.832 29.7422C194.662 30.253 194.662 30.8205 194.946 31.2745C195.286 31.8988 196.024 32.1257 196.705 31.8987L196.932 32.6933C195.911 33.0338 194.832 32.6933 194.265 31.7285Z" fill="#FF5C97"/>
<path d="M196.704 27.8128L196.59 28.6073C196.25 28.5505 195.852 28.664 195.512 28.891C195.228 29.118 195.001 29.4585 194.888 29.799L194.15 29.572C194.32 29.0613 194.661 28.5505 195.115 28.21C195.569 27.8695 196.136 27.756 196.704 27.8128Z" fill="white"/>
<path d="M197.329 34.5661L199.429 33.0339C199.543 32.9204 199.599 32.6934 199.486 32.5231C199.372 32.3529 199.202 32.2961 199.032 32.4096L196.932 33.9419C196.819 34.0554 196.762 34.2824 196.875 34.4526C196.989 34.6229 197.216 34.6796 197.329 34.5661Z" fill="white"/>
<path d="M197.953 35.5874L200.053 34.0551C200.167 33.9416 200.223 33.7146 200.11 33.5444C199.996 33.3741 199.826 33.3174 199.656 33.4309L197.556 34.9631C197.443 35.0766 197.386 35.3036 197.499 35.4739C197.67 35.6441 197.84 35.7009 197.953 35.5874Z" fill="white"/>
<path d="M194.945 37.9142L194.377 36.6657C194.831 36.6657 195.399 38.5952 195.399 38.198V32.6932C195.399 32.296 195.002 32.0122 194.491 32.0122C194.037 32.0122 193.64 32.3527 193.64 32.75L193.696 35.474C193.696 35.928 194.434 37.971 194.945 37.9142Z" fill="#FFC2B0"/>
<path d="M43.3641 222.631C43.3641 222.631 40.6401 230.349 47.9041 235.513C47.9041 235.513 51.1389 236.308 51.0821 232.335C51.0254 228.363 50.9119 222.744 50.9119 222.744L43.3641 222.631Z" fill="#FFC2B0"/>
<path opacity="0.4" d="M37.3403 199.6C47.5732 196.202 51.6575 180.764 46.4627 165.117C41.268 149.47 28.7614 139.54 18.5284 142.937C8.29545 146.335 4.21117 161.773 9.40592 177.42C14.6007 193.067 27.1073 202.997 37.3403 199.6Z" fill="#A8C4E5"/>
<path d="M66.1784 217.693L62.0923 225.922L44.6133 199.59L48.6993 191.361L66.1784 217.693Z" fill="#2A1C9E"/>
<path d="M60.7863 204.981C64.6454 204.414 66.6316 206.911 65.1561 210.6C63.6806 214.232 59.3676 217.637 55.4518 218.204C51.5928 218.772 49.6066 216.275 51.0821 212.586C52.5576 208.897 56.9273 205.549 60.7863 204.981Z" fill="#4432DB"/>
<path d="M72.5908 248.055L51.3662 217.012L65.27 206.684L86.6648 237.896L72.5908 248.055Z" fill="#4432DB"/>
<path d="M82.2385 236.307C86.0975 235.74 88.0838 238.237 86.6083 241.926C85.1328 245.558 80.8197 248.963 76.904 249.53C73.045 250.098 71.0587 247.601 72.5342 243.912C74.0097 240.223 78.3227 236.818 82.2385 236.307Z" fill="#4432DB"/>
<path d="M86.6074 268.315L65.3828 237.272L79.2866 226.944L100.681 258.156L86.6074 268.315Z" fill="#4432DB"/>
<path d="M96.7187 267.112C100.495 264.155 102.161 259.978 100.442 257.782C98.722 255.585 94.267 256.201 90.4911 259.158C86.7152 262.114 85.0484 266.291 86.7681 268.488C88.4878 270.684 92.9429 270.068 96.7187 267.112Z" fill="#4432DB"/>
<path d="M27.8721 156.063L21.1756 173.883C20.8351 174.791 19.8136 174.791 18.9056 173.826C17.9975 172.861 17.5435 171.386 17.884 170.478L24.5238 152.658C24.8643 151.75 25.8858 151.75 26.7938 152.715C27.7586 153.623 28.2126 155.098 27.8721 156.063Z" fill="white"/>
<path d="M33.8872 163.951L27.1907 181.771C26.8502 182.679 25.8287 182.679 24.9207 181.714C24.0127 180.749 23.5587 179.274 23.8992 178.366L30.5957 160.546C30.9362 159.638 31.9577 159.638 32.8657 160.603C33.717 161.568 34.2277 163.043 33.8872 163.951Z" fill="white"/>
<path d="M34.9657 142.67C21.4024 136.2 9.65511 143.805 8.69036 159.695C7.7256 175.528 17.8839 193.631 31.4472 200.101C45.0105 206.57 56.7578 198.966 57.7225 183.076C58.6873 167.186 48.529 149.139 34.9657 142.67ZM54.0338 181.26C53.1825 194.71 43.1945 201.179 31.6742 195.731C20.1539 190.226 11.5279 174.904 12.3224 161.454C13.1736 148.004 23.1617 141.535 34.682 146.983C46.2022 152.488 54.8283 167.81 54.0338 181.26Z" fill="#2A1C9E"/>
<path d="M58.5171 173.882C58.4603 173.542 58.4603 173.201 58.4036 172.861C58.4036 172.804 58.4036 172.747 58.4036 172.691C58.4036 172.52 58.3468 172.35 58.3468 172.18C58.2901 171.953 58.2901 171.783 58.2333 171.556C58.2333 171.442 58.1766 171.329 58.1766 171.215C58.1198 171.045 58.1198 170.875 58.0631 170.704C58.0631 170.591 58.0063 170.421 58.0063 170.307C57.9496 170.137 57.9496 169.967 57.8928 169.796C57.8361 169.626 57.8361 169.456 57.7793 169.286C57.7793 169.172 57.7226 169.115 57.7226 169.002C57.6658 168.775 57.6091 168.548 57.5523 168.321C57.4956 168.151 57.4956 168.037 57.4388 167.867C57.4388 167.81 57.4388 167.81 57.3821 167.753C57.2686 167.356 57.1551 166.902 57.0416 166.505C57.0416 166.448 57.0416 166.448 56.9848 166.391C56.8713 166.051 56.7578 165.654 56.6443 165.313C56.6443 165.256 56.5876 165.2 56.5876 165.143C56.5308 165.029 56.4741 164.859 56.4741 164.746C56.4173 164.575 56.3606 164.348 56.3038 164.178C56.2471 164.065 56.1903 163.951 56.1903 163.781C56.1336 163.611 56.0768 163.497 56.0201 163.327C55.9633 163.213 55.9633 163.1 55.9066 162.986C55.8498 162.759 55.7363 162.532 55.6228 162.305C55.5661 162.192 55.5093 162.078 55.5093 161.965C55.5093 161.908 55.4526 161.908 55.4526 161.851C55.2823 161.454 55.1121 161.114 54.9418 160.716V160.66C54.8851 160.546 54.8283 160.433 54.7716 160.319C54.6581 160.035 54.4878 159.752 54.3743 159.468C54.3743 159.411 54.3176 159.354 54.3176 159.354C54.2041 159.127 54.0906 158.9 53.9771 158.616C53.8636 158.446 53.8068 158.219 53.6933 158.049C53.6933 157.992 53.6366 157.992 53.6366 157.935C53.2961 157.311 53.0123 156.744 52.6718 156.119C52.6151 156.063 52.6151 156.006 52.6151 155.949C52.5016 155.779 52.4448 155.665 52.3313 155.495C52.1611 155.268 52.0476 154.984 51.8773 154.757C51.7638 154.53 51.5936 154.36 51.4801 154.133C51.3098 153.906 51.1963 153.679 51.0261 153.452C50.9693 153.395 50.9126 153.282 50.8558 153.225C50.7423 153.055 50.6288 152.885 50.4586 152.658C50.3451 152.544 50.2883 152.431 50.1748 152.26C49.8911 151.863 49.6073 151.466 49.3236 151.125C48.9831 150.671 48.6426 150.274 48.3588 149.877L48.302 149.82C48.075 149.536 47.7913 149.196 47.5643 148.912C47.5075 148.855 47.4508 148.799 47.394 148.742C47.1103 148.401 46.7698 148.061 46.486 147.72L46.4293 147.664C46.3158 147.55 46.259 147.437 46.1455 147.38C45.9753 147.153 45.7483 146.983 45.578 146.756C45.5213 146.699 45.5213 146.699 45.4645 146.642C45.351 146.529 45.1808 146.358 45.0673 146.245C44.897 146.075 44.7835 145.961 44.6133 145.791C44.5565 145.734 44.4998 145.677 44.443 145.621C44.2728 145.507 44.1593 145.337 43.989 145.223C43.8755 145.11 43.7053 144.996 43.5918 144.883C43.535 144.826 43.4215 144.769 43.3648 144.713C43.1945 144.599 43.0243 144.429 42.854 144.315C42.7405 144.202 42.627 144.145 42.5135 144.032C42.4 143.975 42.3433 143.861 42.2298 143.805C42.0595 143.691 41.8893 143.521 41.719 143.407C41.6055 143.351 41.492 143.237 41.4353 143.18C41.3218 143.124 41.2083 143.01 41.0948 142.953C40.9245 142.84 40.7543 142.726 40.584 142.613C40.5273 142.556 40.4138 142.499 40.357 142.443C40.2435 142.329 40.0733 142.272 39.9598 142.159C39.7895 142.045 39.676 141.932 39.5058 141.875C39.449 141.818 39.3923 141.818 39.3355 141.762C39.1653 141.648 38.9383 141.535 38.768 141.421C38.6545 141.364 38.4843 141.251 38.3708 141.194C38.314 141.194 38.314 141.137 38.2573 141.137C37.9168 140.91 37.5763 140.74 37.2358 140.57C37.2358 140.57 37.179 140.57 37.179 140.513C36.8385 140.343 36.5548 140.173 36.2143 140.002C36.1575 139.946 36.044 139.946 35.9873 139.889C35.7035 139.775 35.4765 139.662 35.1927 139.548C35.0792 139.492 35.0225 139.492 34.909 139.435C34.7955 139.378 34.6252 139.321 34.5117 139.265C34.3982 139.208 34.2847 139.151 34.228 139.151C34.0577 139.094 33.8875 139.038 33.7172 138.981C33.6037 138.924 33.4902 138.867 33.3767 138.867C33.32 138.867 33.2632 138.811 33.2065 138.811C32.866 138.697 32.5255 138.584 32.2417 138.47C31.9012 138.357 31.5607 138.3 31.2202 138.186C31.1635 138.186 31.1067 138.186 31.1067 138.186C30.9932 138.13 30.8797 138.13 30.7662 138.13C30.596 138.073 30.4257 138.073 30.2555 138.016C30.1987 138.016 30.0852 138.016 30.0285 137.959C29.8582 137.959 29.7447 137.903 29.5745 137.903C29.461 137.903 29.3475 137.846 29.234 137.846C29.1205 137.846 29.007 137.846 28.8935 137.789C28.7232 137.789 28.6097 137.732 28.4395 137.732C28.3827 137.732 28.2692 137.732 28.2125 137.732C28.099 137.732 27.9287 137.732 27.8152 137.732C27.645 137.732 27.4747 137.732 27.3045 137.732C27.2477 137.732 27.191 137.732 27.1342 137.732C27.0207 137.732 26.8505 137.732 26.737 137.732C26.5667 137.732 26.3965 137.732 26.1695 137.732C26.1127 137.732 26.056 137.732 25.9992 137.732C25.8857 137.732 25.7722 137.732 25.6587 137.732C25.4317 137.732 25.2047 137.732 25.0345 137.789C24.9777 137.789 24.921 137.789 24.8642 137.789C24.6372 137.789 24.4102 137.846 24.1832 137.903C24.1265 137.903 24.1265 137.903 24.0697 137.903C23.8995 137.959 23.7292 137.959 23.559 138.016C23.4455 138.016 23.332 138.073 23.2185 138.073C23.1617 138.073 23.0482 138.13 22.9915 138.13C22.7077 138.186 22.3672 138.3 22.0835 138.357C22.0267 138.357 21.9132 138.413 21.8564 138.413C21.6294 138.47 21.3457 138.584 21.1187 138.64C21.0052 138.697 20.8917 138.754 20.7782 138.811C20.6079 138.867 20.4944 138.924 20.3242 138.981C20.2674 138.981 20.2674 139.038 20.2107 139.038C19.9837 139.151 19.7567 139.265 19.5297 139.378C19.4162 139.435 19.3027 139.492 19.1892 139.548C18.8487 139.719 18.5082 139.946 18.2244 140.116L13.0034 143.521C13.3439 143.294 13.6277 143.124 13.9682 142.953C14.0817 142.897 14.1952 142.84 14.3087 142.783C14.5357 142.67 14.7627 142.556 14.9897 142.443C15.1599 142.329 15.3869 142.272 15.5572 142.216C15.6707 142.159 15.7842 142.102 15.8977 142.045C16.1247 141.932 16.4084 141.875 16.6354 141.818C16.6922 141.818 16.8057 141.762 16.8624 141.762C17.1462 141.648 17.4867 141.591 17.7704 141.535C17.8272 141.535 17.9407 141.478 17.9974 141.478C18.2812 141.421 18.5649 141.364 18.8487 141.308C18.9054 141.308 18.9054 141.308 18.9622 141.308C19.2459 141.251 19.5297 141.251 19.8702 141.194C20.0972 141.194 20.3242 141.137 20.4944 141.137C20.6647 141.137 20.8349 141.137 21.0052 141.081C21.1754 141.081 21.3457 141.081 21.5727 141.081C21.7997 141.081 21.97 141.081 22.197 141.081C22.3672 141.081 22.5375 141.081 22.7077 141.081C22.9347 141.081 23.1617 141.081 23.332 141.137C23.5022 141.137 23.6157 141.194 23.786 141.194C24.013 141.194 24.24 141.251 24.467 141.308C24.6372 141.308 24.7507 141.364 24.921 141.364C25.148 141.421 25.4317 141.478 25.6587 141.535C25.7722 141.535 25.8857 141.591 25.9992 141.591C26.3965 141.705 26.737 141.762 27.1342 141.875C27.5315 141.989 27.872 142.102 28.2692 142.216C28.3827 142.272 28.4962 142.329 28.6097 142.329C28.8935 142.443 29.1205 142.556 29.4042 142.613C29.5177 142.67 29.688 142.726 29.8015 142.783C30.142 142.953 30.5392 143.067 30.8797 143.237C31.277 143.407 31.6742 143.634 32.0715 143.861C32.0715 143.861 32.1282 143.861 32.1282 143.918C32.5255 144.145 32.9227 144.372 33.2632 144.542C33.3767 144.599 33.547 144.713 33.6605 144.769C33.8875 144.94 34.1712 145.11 34.3982 145.223C34.5685 145.337 34.682 145.45 34.8522 145.507C35.0792 145.677 35.3062 145.791 35.5333 145.961C35.7035 146.075 35.8738 146.188 36.044 146.302C36.271 146.472 36.4413 146.642 36.6683 146.756C36.8385 146.869 37.0088 147.039 37.179 147.153C37.406 147.323 37.5763 147.493 37.8033 147.664C37.9735 147.777 38.1438 147.947 38.314 148.061C38.541 148.231 38.7113 148.401 38.9383 148.628C39.1085 148.742 39.222 148.912 39.3923 149.026C39.6193 149.196 39.7895 149.423 40.0165 149.65C40.13 149.763 40.3003 149.934 40.4138 150.047C40.6408 150.274 40.8678 150.558 41.0948 150.785C41.2083 150.898 41.265 151.012 41.3785 151.069C41.719 151.409 42.0028 151.806 42.3433 152.147C42.4 152.204 42.4568 152.26 42.5135 152.317C42.7973 152.658 43.0243 152.941 43.308 153.282C43.6485 153.679 43.989 154.133 44.2728 154.53C44.5565 154.928 44.8403 155.268 45.124 155.665C45.2375 155.779 45.2943 155.892 45.4078 156.063C45.578 156.346 45.7483 156.573 45.9185 156.857C46.0888 157.084 46.2023 157.311 46.3725 157.538C46.486 157.765 46.6563 157.936 46.7698 158.163C46.94 158.39 47.0535 158.616 47.2238 158.9C47.3373 159.127 47.4508 159.298 47.5643 159.525C47.9048 160.092 48.2453 160.716 48.529 161.34C48.6425 161.568 48.756 161.795 48.8695 162.022C48.983 162.249 49.0966 162.476 49.2101 162.759C49.3803 163.1 49.5506 163.44 49.6641 163.781C49.7208 163.894 49.7776 164.008 49.8343 164.121C50.0046 164.575 50.2316 164.973 50.4018 165.427C50.4586 165.54 50.5153 165.654 50.5153 165.767C50.6288 166.108 50.7991 166.448 50.9126 166.732C50.9693 166.902 51.0261 167.016 51.0828 167.186C51.1963 167.526 51.3098 167.81 51.4233 168.151C51.4801 168.264 51.5368 168.434 51.5368 168.548C51.6503 168.945 51.8206 169.399 51.9341 169.796C51.9341 169.853 51.9341 169.853 51.9908 169.91C52.1043 170.364 52.2746 170.818 52.3881 171.272C52.4448 171.442 52.4448 171.556 52.5016 171.726C52.5583 172.066 52.6718 172.35 52.7286 172.691C52.7853 172.861 52.7853 173.031 52.8421 173.201C52.8988 173.485 52.9556 173.826 53.0123 174.109C53.0691 174.28 53.0691 174.45 53.1258 174.62C53.1826 174.904 53.2393 175.244 53.2961 175.528C53.2961 175.698 53.3528 175.869 53.3528 176.039C53.4096 176.436 53.4663 176.833 53.5231 177.231C53.5231 177.287 53.5231 177.344 53.5231 177.401C53.5798 177.855 53.6366 178.309 53.6366 178.82C53.6366 178.933 53.6366 179.103 53.6366 179.217C53.6366 179.557 53.6933 179.898 53.6933 180.238C53.6933 180.409 53.6933 180.579 53.6933 180.692C53.6933 181.033 53.6933 181.317 53.6933 181.657C53.6933 181.827 53.6933 181.941 53.6933 182.111C53.6933 182.565 53.6933 183.019 53.6366 183.473C53.5798 183.927 53.5798 184.381 53.5231 184.835C53.5231 184.949 53.4663 185.062 53.4663 185.232C53.4096 185.516 53.4096 185.857 53.3528 186.14C53.3528 186.311 53.2961 186.481 53.2961 186.651C53.2393 186.935 53.1826 187.162 53.1826 187.389C53.1258 187.559 53.1258 187.786 53.0691 187.956C53.0123 188.183 52.9556 188.41 52.8988 188.637C52.8421 188.864 52.7853 189.035 52.7286 189.262C52.6718 189.489 52.6151 189.659 52.5583 189.886C52.5016 190.113 52.3881 190.34 52.3313 190.567C52.2746 190.737 52.2178 190.907 52.1611 191.078C52.0476 191.361 51.9341 191.645 51.8206 191.872C51.7638 192.042 51.7071 192.213 51.5936 192.383C51.5368 192.44 51.5368 192.553 51.4801 192.61C51.3666 192.894 51.1963 193.177 51.0828 193.461C51.0828 193.518 51.0261 193.575 51.0261 193.631C50.8558 193.972 50.6856 194.312 50.5153 194.596C50.3451 194.937 50.1181 195.22 49.9478 195.504C49.8911 195.561 49.8911 195.618 49.8343 195.674C49.6641 195.901 49.5506 196.128 49.3803 196.355C49.3236 196.469 49.2668 196.526 49.2101 196.639C49.0398 196.809 48.9263 197.036 48.7561 197.207C48.6993 197.263 48.6425 197.377 48.5858 197.434C48.3588 197.661 48.1318 197.944 47.9048 198.171C47.848 198.228 47.848 198.228 47.7913 198.285C47.5643 198.455 47.394 198.682 47.167 198.852C47.1103 198.909 46.9968 198.966 46.94 199.079C46.7698 199.25 46.5995 199.363 46.3725 199.533C46.3158 199.59 46.2023 199.647 46.1455 199.704C45.8618 199.874 45.6348 200.101 45.351 200.271L50.5721 196.866C50.8558 196.696 51.0828 196.526 51.3666 196.299C51.4233 196.242 51.5368 196.185 51.5936 196.128C51.7638 195.958 51.9341 195.845 52.1611 195.674C52.2178 195.618 52.3313 195.561 52.3881 195.447C52.6151 195.277 52.7853 195.05 53.0123 194.88C53.0691 194.823 53.0691 194.823 53.1258 194.766C53.3528 194.539 53.5798 194.312 53.8068 194.029C53.8636 193.972 53.9203 193.858 53.9771 193.802C54.1473 193.631 54.3176 193.404 54.4311 193.234C54.4878 193.177 54.5446 193.064 54.6013 192.95C54.7716 192.723 54.9418 192.496 55.0553 192.269C55.1121 192.213 55.1121 192.156 55.1688 192.099C55.1688 192.099 55.1688 192.042 55.2256 192.042C55.3958 191.759 55.6228 191.475 55.7931 191.191C55.9633 190.907 56.1336 190.567 56.3038 190.283C56.3038 190.283 56.3038 190.226 56.3606 190.226C56.3606 190.17 56.4173 190.113 56.4173 190.056C56.5308 189.772 56.7011 189.489 56.8146 189.205C56.8713 189.148 56.8713 189.035 56.9281 188.978C56.9281 188.921 56.9848 188.864 56.9848 188.808C57.0416 188.694 57.0416 188.581 57.0983 188.467C57.2118 188.183 57.3253 187.9 57.4388 187.673C57.4388 187.616 57.4956 187.502 57.4956 187.446C57.5523 187.332 57.5523 187.219 57.6091 187.105C57.6658 186.878 57.7793 186.651 57.8361 186.424C57.8928 186.311 57.8928 186.254 57.9496 186.14C58.0063 186.027 58.0063 185.913 58.0063 185.8C58.0631 185.573 58.1198 185.403 58.1766 185.176C58.1766 185.062 58.2333 184.949 58.2333 184.835C58.2901 184.722 58.2901 184.608 58.2901 184.438C58.3468 184.268 58.3468 184.097 58.4036 183.87C58.4036 183.757 58.4603 183.7 58.4603 183.587C58.5171 183.416 58.5171 183.246 58.5171 183.076C58.5738 182.906 58.5738 182.735 58.5738 182.565C58.5738 182.508 58.5738 182.452 58.6306 182.338C58.6873 182.111 58.6873 181.884 58.7441 181.6C58.7441 181.487 58.8008 181.373 58.8008 181.203C58.8008 181.146 58.8008 181.146 58.8008 181.09C58.8576 180.692 58.8576 180.295 58.9143 179.898V179.841C58.9143 179.444 58.9711 179.103 58.9711 178.706C58.9711 178.649 58.9711 178.593 58.9711 178.479C58.9711 178.309 58.9711 178.195 58.9711 178.025C58.9711 177.855 58.9711 177.685 58.9711 177.514C58.9711 177.401 58.9711 177.231 58.9711 177.117C58.9711 176.947 58.9711 176.777 58.9711 176.663C58.9711 176.55 58.9711 176.436 58.9711 176.323C58.9711 176.096 58.9711 175.869 58.9143 175.642C58.9143 175.528 58.9143 175.358 58.9143 175.244C58.9143 175.188 58.9143 175.131 58.9143 175.131C58.8576 174.734 58.8576 174.336 58.8008 173.882C58.5171 173.996 58.5171 173.939 58.5171 173.882Z" fill="#2A1C9E" stroke="#2A1C9E" stroke-width="3.4433" stroke-miterlimit="10"/>
<path d="M31.1065 142.216C24.5235 139.094 18.054 139.038 12.8897 142.045C7.27143 145.394 3.92316 151.75 3.41241 160.035C2.39091 176.209 12.8897 194.766 26.7367 201.349C30.766 203.279 34.7953 204.017 38.4273 203.619C40.7541 203.392 42.9673 202.655 44.9536 201.463C50.5151 198.171 53.8634 191.815 54.3741 183.473C55.3956 167.356 44.9536 148.855 31.1065 142.216ZM48.7558 181.657C48.3586 188.07 45.8048 193.007 41.6053 195.504C37.7463 197.774 32.8658 197.717 27.815 195.277C16.6352 189.943 8.23618 175.017 9.03068 161.908C9.42793 155.495 11.9817 150.558 16.1812 148.061C17.6567 147.21 19.3025 146.642 21.005 146.472C23.7857 146.188 26.8503 146.756 29.9715 148.231C41.1513 153.622 49.6071 168.604 48.7558 181.657Z" fill="#6271F0"/>
<path d="M54.6585 213.437L49.3807 227.227C48.6429 228.306 38.7116 222.914 39.6196 221.269C39.7899 220.985 45.5784 204.3 51.4237 201.747C56.134 199.647 57.3825 207.138 54.6585 213.437Z" fill="#9EBBDE"/>
<path d="M64.1918 204.925L63.7946 204.868C62.4326 204.755 61.4678 203.563 61.5813 202.201L62.2623 194.653C62.3758 193.291 63.5676 192.326 64.9296 192.44L65.3268 192.496C66.6888 192.61 67.6536 193.802 67.5401 195.164L67.9374 202.485C67.8239 203.847 65.4971 205.038 64.1918 204.925Z" fill="#FFC2B0"/>
<path d="M63.7945 195.561C65.27 198.852 67.994 199.477 69.8667 196.923C71.7395 194.369 72.0233 189.602 70.5477 186.254C69.0722 182.962 66.3482 182.338 64.4755 184.892C62.6595 187.502 62.319 192.269 63.7945 195.561Z" fill="#FFC2B0"/>
<path d="M63.5098 186.594C63.5098 186.594 64.588 193.234 59.367 194.993C59.367 194.993 53.238 191.815 57.324 185.175C60.8993 179.33 67.312 183.359 67.312 183.359L63.5098 186.594Z" fill="#21DED5"/>
<path d="M71.1162 187.899C71.1162 187.899 69.2435 185.629 65.5547 186.027L67.3139 183.359C67.3139 183.359 70.1515 182.678 71.1162 187.899Z" fill="#21DED5"/>
<path d="M60.9572 190.624C62.0922 188.921 64.8162 188.921 68.7887 190.227C72.3639 190.283 72.6477 186.14 72.6477 186.14C73.1017 183.927 71.6262 183.019 69.4129 182.565L63.6812 181.373C60.4464 180.692 57.4386 183.473 56.9846 185.687L56.8711 186.027C56.3604 188.24 58.7439 190.17 60.9572 190.624Z" fill="#4852DB"/>
<path opacity="0.4" d="M78.9419 304.205C78.9836 299.848 71.9031 296.249 63.1272 296.165C54.3514 296.081 47.2034 299.545 47.1618 303.901C47.1202 308.258 54.2006 311.858 62.9765 311.941C71.7523 312.025 78.9003 308.562 78.9419 304.205Z" fill="#A8C4E5"/>
<path d="M77.8674 303.784L71.3978 308.891C69.7521 309.913 68.7306 309.175 67.3686 308.834C66.7443 308.664 66.3471 308.153 66.4038 307.529L66.4606 306.224C66.4606 304.294 68.2198 303.216 69.4683 302.649L76.0514 299.244C77.2999 298.733 81.2156 300.889 77.8674 303.784Z" fill="#2C1F9C"/>
<path d="M55.5658 294.93L57.0981 303.046C57.5521 307.302 50.7988 307.813 50.5718 303.216L50.6853 294.476C50.742 293.058 54.5443 290.561 55.5658 294.93Z" fill="#2C1F9C"/>
<path d="M71.8535 304.691C71.7967 306.678 67.0297 306.564 67.0864 304.578L67.1999 298.222L71.967 298.335L71.8535 304.691Z" fill="#C6D2F2"/>
<path d="M56.2465 300.378C56.1898 302.365 51.4228 302.194 51.4795 300.265L51.6498 293.909L56.4168 294.022L56.2465 300.378Z" fill="#C6D2F2"/>
<path d="M56.927 298.562C54.9975 299.868 51.933 299.754 50.9683 298.165C50.4008 274.784 46.9958 259.121 47.7335 239.202L62.6588 235.229C59.3673 259.064 58.5161 280.062 56.927 298.562Z" fill="#3B2AD1"/>
<path d="M72.4777 301.173C70.8887 303.216 67.4837 303.159 66.5189 301.627L58.2334 238.464L75.4287 238.918L72.4777 301.173Z" fill="#3B2AD1"/>
<path d="M47.2217 237.499C48.6405 230.746 49.2647 223.084 48.4135 213.721C48.754 200.782 50.57 200.838 59.2528 200.555L61.2958 200.498C63.7928 200.384 66.233 200.952 68.4463 202.087C75.9941 206.003 79.6828 206.967 77.8668 216.161L75.5401 238.918C75.1428 250.665 46.2002 251.289 47.2217 237.499Z" fill="#9EBBDE"/>
<path d="M71.2285 219.907L74.974 237.613L75.428 239.372L76.2793 230.917L71.2285 219.907Z" fill="#6F9ED9"/>
<path d="M58.9136 197.036C60.3891 200.328 64.3048 201.066 66.1209 198.512C67.9936 195.958 70.5474 190.794 69.0719 187.502C67.5964 184.211 58.3461 184.097 56.4733 186.651C54.6573 189.262 57.4381 193.745 58.9136 197.036Z" fill="#4852DB"/>
<path d="M77.7544 230.689C77.7544 230.689 79.1731 238.748 88.0262 239.713C88.0262 239.713 91.2042 238.805 89.2179 235.4C87.1749 231.995 84.3942 227.114 84.3942 227.114L77.7544 230.689Z" fill="#FFC2B0"/>
<path d="M70.5469 217.013L75.0869 231.087C75.7679 232.165 85.9262 227.398 85.1317 225.695C84.9614 225.412 80.0809 208.443 74.4059 205.549C69.8091 203.222 68.1066 210.6 70.5469 217.013Z" fill="#9EBBDE"/>
<path opacity="0.4" d="M194.32 242.267L189.44 236.308L134.619 268.996C133.2 269.791 132.633 271.38 133.371 272.571C134.108 273.763 135.811 274.047 137.23 273.252L194.32 242.267Z" fill="#A8C4E5"/>
<path opacity="0.4" d="M210.778 256.454L163.392 285.681C161.973 286.475 161.405 288.064 162.143 289.256C162.881 290.448 164.583 290.731 166.002 289.937L216.85 259.632L210.778 256.454Z" fill="#A8C4E5"/>
<path d="M200.223 151.013L199.996 150.899C199.144 150.445 198.18 151.126 197.839 152.431L193.412 168.946L167.08 153.964L171.507 137.449C171.847 136.144 171.45 134.669 170.599 134.215L170.372 134.101C169.521 133.647 168.556 134.328 168.215 135.633L163.448 153.51L162.994 155.269L157.263 176.493L156.922 177.799L151.077 199.648V199.761L144.664 223.539L144.437 224.447L138.705 245.842L138.251 247.601L132.293 269.961C131.952 271.266 132.349 272.742 133.201 273.196L133.428 273.309C134.279 273.763 135.244 273.082 135.584 271.777L141.202 250.723L167.534 265.705L161.916 286.759C161.576 288.064 161.973 289.54 162.824 289.994L163.051 290.107C163.902 290.561 164.867 289.88 165.208 288.575L201.187 154.077C201.471 152.942 201.074 151.467 200.223 151.013ZM192.221 173.315L187.227 191.986L160.895 177.004L165.889 158.333L192.221 173.315ZM181.041 215.14L154.709 200.158L159.703 181.487L186.035 196.47L181.041 215.14ZM174.855 238.238L148.523 223.256L153.517 204.585L179.849 219.567L174.855 238.238ZM142.394 246.353L147.388 227.682L173.72 242.664L168.726 261.335L142.394 246.353Z" fill="#2C1F9C"/>
<path opacity="0.4" d="M335.189 366.442C343.239 366.133 349.634 362.506 349.475 358.341C349.315 354.175 342.661 351.048 334.611 351.357C326.562 351.665 320.166 355.292 320.326 359.458C320.485 363.623 327.14 366.75 335.189 366.442Z" fill="#A8C4E5"/>
<path d="M323.823 355.823L328.817 347.878C329.555 347.141 331.371 346.289 332.619 346.006C333.187 345.892 333.697 346.176 333.811 346.687L334.095 347.822C334.605 349.467 334.492 349.751 333.527 350.716L327.795 356.561C326.831 357.526 325.185 358.207 324.163 357.98L323.88 357.923C322.915 357.753 322.858 356.788 323.823 355.823Z" fill="#2C1F9C"/>
<path d="M333.244 346.063C333.584 347.822 329.215 349.354 328.874 347.595L327.853 341.977L332.222 340.444L333.244 346.063Z" fill="#C6D2F2"/>
<path d="M333.3 342.998C331.371 344.247 328.193 345.325 327.512 343.849C324.107 324.498 325.639 305.373 331.938 287.553L345.558 283.808C337.33 305.316 333.981 325.746 333.3 342.998Z" fill="#3727C2"/>
<path d="M341.984 301.343L341.076 307.813L339.26 294.93L341.359 295.328L341.984 301.343Z" fill="#2C1F9C"/>
<path d="M330.065 359.569L337.33 354.405C338.238 354.064 340.054 354.178 341.245 354.575C341.756 354.745 342.097 355.313 341.983 355.88L341.813 357.129C341.643 358.945 341.416 359.172 340.224 359.626L333.187 362.35C331.995 362.804 330.406 362.577 329.611 361.896L329.384 361.669C328.533 360.988 328.874 360.023 330.065 359.569Z" fill="#2C1F9C"/>
<path d="M341.642 354.972C341.245 356.845 336.989 356.051 337.386 354.235L338.635 348.219L342.891 348.957L341.642 354.972Z" fill="#C6D2F2"/>
<path d="M343.629 350.432C341.813 352.418 338.635 352.191 338.011 350.545L341.359 287.042L357.306 288.404L343.629 350.432Z" fill="#3B2AD1"/>
<path d="M331.939 257.929L328.477 267.917C327.91 270.074 325.526 271.039 323.767 269.733L319.965 267.009L319.624 272.401L325.129 276.43C327.172 277.906 330.009 277.225 331.201 274.898C333.301 270.812 336.082 265.25 336.082 265.137C336.025 264.853 331.939 257.929 331.939 257.929Z" fill="#FFC2B0"/>
<path d="M333.925 252.028L327.796 264.286C328.818 268.542 330.974 270.698 333.698 271.833L336.025 255.262L333.925 252.028Z" fill="#BAD4F5"/>
<path d="M328.647 260.881C328.647 260.881 330.634 266.329 337.217 268.712" stroke="white" stroke-width="3.0903" stroke-miterlimit="10" stroke-linecap="round" stroke-linejoin="round"/>
<path d="M331.938 285.68V263.264C331.938 250.665 336.422 246.012 343.856 248.906L346.92 249.757C355.887 254.922 360.484 254.638 358.895 264.796L357.306 287.042C357.306 298.506 331.371 299.187 331.938 285.68Z" fill="#BAD4F5"/>
<path d="M352.936 268.655L356.795 285.85L357.249 287.496L357.817 279.211L352.936 268.655Z" fill="#8FB6EB"/>
<path d="M343.969 248.509C343.969 248.509 345.388 249.417 346.012 249.417C346.636 249.417 351.63 243.742 348.112 238.01C345.842 234.378 339.826 237.726 339.826 237.726L343.969 248.509Z" fill="#2C1F9C"/>
<path d="M357.703 256.51C357.703 256.51 364.173 265.08 365.989 283.126C366.5 288.12 362.243 292.093 357.703 290.901L345.729 287.553V284.375C345.729 284.375 360.881 288.631 359.746 283.353C358.441 277.451 348.34 261.334 357.703 256.51Z" fill="#FFC2B0"/>
<path d="M342.477 249.988C344.585 249.181 345.076 245.347 343.575 241.425C342.073 237.503 339.148 234.977 337.04 235.784C334.933 236.591 334.441 240.424 335.943 244.346C337.444 248.269 340.37 250.794 342.477 249.988Z" fill="#FFC2B0"/>
<path d="M347.545 243.685C347.545 247.374 344.48 249.587 341.87 247.998C339.259 246.409 337.16 242.153 337.16 238.464C337.16 234.775 339.259 233.13 341.87 234.719C344.424 236.364 347.545 240.053 347.545 243.685Z" fill="#FFC2B0"/>
<path d="M344.765 254.411L344.424 254.468C343.232 254.695 342.041 253.787 341.87 252.538L340.735 245.274C340.508 243.969 341.36 242.777 342.551 242.55L342.892 242.493C344.084 242.266 345.275 243.174 345.446 244.423L347.546 251.233C347.716 252.481 346.013 254.184 344.765 254.411Z" fill="#FFC2B0"/>
<path d="M326.377 275.919L321.042 274.046C320.702 273.99 320.361 273.536 320.305 273.138L318.545 262.242C318.489 261.845 318.716 261.561 318.999 261.618L324.504 262.98C324.845 263.037 325.185 263.491 325.242 263.888L327.001 274.784C327.058 275.068 326.944 275.238 326.774 275.408L326.377 275.919Z" fill="#AEC7E6"/>
<path d="M321.667 266.158C321.667 266.158 320.361 273.592 320.305 273.138L318.091 262.356L318.659 261.675C318.772 261.618 318.886 261.561 318.999 261.618L324.504 262.98C324.674 263.037 324.845 263.15 324.958 263.32L321.667 266.158Z" fill="#BAD4F5"/>
<path d="M325.98 276.033L320.475 274.671C320.135 274.614 319.851 274.16 319.794 273.763L318.035 262.867C317.978 262.47 318.149 262.186 318.489 262.243L323.994 263.605C324.334 263.661 324.618 264.115 324.675 264.513L326.434 275.409C326.548 275.863 326.321 276.146 325.98 276.033Z" fill="white"/>
<path d="M325.695 275.976L320.361 274.614C320.02 274.557 319.736 274.16 319.68 273.706L317.977 263.094C317.92 262.696 318.091 262.413 318.431 262.526L323.766 263.888C324.106 263.945 324.39 264.342 324.447 264.796L326.149 275.408C326.206 275.806 325.979 276.033 325.695 275.976Z" fill="#3B2AD1"/>
<path d="M320.078 272.174C319.226 272.344 318.432 271.72 318.262 270.812L317.808 268.144C317.637 267.236 318.205 266.385 319.056 266.215C319.907 266.045 320.702 266.669 320.872 267.577L321.326 270.244C321.496 271.152 320.929 272.06 320.078 272.174Z" fill="#FFC2B0"/>
<path d="M348.055 245.047C348.055 245.955 347.374 246.636 346.522 246.636C345.671 246.636 344.99 245.899 344.99 245.047C344.99 244.139 345.671 243.458 346.522 243.458C347.374 243.458 348.055 244.139 348.055 245.047Z" fill="#FFC2B0"/>
<path d="M339.258 237.726C339.258 237.726 339.883 246.239 348.055 243.458C348.055 243.458 352.141 238.01 346.068 233.584C340.677 229.668 336.705 236.024 336.705 236.024L339.258 237.726Z" fill="#2C1F9C"/>
<path d="M352.254 265.875L356.737 279.438C357.361 280.516 366.555 275.522 365.76 273.933C365.647 273.649 360.709 257.249 355.488 254.581C351.232 252.425 349.87 259.689 352.254 265.875Z" fill="#BAD4F5"/>
<path d="M335.231 241.699C335.231 241.699 335.968 238.805 339.317 237.67L336.763 235.967C336.706 235.967 334.039 236.591 335.231 241.699Z" fill="#2C1F9C"/>
<path d="M343.629 289.596C341.756 290.731 338.692 290.731 336.819 289.596C334.946 288.461 334.946 286.588 336.819 285.396C338.692 284.261 341.756 284.261 343.629 285.396C345.502 286.588 345.502 288.461 343.629 289.596Z" fill="#FAF3F3"/>
<path d="M344.991 279.268H335.4V287.496H344.991V279.268Z" fill="#FAF3F3"/>
<path d="M342.21 279.211V287.439C342.21 288.177 341.756 288.972 340.791 289.539C340.223 289.88 339.542 290.107 338.861 290.277C340.507 290.617 342.38 290.334 343.685 289.539C344.65 288.972 345.104 288.177 345.104 287.439L345.047 279.324L342.21 279.211Z" fill="#E1EBED"/>
<path d="M343.629 281.367C341.756 282.502 338.692 282.502 336.819 281.367C334.946 280.232 334.946 278.359 336.819 277.168C338.692 276.033 341.756 276.033 343.629 277.168C345.502 278.303 345.502 280.232 343.629 281.367Z" fill="white"/>
<path d="M343.062 280.97C341.53 281.935 338.976 281.935 337.444 280.97C335.911 280.005 335.855 278.473 337.444 277.508C338.976 276.543 341.53 276.543 343.062 277.508C344.594 278.473 344.651 280.005 343.062 280.97Z" fill="#306AC7"/>
<path d="M343.061 278.984C341.529 278.019 338.975 278.019 337.443 278.984C336.989 279.267 336.648 279.608 336.478 279.948C336.648 280.289 336.989 280.629 337.443 280.97C338.975 281.935 341.529 281.935 343.061 280.97C343.515 280.686 343.856 280.346 344.026 280.005C343.856 279.608 343.515 279.267 343.061 278.984Z" fill="#2C1F9C"/>
<path d="M337.443 280.97C336.989 280.686 336.648 280.346 336.478 280.005C336.592 279.778 336.762 279.608 336.932 279.438C338.294 279.211 339.77 279.381 340.848 280.062C341.302 280.346 341.642 280.686 341.813 281.027C341.926 281.197 341.983 281.367 341.983 281.481C341.756 281.538 341.529 281.594 341.359 281.594C339.997 281.821 338.521 281.594 337.443 280.97Z" fill="#473CA6"/>
<path d="M343.23 283.07C343.797 283.354 344.592 283.637 344.819 284.375C344.989 284.943 344.876 285.794 344.876 286.418C344.876 286.702 344.819 287.042 344.876 287.326C344.876 287.44 344.876 287.553 344.876 287.667C345.103 287.95 345.103 288.007 344.876 287.894C344.649 287.95 344.081 287.496 343.854 287.383C343.173 286.986 342.549 288.121 343.23 288.518C343.741 288.802 344.478 289.369 345.103 289.312C345.954 289.199 346.067 288.291 346.124 287.553C346.181 286.418 346.294 285.056 346.067 283.921C345.84 282.9 344.705 282.446 343.911 281.992C343.116 281.538 342.492 282.673 343.23 283.07Z" fill="#3B2AD1"/>
<path d="M345.673 287.61H345.332C344.708 287.553 344.197 286.985 344.254 286.361L344.311 284.999C344.367 284.318 344.878 283.807 345.502 283.864H345.843C346.467 283.921 346.978 284.488 346.921 285.113L346.864 286.475C346.864 287.099 346.297 287.61 345.673 287.61Z" fill="#FFC2B0"/>
<path d="M350.156 274.046C350.156 274.727 349.588 275.295 348.964 275.295C347.318 275.238 345.729 274.33 345.729 272.457V266.045C345.729 265.647 346.183 265.42 346.467 265.704C347.432 266.782 348.567 267.293 349.758 267.407C349.985 267.407 350.156 267.634 350.156 267.861V274.046V274.046Z" stroke="white" stroke-width="0.7933" stroke-miterlimit="10"/>
<path d="M345.729 266.726C346.467 268.428 348.169 269.166 350.156 269.506" stroke="white" stroke-width="0.7933" stroke-miterlimit="10"/>
<path d="M325.355 266.328C325.298 266.328 325.185 266.272 325.185 266.215L325.071 265.364C325.071 265.25 325.128 265.193 325.185 265.193C325.242 265.193 325.355 265.25 325.355 265.307L325.469 266.158C325.469 266.215 325.412 266.328 325.355 266.328Z" fill="#2C1F9C"/>
<path d="M325.583 267.69C325.526 267.69 325.413 267.634 325.413 267.577L325.299 266.726C325.299 266.612 325.356 266.555 325.413 266.555C325.47 266.555 325.583 266.612 325.583 266.669L325.697 267.52C325.697 267.577 325.64 267.634 325.583 267.69Z" fill="#2C1F9C"/>
<path d="M323.596 266.328C323.426 266.272 323.256 266.045 323.199 265.818L322.972 264.626C322.915 264.399 323.029 264.285 323.256 264.342C323.426 264.399 323.596 264.626 323.653 264.853L323.88 266.045C323.937 266.272 323.823 266.385 323.596 266.328Z" fill="white"/>
<path d="M323.539 264.91C323.539 265.08 323.426 265.137 323.312 265.08C323.199 265.023 323.085 264.853 323.085 264.74C323.085 264.626 323.199 264.513 323.312 264.569C323.426 264.626 323.539 264.74 323.539 264.91Z" fill="#2C1F9C"/>
<path d="M355.49 275.635C355.49 275.635 360.541 275.579 364.627 270.358" stroke="white" stroke-width="3.0903" stroke-miterlimit="10" stroke-linecap="round" stroke-linejoin="round"/>
<path d="M341.473 249.871C341.473 249.871 344.424 249.928 346.296 246.977C346.296 246.977 344.48 251.517 341.813 251.914L341.473 249.871Z" fill="#F09A82"/>
<defs>
<linearGradient id="paint0_linear" x1="215.279" y1="115.187" x2="215.079" y2="201" gradientUnits="userSpaceOnUse">
<stop stop-color="#312A6C"/>
<stop offset="1" stop-color="#312A6C" stop-opacity="0"/>
</linearGradient>
</defs>
</svg>
