<svg width="595" height="621" viewBox="0 0 595 621" fill="none" xmlns="http://www.w3.org/2000/svg">
<g clip-path="url(#clip0)">
<path opacity="0.2" d="M195.028 492.8C190.148 490.91 184.796 489.492 179.208 488.39C187.393 485.082 197.074 484.689 202.505 487.76C204 488.626 205.023 489.65 205.653 490.91C207.542 494.768 210.611 498.312 214.625 501.541L256.574 477.286V457.206L232.806 443.504L232.176 427.046C234.222 423.266 231.546 418.069 224.62 414.053C215.806 408.934 203.528 407.753 197.31 411.375C195.736 412.241 194.713 413.344 194.162 414.604C193.454 416.257 192.431 417.832 191.329 419.486L151.977 396.728L108.768 421.691V441.772C114.986 444.843 122.227 447.048 129.94 448.465C121.755 451.772 112.074 452.166 106.643 449.095C105.148 448.229 104.125 447.205 103.495 445.945C101.056 440.905 96.412 436.338 90.3518 432.322L47.9305 456.891V476.972L152.606 537.449L195.106 512.88V492.721H195.028V492.8Z" fill="#A8C4E5"/>
<path opacity="0.2" d="M353.301 529.496C352.75 530.756 351.648 531.858 350.153 532.724C344.25 536.111 333.074 535.244 324.338 530.834C330.477 529.811 336.301 528.078 341.495 526.031V507.447L296.949 481.696L256.81 504.927C255.315 503.194 254.134 501.383 253.269 499.493C252.639 498.312 251.616 497.209 250.12 496.343C243.824 492.721 231.625 493.823 222.81 498.942C217.694 501.934 214.861 505.557 214.625 508.785C214.625 509.022 214.625 509.258 214.625 509.415V527.291C214.625 527.921 214.625 528.472 214.782 529.102L192.903 541.78V560.365L297.579 620.842L401.625 560.758V542.174L361.407 518.944C357.708 522.172 355.032 525.716 353.301 529.496Z" fill="#A8C4E5"/>
<path opacity="0.2" d="M423.741 384.601L381.241 409.17V426.337C386.986 428.463 393.283 430.117 399.972 431.141C400.523 431.219 400.917 431.298 401.468 431.456C401.389 431.534 401.31 431.613 401.153 431.613C392.417 436.653 380.139 437.834 373.843 434.212C372.347 433.346 371.324 432.322 370.695 431.062C369.12 427.912 366.759 424.998 363.69 422.242C366.13 420.037 367.389 417.675 367.468 415.391C367.468 415.234 367.468 415.076 367.468 414.997V399.327C367.546 398.224 367.232 397.201 366.759 396.177L388.954 383.341V367.277L345.431 342.156C339.685 346.173 335.514 350.897 333.232 356.016C332.602 357.276 331.579 358.378 330.083 359.245C324.417 362.473 313.792 361.843 305.292 357.906L324.102 348.929C325.046 348.456 326.07 348.062 327.014 347.511V331.447L284.278 306.72L180.153 366.962V383.026L222.889 407.753C226.588 404.524 229.421 400.744 231.153 396.964C231.782 395.704 232.806 394.602 234.301 393.736C240.597 390.113 252.796 391.295 261.611 396.413C262.241 396.728 262.713 397.043 263.264 397.358C262.556 397.594 261.69 397.831 260.903 397.909C254.292 398.933 248.153 400.744 242.565 403.028V419.092L284.829 443.504L325.755 419.88C327.014 421.455 328.037 423.03 328.903 424.762C329.532 425.943 330.556 427.046 332.051 427.912C335.278 429.802 340.315 430.432 345.431 429.802L319.695 444.606V461.852L343.62 475.633V475.948C343.306 476.893 343.306 477.916 343.62 479.019L343.463 493.902C342.912 497.446 345.824 501.619 351.727 505.005C360.542 510.124 372.82 511.305 379.037 507.683C380.611 506.817 381.634 505.714 382.185 504.454C382.894 502.801 383.917 501.226 385.019 499.572L424.37 522.33L467.579 497.367V480.2C462.778 477.916 457.269 475.948 451.445 474.609L443.574 471.853C452.232 467.443 463.565 466.498 469.546 469.963C471.042 470.829 472.065 471.853 472.695 473.113C475.134 478.153 479.778 482.72 485.838 486.736L528.338 462.167V445L423.741 384.601ZM400.759 414.131C401.153 414.21 401.468 414.289 401.861 414.368H401.783L400.759 414.131Z" fill="#A8C4E5"/>
<path d="M422.245 237.58L398.005 248.683L368.333 231.595C361.171 236.556 356.055 242.462 353.222 248.762C352.593 250.337 351.255 251.676 349.287 252.778C341.495 257.267 326.305 255.849 315.444 249.471C309.227 245.927 305.764 241.439 305.292 237.501L341.889 220.098C343.148 219.468 344.329 218.996 345.509 218.366V193.245L321.583 195.923L292.542 187.733L222.81 227.973L163.782 237.029V262.228L216.75 292.861C221.315 288.766 224.856 284.277 226.981 279.552C227.611 277.977 228.949 276.639 230.917 275.536C238.708 271.048 253.898 272.465 264.759 278.844C265.782 279.474 266.648 280.025 267.593 280.655L241.227 281.836V306.956L293.486 337.117L344.093 307.901C345.667 309.791 347.005 311.839 347.949 313.886C348.657 315.382 349.917 316.721 351.805 317.745C359.676 322.233 374.787 320.895 385.648 314.595C392.102 310.894 395.565 306.326 395.722 302.31C395.722 302.153 395.722 301.917 395.722 301.759V282.387L391.079 280.734L422.245 262.7V237.58Z" fill="#F0C12B"/>
<path d="M422.245 237.58L398.005 248.683L368.333 231.595C361.171 236.556 356.055 242.462 353.222 248.762C352.593 250.337 351.255 251.676 349.287 252.778C341.495 257.267 326.305 255.849 315.444 249.471C309.227 245.927 305.764 241.439 305.292 237.501L341.889 220.098C343.148 219.468 344.329 218.996 345.509 218.366V193.245L321.583 195.923L292.542 187.733L268.458 210.097C268.458 210.097 281.995 271.205 293.014 277.584C294.037 278.214 293.407 337.038 293.407 337.038L344.014 307.823C345.588 309.712 346.926 311.76 347.87 313.807C348.579 315.304 349.838 316.642 351.727 317.666C359.597 322.155 374.708 320.816 385.569 314.516C392.023 310.815 395.486 306.248 395.643 302.231C395.643 302.074 395.643 301.838 395.643 301.68V276.954L391 280.655L422.167 262.622L422.245 237.58Z" fill="#E3AD00"/>
<path d="M391.157 269.945C389.269 268.843 386.829 268.055 384.153 267.662C380.611 267.11 377.148 266.402 373.685 265.614L422.167 237.659V233.249L368.333 206.554C361.171 211.515 356.056 217.421 353.222 223.721C352.593 225.296 351.255 226.634 349.287 227.737C341.495 232.225 326.306 230.808 315.444 224.429C304.505 218.13 301.986 209.389 309.699 204.821C311.588 203.719 313.87 203.01 316.389 202.616C327.171 200.884 337.088 197.577 345.509 193.324V188.914L292.62 162.849L163.861 232.777V237.186L216.829 267.819C221.394 263.724 224.935 259.236 227.06 254.511C227.69 252.936 229.028 251.597 230.995 250.495C238.787 246.006 253.977 247.424 264.838 253.802C275.778 260.102 278.296 268.843 270.505 273.41C268.616 274.513 266.333 275.221 263.815 275.615C257.046 276.639 241.148 277.505 241.148 277.505V281.915L293.407 312.075L344.014 282.86C345.588 284.75 346.926 286.797 347.87 288.845C348.579 290.341 349.838 291.679 351.727 292.703C359.597 297.192 374.708 295.853 385.569 289.553C396.588 283.175 399.028 274.434 391.157 269.945Z" fill="#FFD485"/>
<path d="M228.949 337.038L228.241 310.185L144.421 313.099L128.759 304.043L115.301 311.839L75.3194 304.043V334.99C83.9769 339.164 94.2083 342.156 105.148 343.81C107.824 344.204 110.185 344.991 112.153 346.094C120.023 350.582 117.505 359.402 106.644 365.702C95.7824 372.002 80.6713 373.419 72.8009 368.852C70.912 367.749 69.6528 366.489 68.9444 364.993C65.875 358.693 60.1296 353.023 52.6528 348.141L28.5694 362.079L0 348.377V378.459L129.625 453.347L182.199 422.951V392.869L154.102 397.358C155.125 396.571 156.306 395.783 157.565 395.074C168.426 388.775 183.537 387.357 191.407 391.925C193.296 393.027 194.556 394.287 195.264 395.783C197.546 400.508 201.403 404.918 206.361 408.934L258.306 378.931V348.85L228.949 337.038Z" fill="#7CABF7"/>
<path d="M228.949 337.038L228.241 310.185L144.421 313.099L128.759 304.043L129.546 453.269L182.12 422.872V392.791L154.023 397.358C155.046 396.571 156.227 395.783 157.486 395.074C168.347 388.775 183.458 387.357 191.329 391.925C193.218 393.027 194.477 394.287 195.185 395.783C197.468 400.508 201.324 404.918 206.282 408.934L258.227 378.931V348.85L228.949 337.038Z" fill="#5F9BF2"/>
<path d="M191.486 361.764C193.375 362.867 194.634 364.127 195.343 365.623C197.625 370.348 201.481 374.758 206.44 378.774L258.384 348.771V344.361L207.463 319.477C210.769 318.611 214.31 317.823 217.852 317.272C220.37 316.878 222.653 316.17 224.542 315.067C232.333 310.579 229.736 301.759 218.796 295.459C207.856 289.16 192.745 287.663 184.954 292.152C183.065 293.254 181.806 294.593 181.019 296.168C180.074 298.215 178.972 300.263 177.556 302.153L128.759 273.961L75.2407 304.909C83.8981 309.083 94.1296 312.075 105.069 313.729C107.745 314.122 110.106 314.91 112.074 316.012C119.944 320.501 117.426 329.321 106.565 335.62C95.7037 341.92 80.5926 343.338 72.7222 338.77C70.8333 337.668 69.5741 336.408 68.8657 334.912C65.7963 328.612 60.0509 322.942 52.5741 318.06L0 343.889V348.299L129.625 423.187L182.199 392.791V388.381C182.199 388.381 165.278 387.83 158.981 386.885C156.306 386.491 153.944 385.703 151.977 384.601C144.106 380.112 146.625 371.293 157.486 364.993C168.505 358.772 183.616 357.276 191.486 361.764Z" fill="#C0D6F9"/>
<path d="M400.366 460.435L388.167 453.426C385.412 455.867 383.208 458.387 381.319 461.143L334.255 462.639C328.824 457.127 328.667 451.142 334.727 447.756C336.616 446.654 338.898 445.945 341.417 445.551C349.444 444.291 356.921 442.165 363.611 439.409V411.06L329.375 408.383L308.44 407.516L275.463 426.573L206.518 412.478V441.063C206.361 443.898 207.856 446.575 211.005 448.386C212.893 449.489 215.333 450.276 218.009 450.67C219.347 450.906 220.685 451.142 221.944 451.3L225.171 453.426L179.602 453.584V481.933L309.306 556.821L438.065 482.405V454.135L400.366 460.435Z" fill="#8D94FB"/>
<path d="M334.727 447.678C336.616 446.575 338.898 445.866 341.417 445.473C349.444 444.213 356.921 442.086 363.611 439.33V411.06L329.375 408.383L308.44 407.516L275.463 426.573C275.62 426.416 328.745 451.142 334.727 447.678Z" fill="#8D94FB"/>
<path d="M400.366 460.435L388.167 453.426C385.412 455.867 383.208 458.387 381.319 461.143L334.255 462.639C328.824 457.127 309.384 528.551 309.384 528.551V556.742L438.144 482.326V454.056L400.366 460.435Z" fill="#566EE6"/>
<path d="M388.167 425.156C383.681 429.172 380.296 433.582 378.25 438.307C377.62 439.882 376.282 441.22 374.315 442.323C366.523 446.811 351.333 445.394 340.472 439.015C329.532 432.716 327.014 423.975 334.727 419.407C336.616 418.305 338.898 417.596 341.417 417.202C349.444 415.942 356.921 413.816 363.611 411.06L308.519 379.167L258.778 407.831C256.968 405.705 255.551 403.422 254.37 401.138C253.662 399.642 252.403 398.303 250.514 397.279C242.644 392.791 227.532 394.129 216.671 400.429C205.81 406.729 203.37 415.47 211.162 420.037C213.051 421.14 215.491 421.927 218.167 422.321C222.181 422.951 226.037 423.738 229.815 424.683L179.759 449.095V453.505L309.306 528.472L438.065 454.056V449.646L388.167 425.156Z" fill="#C5CCFC"/>
<path d="M534.241 325.147L465.296 285.301L447.981 282.151L412.722 289.238V315.776C419.806 318.453 427.597 320.422 435.94 321.761C438.616 322.155 440.977 322.942 442.866 324.044C450.736 328.533 448.218 337.353 437.356 343.653C426.495 349.952 411.384 351.37 403.514 346.802C401.625 345.7 400.366 344.44 399.657 342.944C397.375 338.219 393.518 333.809 388.56 329.793L365.815 342.944L336.616 333.337V359.874L366.287 376.963L366.051 399.484C365.421 403.894 369.042 409.013 376.204 413.186C387.143 419.486 402.255 420.982 410.046 416.494C411.935 415.391 413.194 414.052 413.981 412.478C414.926 410.43 416.028 408.383 417.444 406.493L466.241 434.684L519.759 403.737V382.475L490.009 372.002C500.792 366.489 514.722 365.387 522.278 369.718C524.167 370.82 525.426 372.08 526.134 373.576C529.204 379.876 534.949 385.546 542.426 390.428L595 360.032V338.77L534.241 325.147Z" fill="#5732DB"/>
<path d="M534.241 325.147L465.69 348.535L466.083 434.606L519.602 403.658V377.12L489.852 372.08C500.634 366.568 514.565 365.466 522.12 369.797C524.009 370.899 525.268 372.159 525.977 373.655C529.046 379.955 534.792 385.625 542.269 390.507L594.843 360.111V333.573L534.241 325.147Z" fill="#4A2ABA"/>
<path d="M522.199 343.416C524.088 344.519 525.347 345.779 526.056 347.275C529.125 353.575 534.87 359.245 542.347 364.127L594.921 333.73V329.321L465.296 258.921L412.722 284.907V289.317C419.806 291.994 427.597 293.963 435.94 295.302C438.616 295.696 440.977 296.483 442.866 297.586C450.736 302.074 448.218 310.894 437.356 317.194C426.495 323.493 411.384 324.911 403.514 320.343C401.625 319.241 400.366 317.981 399.657 316.485C397.375 311.76 393.519 307.35 388.56 303.334L336.616 328.848V333.258L387.616 362.709C384.31 363.576 380.768 364.363 377.227 364.914C374.708 365.308 372.426 366.017 370.537 367.119C362.745 371.608 365.343 380.427 376.282 386.727C387.222 393.027 402.333 394.523 410.125 390.035C412.014 388.932 413.273 387.593 414.06 386.019C415.005 383.971 416.106 381.924 417.523 380.034L466.319 408.225L519.838 377.278V372.868C519.838 372.868 499.375 369.875 490.009 368.458C487.333 368.064 484.972 367.277 483.005 366.174C475.134 361.686 477.653 352.866 488.514 346.566C499.218 340.266 514.407 338.849 522.199 343.416Z" fill="#8D6EFF"/>
<path d="M391.157 265.378C389.269 264.275 386.829 263.488 384.153 263.094C380.611 262.543 377.148 261.834 373.685 261.047L422.167 233.092L368.333 201.986C361.171 206.947 356.056 212.854 353.222 219.153C352.593 220.728 351.255 222.067 349.287 223.169C341.495 227.658 326.306 226.241 315.444 219.862C304.505 213.562 301.986 204.821 309.699 200.254C311.588 199.152 313.87 198.443 316.389 198.049C327.171 196.317 337.088 193.009 345.509 188.757L292.62 158.282L163.861 232.619L216.829 263.252C221.394 259.157 224.935 254.668 227.06 249.943C227.69 248.368 229.028 247.03 230.995 245.927C238.787 241.439 253.977 242.856 264.838 249.235C275.778 255.534 278.296 264.275 270.505 268.843C268.616 269.945 266.333 270.654 263.815 271.048C255.63 272.386 247.995 274.513 241.148 277.347L293.407 307.508L344.014 278.292C345.588 280.182 346.926 282.23 347.87 284.277C348.579 285.773 349.838 287.112 351.727 288.136C359.597 292.624 374.708 291.286 385.569 284.986C396.588 278.686 399.028 269.945 391.157 265.378Z" fill="#FFD22D"/>
<path d="M191.486 357.354C193.375 358.457 194.634 359.717 195.343 361.213C197.625 365.938 201.481 370.348 206.44 374.364L258.384 344.361L207.463 314.989C210.769 314.122 214.31 313.335 217.852 312.784C220.37 312.39 222.653 311.681 224.542 310.579C232.333 306.09 229.736 297.27 218.796 290.971C207.856 284.671 192.745 283.175 184.954 287.663C183.065 288.766 181.806 290.104 181.019 291.679C180.074 293.727 178.972 295.774 177.556 297.664L128.759 269.473L75.2407 300.42C83.8981 304.594 94.1296 307.586 105.069 309.24C107.745 309.634 110.106 310.421 112.074 311.524C119.944 316.012 117.426 324.832 106.565 331.132C95.7037 337.431 80.5926 338.849 72.7222 334.282C70.8333 333.179 69.5741 331.919 68.8657 330.423C65.7963 324.123 60.0509 318.453 52.5741 313.571L0 343.889L129.625 418.777L182.199 388.381C175.116 385.703 167.324 383.735 158.981 382.396C156.306 382.002 153.944 381.215 151.977 380.112C144.106 375.624 146.625 366.804 157.486 360.504C168.505 354.205 183.616 352.787 191.486 357.354Z" fill="#A4C2FC"/>
<path d="M388.167 420.746C383.681 424.762 380.296 429.172 378.25 433.897C377.62 435.472 376.282 436.81 374.315 437.913C366.523 442.401 351.333 440.984 340.472 434.606C329.532 428.306 327.014 419.565 334.727 414.998C336.616 413.895 338.898 413.186 341.417 412.793C349.444 411.533 356.921 409.406 363.611 406.65L308.519 374.679L258.778 403.343C256.968 401.217 255.551 398.933 254.37 396.649C253.662 395.153 252.403 393.815 250.514 392.791C242.644 388.302 227.532 389.641 216.671 395.941C205.81 402.24 203.37 410.981 211.162 415.549C213.051 416.651 215.491 417.439 218.167 417.832C222.181 418.462 226.037 419.25 229.815 420.195L179.759 449.095L309.306 524.062L438.065 449.646L388.167 420.746Z" fill="#98A5FC"/>
<path d="M522.199 338.849C524.088 339.951 525.347 341.211 526.056 342.708C529.125 349.007 534.87 354.677 542.347 359.559L595 329.163L465.375 254.432L412.801 284.828C419.884 287.506 427.676 289.474 436.019 290.813C438.694 291.207 441.056 291.994 442.944 293.097C450.815 297.585 448.296 306.405 437.435 312.705C426.574 319.005 411.463 320.422 403.593 315.855C401.704 314.752 400.444 313.492 399.736 311.996C397.454 307.271 393.597 302.862 388.639 298.845L336.694 328.848L387.694 358.3C384.389 359.166 380.847 359.953 377.306 360.504C374.787 360.898 372.505 361.607 370.616 362.709C362.824 367.198 365.421 376.018 376.361 382.317C387.301 388.617 402.412 390.113 410.204 385.625C412.093 384.522 413.352 383.184 414.139 381.609C415.083 379.561 416.185 377.514 417.602 375.624L466.398 403.815L519.917 372.868C511.259 368.694 501.028 365.702 490.088 364.048C487.412 363.654 485.051 362.867 483.083 361.764C475.213 357.276 477.732 348.456 488.593 342.156C499.218 335.857 514.407 334.36 522.199 338.849Z" fill="#7F5CFF"/>
<path opacity="0.4" d="M505.907 343.338C525.583 343.18 541.403 335.227 541.324 325.462C541.245 315.697 525.269 307.901 505.671 308.059C485.995 308.216 470.176 316.17 470.255 325.934C470.255 335.699 486.232 343.495 505.907 343.338Z" fill="#A8C4E5"/>
<path d="M512.755 325.698L520.782 311.13C522.042 309.791 525.347 308.374 527.787 307.98C528.889 307.823 529.912 308.453 530.305 309.476L531.092 311.681C532.43 314.831 532.273 315.382 530.542 317.193L520.704 327.588C519.051 329.399 516.06 330.423 513.935 329.872L513.305 329.714C511.417 329.321 511.102 327.431 512.755 325.698Z" fill="#2C1F9C"/>
<path d="M480.88 321.997L495.204 311.602C497.014 310.894 500.87 311.051 503.389 311.76C504.491 312.075 505.278 313.177 505.199 314.359L504.963 316.878C504.805 320.501 504.412 320.973 501.972 321.918L487.727 327.509C485.366 328.454 481.981 328.139 480.25 326.722L479.699 326.328C477.889 324.832 478.44 322.942 480.88 321.997Z" fill="#2C1F9C"/>
<path d="M504.333 312.941C504.176 316.957 497.329 317.587 494.968 314.595C485.523 276.166 484.028 240.179 482.218 200.175L505.907 181.197C503.31 229.312 498.667 276.324 504.333 312.941Z" fill="#F7B4A1"/>
<path d="M528.968 308.295C529.755 311.839 522.829 314.437 520.704 311.13C509.843 295.302 503.546 273.016 499.847 247.66C496.542 224.744 518.894 220.886 517.792 243.801C516.611 265.457 519.444 286.876 528.968 308.295Z" fill="#FFC2B0"/>
<path d="M519.523 193.718C526.056 214.428 518.106 230.887 519.995 262.464C519.995 262.464 505.907 282.151 483.162 262.464L478.755 193.324L519.523 193.718Z" fill="#2C1F9C"/>
<path d="M92.4768 131.035C92.4768 131.035 84.0555 132.531 83.5833 136.784C83.1111 141.036 83.5833 145.052 83.5833 145.052L111.917 141.981L110.185 130.248L92.4768 131.035Z" fill="#2C1F9C"/>
<path d="M131.042 159.62C131.042 159.62 146.861 185.449 146.389 201.356C146.389 201.356 140.014 210.097 137.102 202.301C130.019 183.323 125.454 167.101 118.685 160.644C111.917 154.187 131.042 159.62 131.042 159.62Z" fill="#FFC2B0"/>
<path opacity="0.3" d="M101.528 376.333C122.069 375.86 138.597 367.198 138.361 356.961C138.125 346.724 121.282 338.77 100.662 339.243C80.0416 339.715 63.5926 348.377 63.8287 358.614C64.1435 368.852 80.9861 376.805 101.528 376.333Z" fill="white"/>
<path d="M88.5416 365.544L81.2222 348.85C79.9629 347.432 76.5787 346.251 74.0602 346.172C72.9583 346.094 71.7777 347.039 71.2268 348.377L70.125 351.212C68.3935 355.307 68.5509 355.937 70.2037 357.827L79.8055 369.088C81.4583 370.978 84.5277 371.765 86.7315 370.899L87.3611 370.584C89.6435 369.797 90.1944 367.513 88.5416 365.544Z" fill="#2C1F9C"/>
<path d="M70.2037 348.614C70.2037 352.551 80.0417 353.653 80.0417 349.637L79.963 336.723L70.125 335.699L70.2037 348.614Z" fill="#86ABD9"/>
<path d="M133.954 349.716L116.875 339.321C114.75 338.691 112.153 338.613 109.241 339.479C107.903 339.951 107.667 338.849 107.824 340.109L106.644 345.385C105.542 348.929 105.148 349.559 109.162 350.661L126.083 355.858C128.917 356.725 132.931 356.173 134.898 354.598L135.528 354.126C137.495 352.63 136.866 350.582 133.954 349.716Z" fill="#2C1F9C"/>
<path d="M107.903 341.133C108.218 345.228 118.134 344.44 117.819 340.424L116.875 327.116L106.958 327.824L107.903 341.133Z" fill="#86ABD9"/>
<path d="M106.171 336.093C110.264 338.928 116.718 338.849 118.606 335.542C123.486 294.908 124.273 253.487 121.282 211.436L89.8796 202.144C98.3796 252.7 107.667 297.349 106.171 336.093Z" fill="#BAD4F5"/>
<path d="M69.2593 340.266C72.0926 345.07 79.0972 345.936 81.3797 342.865L104.676 208.916L71.6204 206.396L69.2593 340.266Z" fill="#BAD4F5"/>
<path d="M96.1759 255.219L100.977 268.134L106.014 230.335C104.44 230.808 104.44 228.918 102.787 229.233L96.1759 255.219Z" fill="#86ABD9"/>
<path d="M78.7824 174.031C71.3843 182.772 67.7639 187.024 61.9398 198.994C58.1621 206.869 59.8148 213.562 63.0417 217.893C67.4491 223.721 72.6435 230.257 72.6435 230.257L66.9769 235.454C66.9769 235.454 46.0417 217.578 49.4259 201.12L61.7037 162.298L78.7824 174.031Z" fill="#FFC2B0"/>
<path d="M67.8426 231.832L68.7871 230.965C70.5185 229.312 73.3519 229.548 75.1621 231.517L78.7824 235.375C80.5926 237.265 80.6713 240.1 78.9398 241.754L77.9167 242.541C76.1852 244.195 73.3519 243.959 71.5417 241.99L67.9213 238.131C66.1111 236.241 66.0324 233.407 67.8426 231.832Z" fill="#FFC2B0"/>
<path d="M122.148 138.044C131.986 153.872 141.431 169.7 142.532 180.488C139.935 189.544 137.495 184.505 131.12 186.709L112.231 153.557L117.426 144.895L122.148 138.044Z" fill="#4432DB"/>
<path d="M123.171 213.562C123.722 197.892 124.037 183.481 127.028 164.109C127.815 137.178 117.977 126.862 100.898 132.531L93.8936 134.185C73.0371 144.58 62.7269 143.714 65.6389 165.448L67.6852 213.011C66.8982 237.501 123.565 242.305 123.171 213.562Z" fill="#4432DB"/>
<path d="M78.7824 172.456L68.8658 208.837L67.6852 212.302L66.8982 194.584L78.7824 172.456Z" fill="#2C1F9C"/>
<path d="M80.5139 168.125L61.2315 204.664C59.6574 206.869 48.4814 203.404 48.6389 199.545C48.9537 191.356 61.7037 149.147 73.824 143.871C83.8194 139.54 86.3379 155.053 80.5139 168.125Z" fill="#4432DB"/>
<path d="M60.6806 200.412C60.6806 200.412 63.5926 202.459 62.0973 205.53C60.6019 208.601 45.8056 206.633 46.9074 201.829C47.9306 197.025 48.7963 194.978 60.6806 200.412Z" fill="#4432DB"/>
<path d="M133.954 189.072C131.671 189.623 129.389 188.127 128.917 185.843V185.764C128.366 182.536 141.509 175.37 143.477 179.937C145.13 184.111 144.657 186.709 133.954 189.072Z" fill="#4432DB"/>
<path d="M85.1574 138.122C85.1574 138.122 83.8982 145.446 94.5232 151.824C100.032 155.132 102.63 160.565 103.889 165.133C104.597 167.731 106.171 166.471 106.565 163.715C107.431 156.628 107.745 154.502 109.398 149.226C111.995 140.721 108.611 127.964 108.139 127.885C107.509 127.807 85.1574 138.122 85.1574 138.122Z" fill="white"/>
<path d="M107.981 171.118C107.981 172.063 107.194 172.929 106.171 172.929C105.148 172.929 104.361 172.141 104.361 171.118C104.361 170.094 105.148 169.306 106.171 169.306C107.194 169.306 107.981 170.015 107.981 171.118Z" fill="#2C1F9C"/>
<path d="M107.667 177.969C107.667 178.913 106.88 179.78 105.856 179.78C104.833 179.78 104.046 178.992 104.046 177.969C104.046 176.945 104.833 176.157 105.856 176.157C106.88 176.157 107.667 176.945 107.667 177.969Z" fill="#2C1F9C"/>
<path d="M99.9537 132.846C99.9537 132.846 110.185 136.232 107.667 145.918L107.273 157.337C107.273 157.337 115.458 144.501 111.917 132.295C108.375 120.089 99.9537 132.846 99.9537 132.846Z" fill="#2C1F9C"/>
<path d="M104.597 133.634C104.597 133.634 102.315 136.469 100.977 136.863C99.6389 137.335 83.7408 127.57 87.1251 113.79C89.3288 105.049 105.778 109.38 105.778 109.38L104.597 133.634Z" fill="#2C1F9C"/>
<path d="M95.4676 145.525L96.2546 145.761C98.9305 146.47 101.764 144.973 102.472 142.296L106.722 127.177C107.431 124.499 105.935 121.664 103.259 120.956L102.472 120.719C99.7963 120.011 96.9629 121.507 96.2546 124.184L90.037 138.122C89.25 140.8 92.7916 144.737 95.4676 145.525Z" fill="#FFC2B0"/>
<path d="M104.519 135.288C104.519 135.288 97.8287 134.658 94.2084 127.964C94.2084 127.964 97.3565 138.122 103.338 139.54L104.519 135.288Z" fill="#F09A82"/>
<path d="M90.4305 131.429C90.4305 131.429 83.1111 140.17 96.0972 147.415C96.0972 147.415 101.056 152.769 101.056 158.518C101.056 158.518 96.7268 154.974 94.2083 153.006C91.6898 151.037 72.8796 138.91 90.4305 131.429Z" fill="#2C1F9C"/>
<path d="M118.292 120.247C118.921 111.585 115.38 104.182 110.421 103.867C105.463 103.553 100.977 110.325 100.426 118.987C99.7963 127.649 103.338 135.051 108.296 135.366C113.255 135.76 117.741 128.988 118.292 120.247Z" fill="#FFC2B0"/>
<path d="M93.8148 126.862C96.3333 133.949 108.375 138.752 112.704 133.791C117.032 128.752 114.278 116.309 111.759 109.143C109.241 101.978 103.731 100.324 99.4815 105.285C95.1528 110.403 91.2963 119.696 93.8148 126.862Z" fill="#FFC2B0"/>
<path d="M102.551 110.01C102.551 110.01 103.653 124.027 92.5556 126.783C92.5556 126.783 80.3565 119.144 89.9584 105.994C98.3797 94.4178 110.972 103.867 110.972 103.867L102.551 110.01Z" fill="#2C1F9C"/>
<path d="M118.37 119.932C118.37 119.932 117.111 113.947 109.949 111.112L115.773 107.884C115.773 107.884 121.519 109.458 118.37 119.932Z" fill="#2C1F9C"/>
<path d="M96.4907 118.042C99.0093 114.892 104.204 115.05 111.444 117.963C112.546 118.436 113.727 118.593 114.907 118.436C120.417 117.491 121.519 110.718 121.519 110.718C122.856 106.23 119.866 104.025 115.458 102.686L103.731 99.2214C97.1204 97.2527 90.4306 102.45 89.1713 107.017L88.7778 107.726C87.4398 112.293 92.0046 116.703 96.4907 118.042Z" fill="#2C1F9C"/>
<path d="M91.2963 126.31C91.9259 128.043 93.8148 128.988 95.5463 128.279C97.2778 127.649 98.2222 125.759 97.5139 124.027C96.8843 122.294 94.9954 121.349 93.2639 122.058C91.6111 122.767 90.6667 124.578 91.2963 126.31Z" fill="#FFC2B0"/>
<path d="M71.6991 247.109C71.6991 247.109 79.8843 232.698 79.963 231.28C79.963 231.28 83.1111 238.761 79.963 242.935C76.8935 247.109 71.6991 247.109 71.6991 247.109Z" fill="#86ABD9"/>
<path d="M108.375 201.435L112.704 199.86L113.255 199.309L113.569 198.679L146.153 181.67C146.546 181.433 147.176 181.512 147.648 181.748L160.083 189.072V188.993L162.444 189.938L162.366 190.883C162.287 190.962 162.208 191.041 162.051 191.119L128.208 208.837C128.13 208.837 128.13 208.916 128.13 208.995C127.421 211.594 126.241 213.877 124.037 212.539L110.264 204.349C109.083 203.798 108.375 202.695 108.375 201.435Z" fill="#A8C4E5"/>
<path d="M126.792 211.515L165.907 191.198C166.38 190.962 166.38 190.568 165.907 190.332L149.301 180.646C148.829 180.331 148.12 180.331 147.648 180.567L108.532 200.805C108.06 201.041 108.06 201.435 108.532 201.671L125.139 211.357C125.611 211.751 126.319 211.83 126.792 211.515Z" fill="#E1EAF4"/>
<path d="M125.69 198.443L135.213 193.56C135.292 193.482 135.292 193.403 135.213 193.324L131.199 190.962C131.042 190.883 130.884 190.883 130.806 190.962L121.282 195.844C121.204 195.923 121.204 196.002 121.282 196.08L125.296 198.443C125.375 198.443 125.611 198.522 125.69 198.443Z" fill="#A8C4E5"/>
<path d="M130.176 188.678C130.412 187.733 131.278 186.71 132.143 186.237L170.866 166.393C171.259 166.235 171.495 166.156 171.653 166.235C171.731 166.235 171.81 166.314 171.81 166.393L172.912 167.574L171.81 167.495L166.065 188.993C165.829 189.938 164.963 190.962 164.097 191.434L127.5 210.176L126.241 211.357L126.083 211.672C125.375 211.83 123.801 210.727 123.801 210.727L130.176 188.678Z" fill="white"/>
<path d="M126.556 212.617L165.278 192.773C166.065 192.301 167.009 191.198 167.245 190.332L173.069 168.598C173.306 167.653 172.833 167.259 172.046 167.731L133.324 187.576C132.537 188.048 131.593 189.151 131.356 190.017L125.532 211.751C125.218 212.617 125.69 213.011 126.556 212.617Z" fill="#5445D9"/>
<path d="M148.278 191.592C147.963 192.773 148.986 193.009 150.639 192.222C152.292 191.434 153.787 189.781 154.102 188.599C154.417 187.418 153.394 187.182 151.741 187.969C150.167 188.757 148.593 190.332 148.278 191.592Z" fill="white"/>
<path d="M151.111 204.034L145.995 207.263C144.106 208.444 141.588 207.892 140.407 206.003C139.227 204.113 139.778 201.593 141.667 200.412L146.782 197.183C148.671 196.002 151.19 196.553 152.37 198.443C153.551 200.333 152.921 202.853 151.111 204.034Z" fill="#FFC2B0"/>
<path d="M252.403 56.6191C252.403 56.6191 235.088 80.007 241.778 89.063C248.546 98.2764 263.579 113.947 263.579 113.947L267.514 106.939C267.514 106.939 249.884 93.9453 253.898 81.9757C257.912 69.9274 269.167 60.084 269.167 60.084L252.403 56.6191Z" fill="#FFC2B0"/>
<path d="M308.597 70.1637C315.287 79.6921 321.662 89.378 322.843 103.71C323.551 105.521 324.259 129.382 324.259 129.382L332.444 130.72C332.444 130.72 332.523 98.0402 332.13 96.229L324.495 61.344L308.597 70.1637Z" fill="#FFC2B0"/>
<path d="M328.273 126.704L327.171 126.862C325.125 127.098 323.63 128.909 323.866 130.956L324.338 135.13C324.574 137.178 326.384 138.674 328.431 138.437L329.532 138.28C331.579 138.044 333.074 136.233 332.838 134.185L332.366 130.012C332.208 127.964 330.319 126.468 328.273 126.704Z" fill="#FFC2B0"/>
<path d="M295.06 245.376C311.116 245.061 324.023 238.368 323.866 230.414C323.708 222.461 310.643 216.161 294.588 216.476C278.532 216.791 265.625 223.484 265.782 231.438C265.94 239.391 279.005 245.612 295.06 245.376Z" fill="#E3AD00"/>
<path d="M316.861 239.155L305.213 229.784C302.773 227.343 303.639 225.217 303.718 222.697C303.718 221.594 304.505 220.649 305.606 220.413L307.968 219.941C311.352 219.153 313.949 221.831 315.444 223.878L324.023 234.115C325.597 236.005 323.315 243.88 316.861 239.155Z" fill="#2C1F9C"/>
<path d="M265.782 229.784L274.125 217.5C276.329 214.822 278.532 215.61 281.13 215.452C282.231 215.373 283.255 216.082 283.569 217.185L284.199 219.468C285.222 222.776 282.704 225.611 280.972 227.264L271.449 236.714C269.56 238.289 261.611 236.635 265.782 229.784Z" fill="#2C1F9C"/>
<path d="M273.181 57.8004L259.171 80.8734C257.519 82.6058 241.463 69.6913 243.588 67.0139C243.982 66.5414 259.88 38.5074 271.134 35.83C280.421 33.6251 280.185 47.4058 273.181 57.8004Z" fill="#98A5FC"/>
<path d="M245.162 64.5726C245.162 64.5726 243.745 66.935 243.667 67.0138C241.542 69.6912 257.518 82.527 259.25 80.8733L261.06 77.8809C256.574 75.9122 247.759 68.825 245.162 64.5726Z" fill="#4852DB"/>
<path d="M312.139 221.279C312.375 224.823 303.718 225.374 303.482 221.831L302.773 210.176L311.431 209.625L312.139 221.279Z" fill="#C6D2F2"/>
<path d="M283.255 216.476C283.255 220.019 274.519 220.019 274.519 216.476V204.821H283.255V216.476Z" fill="#C6D2F2"/>
<path d="M284.435 213.09C281.051 215.531 275.384 215.452 273.495 212.617C271.292 170.015 264.208 141.509 264.68 105.049L291.755 97.0165C286.954 140.879 286.403 179.229 284.435 213.09Z" fill="#3B2AD1"/>
<path d="M312.847 217.106C310.093 220.965 303.875 220.965 302.065 218.208L283.806 103.316H315.208L312.847 217.106Z" fill="#3B2AD1"/>
<path d="M263.579 102.135C265.782 89.7718 266.648 75.7548 264.523 58.6667C264.523 35.0425 267.75 35.0425 283.648 34.0188L287.347 33.7826C291.833 33.4676 296.398 34.4125 300.491 36.3812C314.5 43.2322 321.268 44.7284 318.435 61.5803L315.287 103.238C315.208 124.736 262.477 127.334 263.579 102.135Z" fill="#98A5FC"/>
<path d="M305.134 63.4702L314.106 88.9055C315.366 90.8742 333.782 81.582 332.208 78.5109C331.894 77.9597 322.134 47.2483 311.667 42.2872C303.088 38.3499 300.412 51.9731 305.134 63.4702Z" fill="#98A5FC"/>
<path d="M262.792 103.316L262.241 103.395C260.037 103.631 258.306 105.679 258.62 107.884L259.25 113.632C259.486 115.837 261.532 117.569 263.736 117.254L264.287 117.176C266.491 116.939 268.222 114.892 267.907 112.687L267.278 106.939C267.042 104.655 264.995 103.001 262.792 103.316Z" fill="#FFC2B0"/>
<path d="M289.551 46.7757C294.824 46.7757 299.074 43.5471 299.074 39.531C299.074 35.5149 294.824 32.2863 289.551 32.2863C284.278 32.2863 280.028 35.5149 280.028 39.531C280.028 43.4684 284.278 46.7757 289.551 46.7757Z" fill="#4852DB"/>
<path d="M282.782 26.7741C282.782 26.7741 287.583 28.5065 288.607 29.0577C289.63 29.6877 301.671 29.7664 300.648 17.4031C300.019 9.52843 285.065 10.9459 285.065 10.9459L282.782 26.7741Z" fill="#2C1F9C"/>
<path d="M289.394 43.5471H288.685C286.245 43.5471 284.278 41.4997 284.278 39.0585L284.435 25.2778C284.435 22.8366 286.482 20.8679 288.921 20.8679H289.63C292.069 20.8679 294.037 22.9153 294.037 25.3565L295.847 38.6648C295.769 41.1059 291.833 43.5471 289.394 43.5471Z" fill="#FFC2B0"/>
<path d="M284.357 32.7587C284.357 32.7587 290.102 33.9399 294.824 29.1364C294.824 29.1364 289.708 36.8536 284.278 36.6173L284.357 32.7587Z" fill="#F09A82"/>
<path d="M293.407 7.40219C290.81 4.48855 287.741 4.33105 285.301 6.45723C282.31 5.7485 279.477 7.71718 277.981 12.0483C275.856 18.1118 277.273 26.459 281.13 30.5539C281.523 30.9476 281.759 31.1838 282.153 31.4988C282.153 31.4988 282.153 31.4988 282.153 31.5776C285.931 35.7512 296.556 31.5776 298.602 25.514C300.805 19.5293 297.264 11.5758 293.407 7.40219Z" fill="#FFC2B0"/>
<path d="M298.13 23.1516C298.287 25.4353 298.444 24.2541 297.5 27.7977C297.5 27.7977 301.671 26.8528 301.75 12.6783C301.829 -0.393764 289.551 -1.25998 282.782 0.787444C279.241 1.8899 280.893 10.7096 281.838 11.5758C283.491 14.4894 287.347 13.4657 292.069 15.0407C295.847 16.3794 297.893 19.6868 298.13 23.1516Z" fill="#2C1F9C"/>
<path d="M277.431 23.1517C277.431 23.5454 276.801 24.0967 276.801 24.4904C276.801 24.4904 268.38 16.7732 275.542 4.56737C279.319 -1.8899 285.694 4.01614 285.694 4.01614L282.625 11.6546C279.162 16.2219 276.722 15.1982 277.431 23.1517Z" fill="#2C1F9C"/>
<path d="M298.13 27.719C299.704 27.719 301.042 26.4591 301.042 24.8054C301.042 23.1517 299.782 21.8917 298.13 21.8917C296.555 21.8917 295.218 23.1517 295.218 24.8054C295.218 26.4591 296.555 27.719 298.13 27.719Z" fill="#FFC2B0"/>
<path d="M281.051 25.4353C280.5 27.0103 278.926 27.7977 277.352 27.3252C275.778 26.774 274.991 25.1991 275.463 23.6241C276.014 22.0492 277.588 21.2617 279.162 21.7342C280.736 22.2067 281.602 23.8604 281.051 25.4353Z" fill="#FFC2B0"/>
<path d="M312.69 86.4644C312.69 86.4644 313.87 88.3543 313.949 88.5118C315.444 91.6617 332.602 81.9758 332.287 79.0622L331.106 75.5973C329.375 80.0071 317.727 85.9919 312.69 86.4644Z" fill="#4852DB"/>
<path opacity="0.4" d="M315.208 494.138C325.676 494.138 334.176 490.91 334.176 486.894C334.176 482.877 325.676 479.649 315.208 479.649C304.741 479.649 296.241 482.877 296.241 486.894C296.241 490.91 304.741 494.138 315.208 494.138Z" fill="#A8C4E5"/>
<path d="M318.75 486.421C318.75 482.799 313.634 479.806 307.338 479.728C300.963 479.728 295.847 482.641 295.847 486.264C295.847 489.886 300.963 492.878 307.259 492.957C313.556 493.036 318.75 490.043 318.75 486.421Z" fill="#3325A3"/>
<path d="M323.63 479.413L290.968 479.964V445.158H323.63V479.413Z" fill="#4432DB"/>
<path d="M307.259 489.177C316.231 489.177 323.551 484.846 323.551 479.649C323.551 474.373 316.231 470.199 307.259 470.199C298.287 470.199 290.968 474.53 290.968 479.728C290.968 484.925 298.287 489.177 307.259 489.177Z" fill="#4432DB"/>
<path d="M323.63 454.607C323.393 454.45 323.157 454.292 322.921 454.135C314.264 449.095 300.176 449.095 291.518 454.056C291.361 454.135 291.125 454.292 290.968 454.371V471.774C291.204 471.932 291.44 472.01 291.597 472.168C300.255 477.208 314.343 477.208 323 472.247C323.236 472.089 323.472 472.01 323.63 471.853V454.607Z" fill="#3325A3"/>
<path d="M329.454 459.962C329.454 452.875 319.537 447.048 307.259 447.048C294.981 446.969 284.986 452.639 284.986 459.726C284.986 466.813 294.903 472.64 307.181 472.64C319.458 472.719 329.454 467.049 329.454 459.962Z" fill="#4432DB"/>
<path d="M329.375 452.009H284.986V460.198H329.375V452.009Z" fill="#4432DB"/>
<path d="M329.454 452.166C329.454 445.079 319.537 439.252 307.259 439.252C294.981 439.173 284.986 444.843 284.986 451.93C284.986 459.017 294.903 464.844 307.181 464.844C319.38 464.923 329.375 459.253 329.454 452.166Z" fill="#C5CCFC"/>
<path d="M347.162 404.76C347.162 384.444 329.296 368.064 307.259 368.064C285.143 368.064 267.356 384.522 267.356 404.76C267.356 415.864 272.708 425.786 281.208 432.558C285.852 437.677 287.977 443.898 288.921 448.465C289.866 452.875 293.014 456.418 297.264 457.915C304.19 460.277 310.722 460.592 317.097 458.23C321.111 456.733 324.102 453.19 324.968 449.016C325.833 444.764 327.88 438.622 332.681 433.424C332.838 433.267 332.995 433.109 333.074 432.952C341.574 426.179 347.162 416.021 347.162 404.76Z" fill="#FFD22D"/>
<path d="M320.639 447.993C320.639 443.583 314.5 439.96 306.866 439.882C299.232 439.803 293.093 443.425 293.014 447.835C293.014 452.245 299.153 455.867 306.787 455.946C314.421 455.946 320.56 452.402 320.639 447.993Z" fill="#E3AD00"/>
<path d="M309.148 450.827C308.519 450.827 308.125 450.355 308.125 449.804V422.636C307.968 422.636 307.889 422.557 307.732 422.557C306.394 422.321 305.134 421.927 303.875 421.533V447.441C303.875 448.071 303.403 448.465 302.852 448.465C302.222 448.465 301.829 447.992 301.829 447.441V420.667C299.704 419.643 297.736 418.305 296.083 416.651C293.171 413.895 291.361 410.666 291.046 407.753C290.732 404.918 291.833 402.713 294.194 401.768C296.398 400.823 298.444 400.902 300.019 401.925C303.639 404.288 303.875 411.06 303.875 411.375V419.407C305.213 419.958 306.551 420.352 308.125 420.588C308.204 420.588 308.204 420.588 308.282 420.588C308.912 413.344 310.486 408.934 313.083 407.359C314.5 406.493 316.153 406.493 317.884 407.201C321.583 408.855 323.394 412.163 322.37 415.706C321.426 419.329 317.569 422.793 311.194 422.793C310.88 422.793 310.565 422.793 310.25 422.793V449.725C310.171 450.355 309.778 450.827 309.148 450.827ZM310.329 420.825C316.074 421.14 319.616 418.226 320.403 415.234C321.032 412.635 319.773 410.351 317.097 409.17C315.917 408.619 315.051 408.619 314.185 409.17C312.769 409.958 311.116 412.714 310.329 420.825ZM297.264 403.185C296.634 403.185 295.847 403.343 295.06 403.737C293.171 404.524 292.935 406.335 293.171 407.674C293.565 410.903 296.634 415.627 301.907 418.462V411.454C301.829 409.8 301.278 405.154 298.995 403.737C298.444 403.343 297.894 403.185 297.264 403.185Z" fill="#E3AD00"/>
<path opacity="0.51" d="M297.106 403.815C300.491 396.807 299.153 389.09 294.037 386.648C288.921 384.207 282.074 387.908 278.69 394.996C275.306 402.004 276.644 409.721 281.759 412.162C286.796 414.604 293.722 410.903 297.106 403.815Z" fill="white"/>
<path opacity="0.71" d="M390.056 43.7834L430.824 63.7065C432.162 64.3364 433.264 66.4626 433.264 68.2738L433.5 96.7803L435.625 107.962L424.685 97.0165L390.292 80.1646C388.954 79.5346 387.852 77.4085 387.852 75.5973L387.616 45.9096C387.694 44.1772 388.718 43.1535 390.056 43.7834Z" fill="#699EFF"/>
<path d="M411.542 31.8138L366.759 9.60706C365.264 8.89834 364.083 9.84331 364.162 11.6545L364.398 40.161L360.856 55.1229L374.157 49.4531L411.778 68.1162C413.273 68.8249 414.454 67.88 414.375 66.0688L414.139 36.3811C414.218 34.6487 413.037 32.6012 411.542 31.8138Z" fill="#D9E9FF"/>
<path d="M380.926 34.0188C380.926 36.1449 379.352 37.1686 377.463 36.1449C375.574 35.2 373.921 32.68 373.921 30.4751C373.921 28.349 375.495 27.3252 377.384 28.349C379.431 29.3727 380.926 31.8926 380.926 34.0188Z" fill="white"/>
<path d="M391.787 39.4523C391.787 41.5785 390.213 42.6022 388.324 41.5785C386.435 40.6335 384.782 38.1136 384.782 35.9087C384.782 33.7038 386.357 32.7588 388.245 33.7825C390.213 34.8063 391.787 37.3262 391.787 39.4523Z" fill="white"/>
<path d="M402.569 44.8858C402.569 47.012 400.995 48.0357 399.106 47.012C397.218 46.067 395.565 43.5471 395.565 41.3422C395.565 39.216 397.139 38.1923 399.028 39.216C401.074 40.3185 402.569 42.8384 402.569 44.8858Z" fill="white"/>
<path d="M139.699 100.166C139.778 96.6227 141.981 93.1578 145.444 91.1104L199.593 59.6115C202.583 57.8791 204.944 59.2965 204.866 62.8401L204.236 94.2603C204.157 97.5676 202.19 100.796 198.884 102.686L149.065 131.665C144.579 134.343 138.991 131.823 139.069 127.177L139.699 100.166Z" fill="#D9E9FF"/>
<path d="M194.241 93.1579C199.435 85.8344 200.458 77.6447 196.523 74.8098C192.588 71.9749 185.111 75.5973 179.917 82.842C174.722 90.1655 173.699 98.3552 177.634 101.19C181.569 104.025 189.046 100.481 194.241 93.1579Z" fill="white"/>
<path d="M192.037 91.3467C192.745 90.8742 193.218 90.0867 193.139 89.378C192.981 87.7243 191.958 87.1731 191.25 87.2518C190.935 87.2518 190.62 87.4093 190.306 87.4093C190.148 87.4093 189.912 87.488 189.755 87.488C189.597 87.488 189.44 87.5668 189.282 87.5668H189.204L188.968 87.6455C188.889 87.6455 188.81 87.5668 188.731 87.5668C188.731 87.5668 188.653 87.488 188.653 87.5668C188.653 87.5668 188.653 87.488 188.653 87.4093C188.653 87.0156 188.731 86.7793 188.731 86.3856C188.889 86.0706 189.125 85.7556 189.204 85.5194C189.282 85.2831 189.361 85.0469 189.361 84.8894C189.912 84.5744 189.991 83.7869 190.069 83.3145C190.148 82.9207 190.306 81.897 189.755 82.2907C189.755 82.212 189.755 82.1332 189.833 82.1332C189.912 81.7395 189.991 81.5033 189.991 81.1883C189.991 80.8733 189.991 80.5583 189.833 80.4795C189.755 80.4008 189.755 80.4008 189.597 80.4008C189.676 80.3221 189.676 80.1646 189.676 80.0858C189.676 79.3771 189.046 79.3771 188.574 79.4558C187.944 79.6133 187.236 79.9283 186.606 80.4795C185.977 81.1095 185.269 81.9757 184.954 82.9207C184.875 83.0782 184.875 83.2357 184.875 83.3145C184.796 83.3932 184.796 83.4719 184.718 83.5507C184.56 83.9444 184.481 84.1807 184.481 84.5744C184.481 84.8894 184.56 85.2044 184.56 85.3619C184.56 85.4406 184.56 85.4406 184.56 85.5194C184.088 85.9131 184.167 86.6218 184.167 87.0156C184.245 87.488 184.324 88.0393 184.796 87.7243C184.875 88.1968 185.032 88.5118 185.426 88.5905C185.426 88.9055 185.347 89.2205 185.347 89.5355C185.347 89.6142 185.347 89.6142 185.347 89.693L185.269 89.7717C185.111 89.9292 185.032 90.0867 184.875 90.2442L184.088 91.0317C183.931 91.1892 183.773 91.3467 183.694 91.4254C183.301 91.8191 182.907 92.2129 182.593 92.5279C182.278 92.8429 181.963 93.1578 181.648 93.5516C181.333 94.0241 181.019 94.969 180.625 95.9927C180.31 97.0165 181.569 97.8039 182.593 97.1739L192.037 91.3467ZM184.481 86.7793C184.481 86.7793 184.481 86.7006 184.481 86.6218C184.481 86.7006 184.481 86.7006 184.481 86.7793Z" fill="#A4C2FC"/>
<path d="M151.505 104.261L168.19 94.1815L168.111 99.2213L151.426 109.301L151.505 104.261Z" fill="white"/>
<path d="M168.032 102.922L167.954 107.962L142.611 123.318L142.768 118.278L168.032 102.922Z" fill="white"/>
<path d="M195.972 95.284C202.583 86.1493 203.843 75.6759 198.727 72.0536C193.611 68.3525 184.088 72.7623 177.477 81.897C170.866 91.0316 169.606 101.505 174.722 105.206C179.838 108.828 189.282 104.419 195.972 95.284Z" stroke="white" stroke-width="0.7608" stroke-miterlimit="10" stroke-linecap="round" stroke-linejoin="round"/>
<path d="M199.12 40.476C199.12 40.476 195.736 36.0662 189.519 39.3736C184.796 41.8147 187.236 41.6572 181.491 43.3897C178.107 44.4134 172.912 38.4286 164.491 42.1297C149.38 48.8232 144.107 35.0425 137.574 42.5235V77.7234L199.12 45.7521V40.476Z" fill="#7CABF7"/>
<path d="M199.12 46.1458C199.278 46.1458 199.357 46.0671 199.357 45.9096V10.7884C199.357 10.6309 199.278 10.5521 199.12 10.5521C198.963 10.5521 198.884 10.6309 198.884 10.7884V45.9883C198.884 46.0671 198.963 46.1458 199.12 46.1458Z" fill="#5F6CCF"/>
<path d="M183.773 53.7055C183.931 53.7055 184.009 53.6268 184.009 53.4693V18.2693C184.009 18.1118 183.931 18.0331 183.773 18.0331C183.616 18.0331 183.537 18.1118 183.537 18.2693V53.4693C183.537 53.6268 183.695 53.7055 183.773 53.7055Z" fill="#5F6CCF"/>
<path d="M168.505 61.659C168.662 61.659 168.741 61.5803 168.741 61.4228V26.2228C168.741 26.0653 168.662 25.9866 168.505 25.9866C168.347 25.9866 168.269 26.0653 168.269 26.2228V61.5015C168.269 61.5803 168.347 61.659 168.505 61.659Z" fill="#5F6CCF"/>
<path d="M153.157 69.6913C153.315 69.6913 153.393 69.6125 153.393 69.455V34.255C153.393 34.0975 153.315 34.0188 153.157 34.0188C153 34.0188 152.921 34.0975 152.921 34.255V69.455C152.921 69.5338 153 69.6913 153.157 69.6913Z" fill="#5F6CCF"/>
<path d="M137.574 77.6446C137.731 77.6446 137.81 77.5659 137.81 77.4084V42.2084C137.81 42.0509 137.731 41.9722 137.574 41.9722C137.417 41.9722 137.338 42.0509 137.338 42.2084V77.4084C137.417 77.5659 137.495 77.6446 137.574 77.6446Z" fill="#5F6CCF"/>
<path d="M138.046 39.2947L140.014 38.1135C140.25 37.956 140.407 37.641 140.407 37.4048C140.407 37.1686 140.25 36.9323 140.014 37.0898L138.046 38.271C137.81 38.4285 137.653 38.7435 137.653 38.9797C137.574 39.2947 137.81 39.3735 138.046 39.2947Z" fill="#ABCFFF"/>
<path d="M153.551 31.8138L155.519 30.6326C155.755 30.4751 155.912 30.1601 155.912 29.9239C155.912 29.6089 155.755 29.4514 155.519 29.6089L153.551 30.7901C153.315 30.9476 153.157 31.2626 153.157 31.4988C153.157 31.8138 153.315 31.9713 153.551 31.8138Z" fill="#ABCFFF"/>
<path d="M168.741 24.4903L170.708 23.3091C170.944 23.1516 171.102 22.8366 171.102 22.6004C171.102 22.3641 170.944 22.1279 170.708 22.2854L168.741 23.4666C168.505 23.6241 168.347 23.9391 168.347 24.1753C168.347 24.4115 168.505 24.6478 168.741 24.4903Z" fill="#ABCFFF"/>
<path d="M184.245 17.0093L186.213 15.8281C186.449 15.6706 186.607 15.3556 186.607 15.1194C186.607 14.8832 186.449 14.6469 186.213 14.8044L184.245 15.9856C184.009 16.1431 183.852 16.4581 183.852 16.6943C183.773 16.9306 184.009 17.0881 184.245 17.0093Z" fill="#ABCFFF"/>
<path d="M199.357 9.37083L201.324 8.18962C201.56 8.03213 201.718 7.71714 201.718 7.4809C201.718 7.16591 201.56 7.00842 201.324 7.16591L199.357 8.34712C199.12 8.50461 198.963 8.8196 198.963 9.05584C198.963 9.29208 199.12 9.44958 199.357 9.37083Z" fill="#ABCFFF"/>
<path d="M138.204 79.7708L140.171 78.5896L141.667 77.7234C141.903 77.5659 142.06 77.7234 142.06 78.0384C142.06 78.3534 141.903 78.6684 141.667 78.7471L139.699 79.9283L138.204 80.7945C137.968 80.952 137.81 80.7945 137.81 80.4796C137.81 80.1646 137.968 79.8496 138.204 79.7708Z" fill="#ABCFFF"/>
<path d="M170.63 61.974L172.597 60.7928L174.093 59.9265C174.329 59.769 174.486 59.9265 174.486 60.2415C174.486 60.5565 174.329 60.8715 174.093 60.9502L172.125 62.1315L170.63 62.9977C170.393 63.1552 170.236 62.9977 170.236 62.6827C170.236 62.3677 170.472 62.1315 170.63 61.974Z" fill="#ABCFFF"/>
<path d="M153.944 70.8724L155.912 69.6912L157.407 68.825C157.643 68.6675 157.801 68.825 157.801 69.14C157.801 69.4549 157.643 69.7699 157.407 69.8487L155.44 71.0299L153.944 71.8961C153.708 72.0536 153.551 71.8961 153.551 71.5811C153.551 71.2661 153.708 71.0299 153.944 70.8724Z" fill="#ABCFFF"/>
<path d="M185.505 54.0206L187.472 52.8394L188.968 51.9732C189.204 51.8157 189.361 51.9732 189.361 52.2882C189.361 52.6031 189.204 52.9181 188.968 52.9969L187 54.1781L185.505 55.0443C185.269 55.2018 185.111 55.0443 185.111 54.7293C185.032 54.4931 185.269 54.0993 185.505 54.0206Z" fill="#ABCFFF"/>
<path d="M201.167 45.9095L203.134 44.7283L204.63 43.8621C204.866 43.7046 205.023 43.8621 205.023 44.1771C205.023 44.4921 204.866 44.807 204.63 44.8858L202.662 46.067L201.167 46.9332C200.931 47.0907 200.773 46.9332 200.773 46.6182C200.852 46.4607 200.931 46.067 201.167 45.9095Z" fill="#ABCFFF"/>
<path d="M521.333 110.403C524.324 113.79 527 118.199 529.755 122.294C531.801 125.365 532.745 129.381 534.162 133.004C534.949 134.973 536.051 136.941 537.31 138.437C539.593 140.879 540.616 144.658 540.065 148.36C539.435 152.297 538.255 158.439 537.231 163.794C535.815 170.802 528.653 173.637 524.403 168.598C524.088 168.204 523.773 167.889 523.616 167.416C521.806 164.03 520.861 164.975 519.13 161.668C515.981 155.919 508.505 151.194 502.838 151.194C497.801 151.194 493.315 148.517 489.144 145.288C485.995 142.847 482.926 137.02 482.375 132.531C481.745 127.492 479.935 122.058 480.801 117.097C481.667 112.293 487.176 107.017 488.435 102.292C489.065 100.088 498.431 94.7327 501.421 94.969C502.366 95.0477 492.843 99.0638 493.63 99.5363L495.204 100.481C499.611 103.159 502.444 91.9766 507.167 93.6303C515.273 96.4652 515.116 103.237 521.333 110.403Z" fill="#5445D9"/>
<path d="M488.593 115.916L487.333 130.563L526.37 170.33C526.37 170.33 536.681 161.195 526.37 141.036C516.06 120.877 506.301 116.546 505.829 117.176C505.435 117.806 488.593 115.916 488.593 115.916Z" fill="#2C1F9C"/>
<path d="M457.898 154.817C457.898 154.817 472.38 134.185 481.431 126.862C481.431 126.862 488.278 121.428 492.134 124.578C495.991 127.728 481.903 145.918 481.903 145.918C481.903 145.918 477.023 160.172 468.208 165.605C459.787 170.803 457.898 154.817 457.898 154.817Z" fill="#7CABF7"/>
<path d="M478.676 193.954C478.046 185.292 481.273 179.15 481.037 169.07C480.88 163.715 473.324 158.597 472.852 153.006C471.75 144.186 484.106 130.248 493.393 123.239L497.407 124.499C499.296 125.129 501.185 125.917 502.995 126.862C521.648 137.492 525.505 139.776 524.245 151.194C524.009 157.022 520.94 150.643 519.838 154.502C517.949 161.825 517.162 180.41 519.838 193.718C520.389 196.395 519.287 199.23 517.083 200.726C507.403 207.577 482.218 202.065 478.676 193.954Z" fill="#A4C2FC"/>
<path d="M478.676 193.954C478.046 185.292 481.273 179.15 481.037 169.07C481.037 172.22 520.153 174.976 519.13 175.764C513.07 180.331 517.162 180.331 519.759 193.797C520.31 196.474 519.208 199.309 517.005 200.805C507.403 207.577 482.218 202.065 478.676 193.954Z" fill="#7CABF7"/>
<path d="M496.778 123.712C496.778 123.712 498.431 126.783 499.611 127.413C500.713 128.043 517.398 121.901 516.69 108.514C516.218 100.009 500.083 101.111 500.083 101.111L496.778 123.712Z" fill="#2C1F9C"/>
<path d="M501.736 135.366L501.107 135.445C498.824 135.76 496.699 134.106 496.463 131.823L494.81 118.987C494.495 116.703 496.148 114.577 498.431 114.341L499.06 114.262C501.343 113.947 503.468 115.601 503.704 117.885L507.088 129.933C507.403 132.216 504.019 135.13 501.736 135.366Z" fill="#FFC2B0"/>
<path d="M495.597 126.547C495.597 126.547 501.107 126.94 504.884 121.822C504.884 121.822 501.107 129.696 496.148 130.09L495.597 126.547Z" fill="#F09A82"/>
<path d="M459.236 120.326C459.866 121.113 451.208 165.369 458.606 167.259C465.847 169.149 467.421 165.999 467.421 165.999L464.745 122.609L459.236 120.326Z" fill="#FFC2B0"/>
<path d="M460.023 115.443L458.843 115.522C456.639 115.68 454.907 117.648 455.065 119.932L455.458 124.499C455.616 126.704 457.583 128.437 459.866 128.279L461.046 128.2C463.25 128.043 464.982 126.074 464.824 123.791L464.431 119.223C464.273 116.861 462.306 115.207 460.023 115.443Z" fill="#FFC2B0"/>
<path d="M462.384 122.294C461.676 122.373 460.968 121.743 460.968 121.034L460.259 107.569C460.181 106.86 460.81 106.151 461.519 106.151C462.227 106.072 462.935 106.702 462.935 107.411L463.644 120.877C463.722 121.664 463.171 122.294 462.384 122.294Z" fill="#FFC2B0"/>
<path d="M498.824 135.524L501.972 141.587C501.972 141.587 516.926 135.681 511.181 128.279L505.671 125.129C505.75 125.208 509.056 131.114 498.824 135.524Z" fill="white"/>
<path d="M495.597 126.547C495.597 126.547 496.069 133.004 498.824 135.524L493.236 138.044C493.236 138.044 486.861 130.169 492.685 121.428L495.597 126.547Z" fill="white"/>
<path d="M505.907 99.0639C503.861 95.3628 500.634 94.4966 497.644 96.229C494.731 94.7328 491.269 96.3077 488.671 100.718C485.051 106.86 484.579 116.152 487.727 121.586C489.852 125.365 489.931 127.57 496.856 126.94C501.736 125.759 504.569 124.499 507.245 119.932C510.787 113.79 508.898 104.419 505.907 99.0639Z" fill="#FFC2B0"/>
<path d="M502.208 102.844C502.208 102.844 499.454 116.939 513.935 122.609C513.935 122.609 521.019 115.207 514.565 101.426C508.819 89.2992 495.519 95.7565 495.519 95.7565L502.208 102.844Z" fill="#5445D9"/>
<path d="M505.356 105.6C503.468 102.056 499.769 110.246 485.995 107.962C482.218 107.569 483.319 104.34 486.074 101.033C489.38 96.9378 494.259 94.2603 499.375 93.3154L502.995 92.6854C509.449 92.0554 515.588 101.426 516.06 105.836L511.889 105.442C512.282 109.931 509.764 105.206 505.356 105.6Z" fill="#5445D9"/>
<path d="M508.977 120.483C508.111 121.979 506.143 122.452 504.648 121.586C503.153 120.719 502.68 118.751 503.546 117.254C504.412 115.758 506.38 115.286 507.875 116.152C509.37 117.018 509.843 118.987 508.977 120.483Z" fill="#FFC2B0"/>
<path d="M512.519 151.746C512.361 154.659 512.204 157.416 511.81 160.329C510.787 167.338 504.727 172.299 497.644 171.826C486.31 171.196 479.778 164.345 478.755 163.243C482.454 167.416 481.116 174.267 481.116 174.267C481.116 174.267 486.468 173.086 490.954 173.322C494.968 173.559 505.12 177.024 507.324 177.811C505.356 188.127 505.671 198.6 505.671 198.6L522.278 180.725L512.519 151.746Z" fill="#7CABF7"/>
<path d="M478.755 163.243C478.676 163.164 478.676 163.164 478.597 163.085C478.597 163.085 478.597 163.164 478.755 163.243Z" fill="#7CABF7"/>
<path d="M504.491 199.545L503.31 199.073C501.185 198.285 498.745 199.309 497.88 201.435L496.148 205.845C495.361 207.971 496.384 210.412 498.509 211.279L499.69 211.751C501.815 212.539 504.255 211.515 505.12 209.389L506.852 204.979C507.639 202.853 506.616 200.411 504.491 199.545Z" fill="#FFC2B0"/>
<path d="M504.569 204.821C504.569 204.821 530.699 187.418 526.213 179.465L519.366 172.929C519.366 172.929 519.208 180.961 499.454 199.388L504.569 204.821Z" fill="#FFC2B0"/>
<path d="M512.519 146.942L514.722 181.827L521.333 191.119C521.333 191.119 529.204 187.261 527.551 172.299C525.505 153.242 524.403 145.21 524.403 145.21L512.519 146.942Z" fill="#A4C2FC"/>
</g>
<defs>
<clipPath id="clip0">
<rect width="595" height="621" fill="white"/>
</clipPath>
</defs>
</svg>
