<svg width="147" height="296" viewBox="0 0 147 296" fill="none" xmlns="http://www.w3.org/2000/svg">
<path opacity="0.2" d="M92.8332 295.85C122.749 295.85 147.001 284.73 147.001 271.012C147.001 257.295 122.749 246.175 92.8332 246.175C62.9174 246.175 38.6659 257.295 38.6659 271.012C38.6659 284.73 62.9174 295.85 92.8332 295.85Z" fill="#A8C4E5"/>
<path d="M109.413 268.134C109.488 254.271 90.0689 242.927 66.039 242.796C42.0091 242.666 22.4681 253.799 22.3929 267.662C22.3178 281.526 41.7369 292.87 65.7668 293C89.7967 293.131 109.338 281.998 109.413 268.134Z" fill="#E1EEF9"/>
<path d="M2.02612 206.804L22.548 269.603L109.128 271.012L128.945 210.503L2.02612 206.804Z" fill="#E1EEF9"/>
<path d="M101.994 209.27L82.1764 269.603C79.446 278.851 76.9799 280.877 69.8456 285.016C64.7372 288.011 58.5718 290.565 52.0541 291.622C66.6748 294.088 82.9691 291.358 94.4191 284.664C101.553 280.524 105.605 278.498 106.75 269.515L126.567 209.182H101.994V209.27Z" fill="#C8D8E6"/>
<path d="M130.242 203.203C130.353 182.676 101.657 165.879 66.147 165.686C30.6372 165.494 1.7606 181.978 1.6493 202.506C1.53799 223.034 30.2341 239.831 65.7439 240.023C101.254 240.216 130.13 223.731 130.242 203.203Z" fill="white"/>
<path d="M120.693 201.95C120.788 184.341 96.1408 169.932 65.6413 169.767C35.1418 169.602 10.3397 183.742 10.2442 201.351C10.1487 218.96 34.796 233.369 65.2955 233.535C95.795 233.7 120.597 219.559 120.693 201.95Z" fill="#2C1F9C"/>
<path d="M67.7321 182.849C73.1929 133.085 115.558 51.1738 115.558 51.1738C60.9502 67.38 57.339 121.283 57.339 121.283L67.7321 182.849Z" fill="#6F78ED"/>
<path d="M55.4006 138.809C61.1256 89.0457 37.0806 0 37.0806 0C86.6679 27.9204 78.2125 81.383 78.2125 81.383L55.4006 138.809Z" fill="#6F78ED"/>
<path d="M138.985 78.741C93.4496 89.046 65.8815 168.756 65.8815 168.756V168.932C64.2081 67.291 0 40.3395 0 40.3395C19.2008 68.2599 37.2565 163.295 42.7173 194.034C44.7431 205.572 54.96 214.027 66.6742 213.499C67.2908 213.499 67.9954 213.411 68.612 213.323C78.6527 212.266 86.4915 204.427 88.5173 194.474C96.9727 151.933 138.985 78.741 138.985 78.741Z" fill="#6F78ED"/>
</svg>
