<svg width="650" height="386" viewBox="0 0 650 386" fill="none" xmlns="http://www.w3.org/2000/svg">
<g clip-path="url(#clip0)">
<path opacity="0.2" d="M267.359 382.125L21.0619 240.021C12.2073 234.863 13.4108 225.751 23.7269 219.647L363.04 18.655C373.357 12.5513 389.003 11.6916 397.771 16.7637L643.982 158.954C652.837 164.112 651.633 173.224 641.317 179.328L302.004 380.32C291.773 386.424 276.127 387.283 267.359 382.125Z" fill="#A8C4E5"/>
<path d="M632.205 154.57C631.345 153.71 630.227 152.764 628.938 151.99L382.727 9.88628C373.873 4.72823 358.312 5.5879 347.996 11.7776L8.59675 212.769C7.47917 213.457 6.36159 214.145 5.50192 215.005L0 217.584L0.0859675 225.751C0.515805 228.588 2.40709 231.167 5.84579 233.144L252.057 375.334C260.911 380.492 276.471 379.632 286.787 373.443L626.101 172.451C631.431 169.27 634.44 165.315 634.698 161.447L634.784 154.913L632.205 154.57Z" fill="#2C1F9C"/>
<path d="M252.143 368.8L5.93204 226.61C-2.92261 221.452 -1.71907 212.34 8.59703 206.236L347.911 5.24407C358.227 -0.85962 373.873 -1.71929 382.642 3.35279L628.852 145.543C637.707 150.701 636.503 159.814 626.187 165.917L286.874 366.909C276.558 373.013 260.912 373.787 252.143 368.8Z" fill="#4A2ABA"/>
<path d="M292.203 332.608L59.2314 193.857L370.778 13.9268L607.446 150.701L292.203 332.608Z" fill="#D9E9FF"/>
<path d="M548.988 99.5504L540.907 94.9081C550.45 89.4062 550.45 80.4656 540.907 74.9637L497.064 49.6892C487.521 44.1873 472.047 44.1873 462.505 49.6892L457.089 46.5084C447.203 40.8346 431.041 40.8346 421.154 46.5084C411.268 52.1823 411.268 61.5527 421.154 67.2266L513.054 120.269C523.026 125.942 539.102 125.942 548.988 120.269C558.874 114.509 558.874 105.224 548.988 99.5504Z" fill="#A8C4E5"/>
<path d="M548.988 91.6414L540.907 86.9991C550.45 81.4972 550.45 72.5566 540.907 67.0547L497.064 41.7802C487.521 36.2783 472.047 36.2783 462.505 41.7802L457.089 38.5994C447.203 32.9256 431.041 32.9256 421.154 38.5994C411.268 44.2733 411.268 53.6437 421.154 59.3176L513.054 112.36C523.026 118.033 539.102 118.033 548.988 112.36C558.874 106.686 558.874 97.4012 548.988 91.6414Z" fill="#E1EAF4"/>
<path d="M523.8 89.836L456.659 49.9471C454.338 48.5716 454.252 45.1329 456.573 43.5855C457.777 42.8118 459.238 42.8118 460.442 43.4996L527.669 83.3885C529.99 84.7639 530.076 88.2026 527.755 89.7501C526.551 90.5238 525.004 90.5238 523.8 89.836Z" fill="white"/>
<path d="M385.048 160.931L355.39 144.082C352.725 142.534 354.1 139.095 358.484 136.344C362.783 133.594 368.543 132.562 371.208 134.023L400.866 150.873C403.531 152.42 402.156 155.859 397.772 158.61C393.387 161.447 387.713 162.479 385.048 160.931Z" fill="#BFDFFF"/>
<path d="M518.728 170.044L413.332 109.265C409.893 107.287 402.414 107.717 396.826 110.296C391.238 112.789 389.433 116.572 392.872 118.635L498.268 179.414C501.706 181.391 509.186 180.962 514.773 178.383C520.275 175.804 522.081 172.021 518.728 170.044Z" fill="#8A7EF2"/>
<path d="M297.877 210.448L268.219 193.599C265.554 192.051 266.929 188.613 271.314 185.862C275.612 183.111 281.372 182.079 284.037 183.541L313.695 200.39C316.36 201.938 314.985 205.376 310.601 208.127C306.302 211.05 300.542 211.996 297.877 210.448Z" fill="#BFDFFF"/>
<path d="M431.557 219.561L326.16 158.782C322.722 156.805 315.243 157.235 309.655 159.814C304.067 162.307 302.261 166.089 305.7 168.152L411.096 228.931C414.535 230.909 422.014 230.479 427.602 227.9C433.104 225.407 434.909 221.624 431.557 219.561Z" fill="#8A7EF2"/>
<path d="M221.538 259.708L191.879 242.858C189.214 241.311 190.59 237.872 194.974 235.121C199.273 232.37 205.032 231.339 207.697 232.8L237.356 249.65C240.021 251.197 238.646 254.636 234.261 257.387C229.963 260.224 224.203 261.169 221.538 259.708Z" fill="#BFDFFF"/>
<path d="M355.218 268.82L249.822 208.041C246.383 206.064 238.904 206.494 233.316 209.073C227.728 211.566 225.923 215.349 229.361 217.412L334.757 278.191C338.196 280.168 345.675 279.738 351.263 277.159C356.765 274.494 358.57 270.798 355.218 268.82Z" fill="#8A7EF2"/>
<path d="M319.111 103.333C319.025 105.998 321.69 107.803 325.215 107.287L359.258 103.075C362.697 102.645 365.62 100.152 365.706 97.4872C365.792 94.8222 363.127 93.0169 359.602 93.5327L325.559 97.7451C322.12 98.1749 319.197 100.668 319.111 103.333Z" fill="#FFCE43"/>
<path d="M322.636 107.459C325.731 108.147 329.513 106.6 331.061 103.935L348.856 72.8145C350.317 70.2355 349.028 67.4845 345.933 66.8828C342.838 66.195 339.056 67.7424 337.508 70.4074L319.713 101.528C318.166 104.021 319.541 106.686 322.636 107.459Z" fill="#FFCE43"/>
<path d="M161.877 196.694C161.791 199.359 164.456 201.164 167.98 200.648L202.023 196.436C205.462 196.006 208.385 193.513 208.471 190.848C208.557 188.183 205.892 186.378 202.367 186.893L168.324 191.106C164.799 191.622 161.963 194.029 161.877 196.694Z" fill="#FFCE43"/>
<path d="M243.632 142.104C243.546 144.769 246.211 146.575 249.736 146.059L283.693 141.846C287.131 141.417 290.054 138.924 290.14 136.259C290.226 133.594 287.561 131.788 284.037 132.304L249.993 136.516C246.641 136.946 243.718 139.525 243.632 142.104Z" fill="#5846F0"/>
<path d="M263.92 118.463C261.083 118.205 259.192 120.612 259.708 123.707L264.694 154.226C265.21 157.321 267.961 159.986 270.712 160.243C273.549 160.501 275.44 158.094 274.924 154.999L269.938 124.481C269.508 121.472 266.671 118.721 263.92 118.463Z" fill="#5846F0"/>
<path d="M165.401 200.82C168.496 201.508 172.279 199.96 173.826 197.295L191.621 166.175C193.083 163.596 191.793 160.845 188.699 160.243C185.604 159.556 181.821 161.103 180.274 163.768L162.392 194.888C160.931 197.381 162.221 200.046 165.401 200.82Z" fill="#FFCE43"/>
<path d="M327.708 116.658L296.416 98.6047C289.539 94.6502 290.398 87.5149 298.393 82.9586L325.473 67.3126C333.468 62.6703 345.675 62.1545 352.553 66.195L383.845 84.2482C390.722 88.2027 389.863 95.338 381.868 99.8942L354.788 115.54C346.879 120.011 334.672 120.612 327.708 116.658Z" stroke="#2C1F9C" stroke-width="5.6278" stroke-miterlimit="10"/>
<path d="M254.98 164.628L223.688 146.575C216.81 142.62 217.67 135.485 225.665 130.928L252.745 115.282C260.739 110.64 272.947 110.124 279.824 114.165L311.116 132.218C317.994 136.173 317.134 143.308 309.139 147.864L282.059 163.51C274.15 168.152 261.943 168.668 254.98 164.628Z" stroke="#2C1F9C" stroke-width="5.6278" stroke-miterlimit="10"/>
<path d="M172.709 210.878L141.417 192.825C134.539 188.871 135.399 181.735 143.394 177.179L170.474 161.533C178.469 156.891 190.676 156.375 197.553 160.415L228.845 178.468C235.723 182.423 234.863 189.558 226.868 194.115L199.788 209.761C191.793 214.403 179.586 214.833 172.709 210.878Z" stroke="#2C1F9C" stroke-width="5.6278" stroke-miterlimit="10"/>
<path opacity="0.4" d="M81.4113 253.002C95.51 252.744 106.858 246.899 106.772 239.849C106.686 232.8 95.0802 227.384 80.9815 227.642C66.8828 227.9 55.5351 233.746 55.6211 240.795C55.793 247.758 67.3127 253.26 81.4113 253.002Z" fill="#A8C4E5"/>
<path d="M62.0687 229.877L68.0864 229.103C72.0409 227.298 73.9322 225.923 75.7375 226.954L76.2533 227.298C78.0586 228.33 77.8007 230.135 75.7375 231.339L66.9688 238.302C64.9056 239.505 62.1547 239.076 60.4353 237.614C60.4353 237.614 59.4897 236.755 60.1774 232.972C60.5213 230.823 60.4353 230.737 62.0687 229.877Z" fill="#2C1F9C"/>
<path d="M88.3746 243.89L94.3063 245.007C98.6906 244.492 100.926 243.804 102.301 245.351L102.731 245.781C104.107 247.328 103.419 248.962 101.012 249.478L90.5237 253.432C88.2026 253.948 85.6236 252.658 84.592 250.853C84.592 250.853 83.9042 249.736 85.7096 246.383C86.5692 244.406 86.4833 244.32 88.3746 243.89Z" fill="#2C1F9C"/>
<path d="M92.5011 245.351C92.5011 248.36 85.1938 248.36 85.1938 245.351V235.551H92.5011V245.351Z" fill="#C6D2F2"/>
<path d="M93.4465 239.162C91.1254 242.6 85.8814 242.6 84.334 240.107L71.6968 138.838H98.0028L93.4465 239.162Z" fill="#789CFF"/>
<path d="M67.7423 230.995C67.5704 233.66 60.2632 233.66 60.4351 230.995L61.0369 222.226H68.3441L67.7423 230.995Z" fill="#C6D2F2"/>
<path d="M69.2036 227.04C66.2807 230.049 60.6069 228.759 59.4033 226.61L63.1859 138.752L81.497 141.417L69.2036 227.04Z" fill="#789CFF"/>
<path d="M88.3747 73.5882C86.5693 79.8639 81.8411 81.6692 77.9726 77.5427C74.0181 73.5023 72.2987 64.9915 74.1041 58.7159C75.9094 52.4402 80.6376 50.6349 84.5061 54.7614C88.4606 58.8878 90.18 67.3126 88.3747 73.5882Z" fill="#FFC2B0"/>
<path d="M95.08 71.6109C93.2747 77.8866 86.5692 80.1217 82.5287 76.0812C78.5742 72.0408 76.8549 63.53 78.6602 57.2544C80.4655 50.9787 85.1937 49.1734 89.0623 53.2999C93.0168 57.3403 96.8853 65.3353 95.08 71.6109Z" fill="#FFC2B0"/>
<path d="M79.7778 89.7501L79.09 89.5782C76.7689 89.0624 75.3075 86.8272 75.8233 84.5061L78.6602 71.611C79.176 69.2899 81.4112 67.8284 83.7323 68.3442L84.42 68.5161C86.7411 69.0319 88.2026 71.2671 87.6868 73.5882L86.7411 86.3974C86.3113 88.7185 82.0129 90.2659 79.7778 89.7501Z" fill="#FFC2B0"/>
<path d="M72.1267 72.6426C72.1267 72.6426 72.8144 78.5743 81.2392 77.3708C87.2569 76.5971 85.5376 66.7108 91.5553 65.7652C98.2608 64.7336 99.3783 56.4807 96.7993 53.2999C94.2203 50.1191 86.8271 48.4857 81.5831 50.8928C76.2531 53.042 68.0002 52.87 72.1267 72.6426Z" fill="#4432DB"/>
<path d="M91.5552 69.032C91.1254 70.5794 89.492 71.4391 87.9446 71.0092C86.3972 70.5794 85.5375 68.946 85.9674 67.3986C86.3972 65.8512 88.0306 64.9915 89.578 65.4213C91.0394 65.9371 91.9851 67.5705 91.5552 69.032Z" fill="#FFC2B0"/>
<path d="M62.4982 137.72C64.6474 125.942 62.3263 116.658 62.4982 104.107C62.4982 81.5832 61.4666 76.0813 73.3301 79.52L76.6829 80.3796C78.3162 80.8095 79.8637 81.4113 81.3251 82.185C97.0572 90.2659 101.27 92.759 100.496 102.129C100.582 117.604 98.2607 134.969 98.0028 142.62C94.822 153.194 66.1089 145.371 62.4982 137.72Z" fill="#BFDFFF"/>
<path d="M87.343 78.1445L86.6553 76.5971C86.6553 76.5971 87.8588 77.8006 90.1799 77.4568C90.1799 77.4568 88.8904 78.3165 87.343 78.1445Z" fill="#F09A82"/>
<path d="M137.634 116.228L135.571 113.907C134.023 112.102 134.281 109.351 136.087 107.803C137.892 106.256 140.643 106.514 142.19 108.319L144.253 110.64C145.801 112.445 145.543 115.196 143.738 116.744C141.846 118.377 139.095 118.119 137.634 116.228Z" fill="#FFC2B0"/>
<path d="M155.773 179.156L174.944 194.201L173.568 171.247L155.773 179.156Z" fill="white"/>
<path d="M169.27 189.816L174.858 194.287L174.342 186.378C173.998 190.074 172.193 191.106 169.27 189.816Z" fill="#7CABF7"/>
<path d="M170.387 179.672C174.514 175.804 174.772 169.356 170.989 165.144C167.121 161.017 160.673 160.759 156.461 164.542C152.334 168.41 152.076 174.858 155.859 179.07C159.727 183.283 166.261 183.541 170.387 179.672Z" fill="#3F5FC2"/>
<path d="M170.387 164.714L117.087 77.7147L101.441 91.0396L146.66 164.284L170.387 164.714Z" fill="#3F5FC2"/>
<path d="M163.94 174.084C163.338 173.396 162.909 172.709 162.479 171.935L115.454 94.3923L104.537 95.8538L154.484 176.663C154.914 177.437 155.343 178.125 155.945 178.812C159.212 182.423 164.456 183.111 168.582 180.876L163.94 174.084Z" fill="#3B2AD1"/>
<path d="M119.753 81.8411L116.572 76.683L113.907 79.0042C111.586 79.0901 108.921 80.0358 106.686 81.9271C104.278 83.9903 102.817 86.5693 102.387 88.9764L101.184 90.008L102.731 92.9309H102.817C103.075 93.4467 103.333 93.8765 103.591 94.3064C106.256 97.5731 112.015 97.2293 116.4 93.6186C120.44 90.3519 121.902 85.1079 119.753 81.8411Z" fill="#E1EAF4"/>
<path d="M117.002 77.3708C116.916 77.2848 116.83 77.1988 116.744 77.1128L113.133 72.0408L109.007 75.4795C107.287 75.9093 105.654 76.769 104.106 77.9725C102.645 79.1761 101.527 80.6375 100.754 82.1849L97.229 85.0219L100.582 89.7501C100.754 90.008 100.926 90.2659 101.098 90.4378C103.763 93.7046 109.522 93.3607 113.907 89.7501C118.377 86.3114 119.752 80.6375 117.002 77.3708Z" fill="#7CABF7"/>
<path d="M110.468 84.8499C114.853 81.2393 116.142 75.6514 113.477 72.3846C110.812 69.1179 105.052 69.3758 100.668 72.9864C96.2837 76.5971 94.9942 82.1849 97.6592 85.4517C100.41 88.8044 106.084 88.4606 110.468 84.8499Z" fill="#A4C2FC"/>
<path d="M87.8589 95.166C87.8589 95.166 91.0397 112.102 110.554 132.734C115.884 138.408 142.964 134.969 142.964 134.969V129.639C142.964 129.639 122.59 131.874 117.69 124.997C112.102 117.432 103.849 88.1167 87.8589 95.166Z" fill="#FFC2B0"/>
<path d="M91.5555 106.6L101.27 127.232C102.559 128.693 116.486 118.549 114.767 116.228C114.423 115.798 102.216 91.8133 92.8451 89.1483C85.194 86.9991 86.0536 97.6591 91.5555 106.6Z" fill="#BFDFFF"/>
<path d="M146.833 137.548H143.738C141.417 137.548 139.439 135.571 139.439 133.164C139.439 130.843 141.417 128.865 143.824 128.865H146.919C149.24 128.865 151.217 130.843 151.217 133.25C151.131 135.571 149.154 137.548 146.833 137.548Z" fill="#FFC2B0"/>
</g>
<defs>
<clipPath id="clip0">
<rect width="650" height="385.478" fill="white"/>
</clipPath>
</defs>
</svg>
