<svg width="50" height="50" viewBox="0 0 50 50" fill="none" xmlns="http://www.w3.org/2000/svg">
<path d="M25 0C11.2167 0 0 11.2167 0 25C0 38.7833 11.2167 50 25 50C38.7833 50 50 38.7833 50 25C50 11.2167 38.7833 0 25 0ZM25 4.16667C36.5312 4.16667 45.8333 13.4688 45.8333 25C45.8384 29.9874 44.05 34.8104 40.7945 38.5887C37.5389 42.3671 33.0334 44.8489 28.1 45.5812V31.075H34.0333L34.9646 25.0479H28.1V21.7562C28.1 19.2562 28.9229 17.0333 31.2625 17.0333H35.0229V11.775C34.3625 11.6854 32.9646 11.4917 30.3229 11.4917C24.8062 11.4917 21.5729 14.4042 21.5729 21.0417V25.0479H15.9021V31.075H21.5729V45.5292C16.7078 44.7284 12.2859 42.2239 9.09727 38.4632C5.90864 34.7025 4.16102 29.9306 4.16667 25C4.16667 13.4688 13.4688 4.16667 25 4.16667Z" fill="#312A6C" fill-opacity="0.5"/>
</svg>
