<svg width="50" height="45" viewBox="0 0 50 45" fill="none" xmlns="http://www.w3.org/2000/svg">
<path d="M46.2984 0.00458056C45.6809 0.0493307 45.0748 0.193632 44.5037 0.431854H44.496C43.9478 0.648365 41.3415 1.7405 37.379 3.39594L23.1796 9.35287C12.9907 13.6256 2.97497 17.8332 2.97497 17.8332L3.09423 17.7872C3.09423 17.7872 2.40369 18.0133 1.68237 18.5057C1.23674 18.7882 0.853281 19.1578 0.555186 19.5921C0.201259 20.1094 -0.0834222 20.9008 0.0223714 21.7189C0.195488 23.1023 1.09569 23.9319 1.742 24.3898C2.39599 24.8535 3.01921 25.07 3.01921 25.07H3.0346L12.4271 28.2219C12.8484 29.5688 15.2893 37.5625 15.876 39.4038C16.2222 40.5036 16.5589 41.1915 16.9801 41.7164C17.184 41.9847 17.4225 42.2089 17.7091 42.389C17.8581 42.4753 18.017 42.5435 18.1823 42.5921L18.0861 42.5691C18.115 42.5767 18.1381 42.5997 18.1592 42.6074C18.2362 42.6285 18.2881 42.6361 18.3862 42.6515C19.8731 43.0998 21.0676 42.1801 21.0676 42.1801L21.1349 42.1265L26.6804 37.0969L35.9749 44.1996L36.1864 44.2897C38.1234 45.1366 40.0854 44.6652 41.1222 43.8337C42.1667 42.9964 42.5725 41.9253 42.5725 41.9253L42.6399 41.7529L49.8223 5.10121C50.0262 4.19684 50.0781 3.34996 49.8531 2.52799C49.6209 1.6961 49.0851 0.980618 48.3508 0.521907C47.7341 0.148502 47.0191 -0.0317309 46.2984 0.00458056ZM46.1041 3.93243C46.0964 4.05314 46.1195 4.03973 46.0656 4.27157V4.29264L38.9505 40.563C38.9198 40.6147 38.8678 40.7278 38.7255 40.8408C38.5755 40.9596 38.4562 41.0343 37.8311 40.7872L26.4631 32.1057L19.5961 38.3404L21.0387 29.1627L39.6122 11.9184C40.3778 11.2095 40.122 11.06 40.122 11.06C40.1758 10.1902 38.9659 10.8052 38.9659 10.8052L15.5452 25.2578L15.5375 25.2195L4.31182 21.4545V21.4468L4.28297 21.4411C4.30264 21.4346 4.32191 21.4269 4.34067 21.4181L4.40222 21.3874L4.46185 21.3663C4.46185 21.3663 14.4853 17.1588 24.6742 12.886C29.7754 10.7458 34.915 8.59029 38.8678 6.92718C42.8207 5.27365 45.7425 4.06081 45.9079 3.99566C46.0656 3.93435 45.9906 3.93435 46.1041 3.93435V3.93243Z" fill="#312A6C" fill-opacity="0.5"/>
</svg>
