<svg width="32" height="32" viewBox="0 0 32 32" fill="none" xmlns="http://www.w3.org/2000/svg">
<path d="M16 18C16.9889 18 17.9556 17.7068 18.7778 17.1574C19.6001 16.6079 20.241 15.8271 20.6194 14.9134C20.9978 13.9998 21.0969 12.9945 20.9039 12.0246C20.711 11.0546 20.2348 10.1637 19.5355 9.46447C18.8363 8.76521 17.9454 8.289 16.9754 8.09608C16.0055 7.90315 15.0002 8.00217 14.0866 8.3806C13.1729 8.75904 12.3921 9.39991 11.8426 10.2222C11.2932 11.0444 11 12.0111 11 13C11.0016 14.3256 11.5289 15.5964 12.4662 16.5338C13.4036 17.4711 14.6744 17.9984 16 18ZM16 10C16.5933 10 17.1734 10.1759 17.6667 10.5056C18.1601 10.8352 18.5446 11.3038 18.7716 11.852C18.9987 12.4001 19.0581 13.0033 18.9424 13.5853C18.8266 14.1672 18.5409 14.7018 18.1213 15.1213C17.7018 15.5409 17.1672 15.8266 16.5853 15.9424C16.0033 16.0581 15.4001 15.9987 14.8519 15.7716C14.3038 15.5446 13.8352 15.1601 13.5056 14.6667C13.1759 14.1734 13 13.5933 13 13C13.0008 12.2046 13.3171 11.442 13.8796 10.8796C14.442 10.3171 15.2046 10.0008 16 10Z" fill="#312A6C"/>
<path d="M16 30L24.436 20.051C24.5532 19.9016 24.6692 19.7513 24.784 19.6C26.225 17.7018 27.0035 15.3832 27 13C27 10.0826 25.8411 7.28473 23.7782 5.22183C21.7153 3.15893 18.9174 2 16 2C13.0826 2 10.2847 3.15893 8.22181 5.22183C6.15891 7.28473 4.99999 10.0826 4.99999 13C4.9965 15.3821 5.77462 17.6996 7.21499 19.597L7.21599 19.6C7.21599 19.6 7.51599 19.994 7.56099 20.047L16 30ZM23.188 18.395C23.186 18.395 22.954 18.703 22.901 18.769L16 26.908L9.08999 18.758C9.04599 18.703 8.81199 18.393 8.81099 18.392C7.63384 16.8411 6.99768 14.947 6.99999 13C6.99999 10.6131 7.9482 8.32387 9.63603 6.63604C11.3239 4.94821 13.613 4 16 4C18.3869 4 20.6761 4.94821 22.3639 6.63604C24.0518 8.32387 25 10.6131 25 13C25.0021 14.9482 24.3652 16.8434 23.187 18.395H23.188Z" fill="#312A6C"/>
</svg>
