<svg width="264" height="392" viewBox="0 0 264 392" fill="none" xmlns="http://www.w3.org/2000/svg">
<g clip-path="url(#clip0)">
<path opacity="0.2" d="M133.88 391.913C205.761 391.913 264 358.293 264 316.814C264 275.334 205.761 241.714 133.88 241.714C61.9993 241.714 3.76013 275.334 3.76013 316.814C3.76013 358.38 61.9993 391.913 133.88 391.913Z" fill="#A8C4E5"/>
<path d="M76.9525 327.816C75.8157 327.118 60.4252 320.568 49.6693 320.568C44.4226 320.568 6.12113 344.059 3.93498 347.115C-0.874563 354.363 6.12113 362.222 6.12113 362.222C7.87006 365.541 11.8051 368.16 20.3749 367.287L83.8608 350.608V329.301C84.2106 329.65 78.2642 328.515 76.9525 327.816Z" fill="#2C1F9C"/>
<path d="M100.913 326.07C102.225 326.07 118.927 327.642 128.196 332.881C132.831 335.501 155.042 374.36 155.479 378.29C156.354 387.11 146.035 390.603 146.035 390.603C142.975 392.611 138.165 393.048 131.082 388.158L83.5986 342.924L93.9172 324.236C93.6549 324.149 99.6012 326.07 100.913 326.07Z" fill="#2C1F9C"/>
<path d="M117.615 227.131C117.615 227.131 52.9924 190.018 30.1689 192.463C7.34545 195.083 2.01124 204.776 0.08742 211.151C-1.92384 217.526 94.3544 299.873 144.286 299.436L163.175 304.937C163.175 304.937 241.439 329.301 243.887 310.439C246.336 290.704 213.806 260.14 197.716 251.407C181.626 242.5 117.615 227.131 117.615 227.131Z" fill="#3B2AD1"/>
<path d="M3.58534 211.5C3.58534 211.5 29.1196 187.835 74.7665 260.664C120.501 333.58 125.136 342.138 125.136 342.138L78.3518 332.881C78.2644 332.881 -19.5004 228.878 3.58534 211.5Z" fill="#3B2AD1"/>
<path d="M243.8 310.526C243.8 310.526 233.656 286.163 195.005 297.34C150.407 310.264 73.892 322.402 73.892 322.402C73.892 322.402 69.957 349.386 76.5154 355.149C99.7761 358.467 226.835 356.896 243.8 329.214C249.309 319.957 243.8 310.526 243.8 310.526Z" fill="#3B2AD1"/>
<path d="M77.827 112.998L60.4252 159.717C57.5395 169.846 45.4719 174.213 36.7273 168.274L17.5766 155.35L15.8277 180.587L43.5481 199.449C53.8668 206.435 67.9456 203.204 73.892 192.201C84.2106 172.903 98.2894 146.967 98.2894 146.356C98.5518 145.483 77.827 112.998 77.827 112.998Z" fill="#FFC2B0"/>
<path d="M87.9709 85.0541L57.1898 142.601C62.2617 162.598 73.0176 172.641 86.6592 178.142L98.2895 100.423L87.9709 85.0541Z" fill="#A4C2FC"/>
<path d="M67.0712 131.598C67.0712 131.598 71.4435 152.207 104.236 163.646" stroke="white" stroke-width="3.8695" stroke-miterlimit="10" stroke-linecap="round" stroke-linejoin="round"/>
<path d="M85.7847 222.503C92.7804 175.784 82.2868 175.086 77.9145 137.973C77.9145 78.9414 100.301 56.9356 137.728 70.5583L153.118 74.7499C198.153 98.9388 221.064 97.8035 212.931 145.395L205.936 237.348C206.023 290.965 82.899 285.726 85.7847 222.503Z" fill="#A4C2FC"/>
<path d="M183.112 163.21L202.438 243.81L204.886 251.669L207.772 212.81L183.112 163.21Z" fill="#7CABF7"/>
<path d="M207.072 106.361C207.072 106.361 239.428 146.531 248.434 231.235C250.883 254.464 229.546 273.151 206.898 267.65L146.909 252.106L147.172 237.174C147.172 237.174 223.25 257.171 217.479 232.371C210.833 204.514 160.026 128.978 207.072 106.361Z" fill="#FFC2B0"/>
<path d="M179.614 150.024L202.001 213.683C205.324 218.748 251.233 195.432 247.298 187.748C246.598 186.438 222.026 109.418 195.617 97.1049C174.542 87.0626 167.722 121.119 179.614 150.024Z" fill="#A4C2FC"/>
<path d="M159.852 242.937L160.551 245.819C161.863 250.883 158.54 256.123 153.555 257.433L142.974 260.053C137.903 261.362 132.656 258.044 131.344 253.067L130.645 250.185C129.333 245.12 132.656 239.881 137.64 238.571L148.221 235.951C153.468 234.554 158.715 237.872 159.852 242.937Z" fill="#FFC2B0"/>
<path d="M50.1067 197.441L23.2607 188.621C21.5117 188.184 19.9377 186.438 19.7628 184.43L10.9308 133.257C10.4935 131.249 11.6303 129.939 13.3793 130.376L41.0997 136.75C42.8486 137.187 44.4226 138.933 44.5975 140.942L53.4296 191.852C53.6919 193.162 52.9924 194.035 52.2928 194.734L50.1067 197.441Z" fill="#AEC7E6"/>
<path d="M26.5836 151.595C26.5836 151.595 20.0252 186.263 19.7628 184.342L8.5697 133.607L11.4554 130.55C11.8927 130.114 12.5922 130.114 13.2043 130.288L40.9248 136.663C41.7992 136.925 42.4988 137.362 43.1109 138.235L26.5836 151.595Z" fill="#BAD4F5"/>
<path d="M48.1828 197.878L20.7247 191.328C18.9758 190.892 17.4018 188.883 17.2269 187.137L8.39481 135.964C7.95758 133.956 9.09438 132.646 10.8433 133.083L38.3014 139.632C40.0503 140.069 41.6244 142.077 41.7993 143.824L50.6313 194.996C50.8062 197.004 49.9318 198.314 48.1828 197.878Z" fill="white"/>
<path d="M46.6087 197.441L19.7627 191.066C18.1887 190.63 16.7021 188.883 16.2649 186.875L7.69516 137.274C7.43283 135.266 8.39473 134.218 9.88132 134.393L36.465 140.767C38.039 141.204 39.5256 142.95 39.9628 144.959L48.5325 194.559C49.2321 196.83 48.1828 197.877 46.6087 197.441Z" fill="#3B2AD1"/>
<path d="M18.4511 179.889C14.2537 180.587 10.0563 177.706 9.44413 173.514L7.25797 161.027C6.5584 156.835 9.44413 152.643 13.6415 152.032C17.839 151.334 22.0364 154.215 22.6485 158.407L24.8347 170.894C25.7091 175.086 22.9108 179.015 18.4511 179.889Z" fill="#FFC2B0"/>
<path d="M44.8599 152.294C44.4226 152.294 43.9854 152.032 43.9854 151.595L43.2858 147.666C43.2858 147.229 43.5482 146.793 43.9854 146.793C44.4226 146.793 44.8599 147.055 44.8599 147.491L45.5594 151.421C45.5594 151.77 45.2971 152.294 44.8599 152.294Z" fill="#2C1F9C"/>
<path d="M46.1716 158.581C45.7343 158.581 45.2971 158.319 45.2971 157.883L44.5975 153.953C44.5975 153.517 44.8599 153.08 45.2971 153.08C45.7343 153.08 46.1716 153.342 46.1716 153.779L46.8711 157.708C46.8711 158.145 46.4339 158.581 46.1716 158.581Z" fill="#2C1F9C"/>
<path d="M36.2902 152.469C35.4157 152.207 34.5412 151.159 34.2789 150.024L33.1421 144.522C32.8797 143.387 33.5793 142.776 34.4538 142.95C35.3282 143.212 36.2027 144.26 36.465 145.395L37.6018 150.897C37.8642 152.032 37.1646 152.731 36.2902 152.469Z" fill="white"/>
<path d="M35.5031 146.531C35.9404 146.269 35.9404 145.483 35.5031 144.784C35.0659 144.086 34.3663 143.649 33.9291 143.911C33.4919 144.173 33.4919 144.959 33.9291 145.657C34.3663 146.356 35.0659 146.793 35.5031 146.531Z" fill="#2C1F9C"/>
<path d="M195.879 195.956C195.879 195.956 221.414 195.694 241.789 171.156" stroke="white" stroke-width="3.8695" stroke-miterlimit="10" stroke-linecap="round" stroke-linejoin="round"/>
<path d="M134.755 75.0118C134.755 75.0118 142.45 78.3302 145.51 77.8935C148.571 77.4569 170.17 47.8539 149.008 23.4903C135.629 8.12123 107.646 27.42 107.646 27.42L134.755 75.0118Z" fill="#2C1F9C"/>
<path d="M135.891 62.0005C138.077 79.1161 128.633 88.1105 114.817 82.4344C101 76.7583 87.9708 58.0709 85.7847 41.1299C83.5985 24.0143 93.0427 15.0199 106.859 20.696C120.501 26.4594 133.705 44.8849 135.891 62.0005Z" fill="#FFC2B0"/>
<path d="M149.708 50.2116C151.894 67.3272 138.077 79.8146 124.173 73.8765C110.357 68.2004 97.3275 49.513 95.1414 32.572C93.0427 15.4564 102.487 6.46198 116.303 12.2254C129.945 18.1635 147.522 33.2706 149.708 50.2116Z" fill="#FFC2B0"/>
<path d="M145.073 101.296L143.324 101.995C137.64 104.44 130.994 101.558 128.808 96.057L115.604 64.2709C113.155 58.5948 116.041 51.9581 121.55 49.775L123.299 49.0764C128.983 46.6313 135.629 49.513 137.815 55.0145L155.217 83.7443C157.403 89.2457 150.582 98.9387 145.073 101.296Z" fill="#FFC2B0"/>
<path d="M153.206 56.0624C153.643 60.254 150.757 63.9217 146.647 64.6203C142.45 65.0569 138.777 62.1752 138.077 58.0709C137.64 53.8793 140.526 50.2117 144.636 49.5131C148.833 49.0765 152.768 52.1328 153.206 56.0624Z" fill="#FFC2B0"/>
<path d="M105.11 27.5946C105.11 27.5946 113.243 66.6286 152.156 48.6398C152.156 48.6398 169.121 20.7832 136.329 3.84229C107.296 -10.8282 91.4686 21.2199 91.4686 21.2199L105.11 27.5946Z" fill="#2C1F9C"/>
<path d="M87.2713 48.9018C87.2713 48.9018 89.2825 35.1045 105.11 27.5946L91.2938 21.2199C91.4687 21.2199 78.5267 25.5861 87.2713 48.9018Z" fill="#2C1F9C"/>
<path d="M124.261 84.4429C124.261 84.4429 138.515 81.3865 144.723 65.5807C144.723 65.5807 140.526 88.3725 128.021 93.2626L124.261 84.4429Z" fill="#F09A82"/>
</g>
<defs>
<clipPath id="clip0">
<rect width="264" height="392" fill="white"/>
</clipPath>
</defs>
</svg>
