<svg width="50" height="50" viewBox="0 0 50 50" fill="none" xmlns="http://www.w3.org/2000/svg">
<path d="M25.0067 12.1726C32.1051 12.1726 37.8339 17.9015 37.8339 25C37.8339 32.0985 32.1051 37.8274 25.0067 37.8274C17.9083 37.8274 12.1795 32.0985 12.1795 25C12.1795 17.9015 17.9083 12.1726 25.0067 12.1726ZM25.0067 33.3369C29.5972 33.3369 33.3434 29.5906 33.3434 25C33.3434 20.4094 29.5972 16.6631 25.0067 16.6631C20.4162 16.6631 16.67 20.4094 16.67 25C16.67 29.5906 20.4162 33.3369 25.0067 33.3369ZM11.6542 8.65771C13.3115 8.65771 14.6499 9.99611 14.6499 11.6535C14.6499 13.3109 13.3115 14.6493 11.6542 14.6493C9.99686 14.6493 8.65848 13.3171 8.65848 11.6535C8.65798 11.2599 8.73513 10.8702 8.88551 10.5065C9.03588 10.1428 9.25653 9.81233 9.53481 9.53405C9.81308 9.25577 10.1435 9.03512 10.5072 8.88474C10.8709 8.73437 11.2607 8.65721 11.6542 8.65771ZM0.00279236 25C0.00279236 21.5477 -0.0284805 18.1266 0.165398 14.6805C0.359276 10.6778 1.27237 7.12542 4.1993 4.19845C7.13248 1.26521 10.6786 0.358351 14.6812 0.16447C18.1335 -0.0294109 21.5545 0.00186028 25.0005 0.00186028C28.4527 0.00186028 31.8737 -0.0294109 35.3197 0.16447C39.3224 0.358351 42.8747 1.27147 45.8016 4.19845C48.7348 7.13168 49.6417 10.6778 49.8355 14.6805C50.0294 18.1329 49.9981 21.5539 49.9981 25C49.9981 28.4461 50.0294 31.8734 49.8355 35.3195C49.6417 39.3222 48.7286 42.8746 45.8016 45.8016C42.8685 48.7348 39.3224 49.6417 35.3197 49.8355C31.8675 50.0294 28.4465 49.9981 25.0005 49.9981C21.5482 49.9981 18.1272 50.0294 14.6812 49.8355C10.6786 49.6417 7.12622 48.7285 4.1993 45.8016C1.26612 42.8683 0.359276 39.3222 0.165398 35.3195C-0.0347328 31.8734 0.00279236 28.4523 0.00279236 25ZM5.50641 39.7475C5.96296 40.8857 6.51332 41.7363 7.39515 42.6119C8.27698 43.4937 9.12128 44.0441 10.2595 44.5007C13.5492 45.8078 21.3606 45.5139 25.0067 45.5139C28.6529 45.5139 36.4705 45.8078 39.7602 44.5069C40.8984 44.0504 41.749 43.5 42.6245 42.6182C43.5064 41.7363 44.0567 40.892 44.5133 39.7537C45.8141 36.4577 45.5202 28.6462 45.5202 25C45.5202 21.3538 45.8141 13.536 44.5133 10.2463C44.0567 9.10801 43.5064 8.25744 42.6245 7.38185C41.7427 6.50626 40.8984 5.94963 39.7602 5.49307C36.4705 4.19219 28.6529 4.48614 25.0067 4.48614C21.3606 4.48614 13.5429 4.19219 10.2533 5.49307C9.11503 5.94963 8.26447 6.5 7.38889 7.38185C6.50706 8.26369 5.9567 9.10801 5.50015 10.2463C4.1993 13.536 4.49324 21.3538 4.49324 25C4.49324 28.6462 4.1993 36.4577 5.50641 39.7475Z" fill="#312A6C"/>
</svg>
