<svg width="251" height="76" viewBox="0 0 251 76" fill="none" xmlns="http://www.w3.org/2000/svg">
<path d="M32.0066 50.6982C32.5274 50.4971 32.7677 49.934 32.5675 49.4112C32.4873 49.2101 32.3271 49.009 32.1268 48.8883C24.6361 45.7913 17.5058 41.9302 10.8162 37.3853C9.97504 36.782 9.81481 35.5754 10.4157 34.771C10.4958 34.6503 10.616 34.5296 10.7361 34.4492C23.7548 24.1528 38.7363 16.712 54.7993 12.6095C54.9195 12.6095 54.9996 12.5693 55.1198 12.5291C55.6806 12.3682 56.2815 12.2475 56.8823 12.0866L57.363 11.966C57.7636 11.7247 57.8838 11.242 57.6434 10.88C57.6034 10.7996 57.5233 10.7192 57.4431 10.6387L57.2829 10.5583C56.642 10.1963 56.0011 9.8343 55.3601 9.47232C55.1198 9.35166 54.8394 9.27122 54.5991 9.27122C54.5189 9.27122 54.4789 9.27122 54.3988 9.27122C54.3187 9.27122 54.2385 9.31144 54.1584 9.31144C36.1726 12.9313 19.3084 20.6938 4.88774 31.9957L4.80763 32.0762L4.72751 32.1566C4.367 32.3175 3.92636 32.3175 3.6059 32.0762L3.56585 32.036C3.16527 31.674 3.08516 31.0707 3.44567 30.6685C3.48573 30.6283 3.52579 30.588 3.56585 30.5478C15.8234 20.3318 29.9637 12.7302 45.2256 8.14505L45.7864 7.98416C46.4674 7.78306 47.1484 7.58196 47.8293 7.42108L48.1498 7.34064C48.5504 7.13954 48.7507 6.65689 48.5504 6.21447C48.4703 6.05358 48.3501 5.93292 48.1498 5.81226C47.3887 5.45028 46.5876 5.08829 45.7864 4.72631C45.4259 4.56543 44.9853 4.52521 44.5847 4.60565C28.4816 8.66791 13.3799 16.1087 0.321192 26.4453C0.120905 26.6062 0.000732422 26.8475 0.000732422 27.0889V54.8007C0.000732422 57.6161 2.28401 59.9087 5.08803 59.9087C5.52866 59.9087 6.00935 59.8283 6.44998 59.7076C15.3027 57.6966 23.875 54.6801 32.0066 50.6982Z" fill="url(#paint0_linear)"/>
<path d="M0.842103 23.5486C1.00233 23.5486 1.16256 23.5084 1.28274 23.4279L1.36285 23.3475C12.619 14.5392 25.3973 7.82242 39.0169 3.55906C39.4575 3.47862 39.7779 3.07642 39.6978 2.59377C39.6578 2.35245 39.5376 2.15135 39.3373 2.03068L39.0169 1.91002L37.6549 1.38716C36.1327 0.824072 34.4503 0.824072 32.9281 1.38716C21.9123 5.44942 11.4974 10.9596 1.96371 17.8373C0.721931 18.8026 -0.0391606 20.331 0.000896848 21.9398V22.7442C0.000896848 23.1866 0.401471 23.5486 0.842103 23.5486Z" fill="url(#paint1_linear)"/>
<path d="M63.9726 16.9534C63.6922 16.9534 63.4118 16.9936 63.1314 17.0338C62.9712 17.074 62.7709 17.1143 62.6107 17.1545C53.7579 19.1655 45.1856 22.182 37.054 26.1638C36.5332 26.3649 36.2929 26.928 36.4932 27.4509C36.5733 27.652 36.7335 27.8531 36.9338 27.9738C44.4245 31.0707 51.5548 34.9319 58.2444 39.4768C59.0856 40.0801 59.2458 41.2867 58.645 42.0911C58.5648 42.2118 58.4447 42.3325 58.3245 42.4129C45.3058 52.7093 30.3243 60.1501 14.2612 64.2526C14.1411 64.2526 14.0609 64.2928 13.9408 64.333C13.38 64.4939 12.7791 64.6146 12.1782 64.7754L11.6975 64.8961C11.297 65.1374 11.1768 65.6201 11.4171 65.9821C11.4572 66.0625 11.5373 66.1429 11.6174 66.2234L11.7777 66.3038C12.4186 66.6658 13.0595 67.0278 13.7004 67.3496C13.9808 67.5104 14.3413 67.5909 14.6618 67.5507C14.7419 67.5507 14.822 67.5104 14.9021 67.5104C32.8079 63.8906 49.6721 56.1281 64.0928 44.8663L64.1729 44.7859L64.253 44.7055C64.6135 44.5044 65.0141 44.5044 65.3346 44.7457L65.3746 44.7859C65.7752 45.1479 65.8553 45.7512 65.4948 46.1534C65.4547 46.1936 65.4147 46.2338 65.3746 46.2741C53.117 56.49 38.9767 64.0917 23.7148 68.6768L23.154 68.8377C22.473 69.0388 21.792 69.2399 21.1111 69.4008L20.7906 69.4812C20.39 69.6823 20.1897 70.165 20.39 70.6074C20.4701 70.7683 20.5903 70.8889 20.7906 71.0096C21.5517 71.3716 22.3528 71.7336 23.1139 72.0956C23.4745 72.2564 23.9151 72.2967 24.3157 72.2162C40.4188 68.1137 55.5205 60.673 68.5792 50.3363C68.7795 50.1754 68.8596 49.9341 68.8997 49.6928V22.0211C69.0199 19.2459 66.7766 16.9534 63.9726 16.9534Z" fill="url(#paint2_linear)"/>
<path d="M68.2186 53.3127C68.0584 53.3127 67.8982 53.353 67.778 53.4334L67.6979 53.5138C56.4417 62.3221 43.6634 69.0389 30.0439 73.3023C29.6032 73.3827 29.2828 73.7849 29.3629 74.2676C29.403 74.5089 29.5231 74.71 29.7234 74.8307L30.0439 74.9513L31.4058 75.4742C32.928 76.0373 34.6104 76.0373 36.1326 75.4742C47.1484 71.4119 57.5633 65.9017 67.097 59.024C68.3388 58.0587 69.0598 56.5304 69.0598 54.9216V54.1172C69.0598 53.6747 68.6993 53.3127 68.2186 53.3127Z" fill="url(#paint3_linear)"/>
<path d="M77.6724 52.3474C75.7496 51.9452 73.9471 51.2213 72.2646 50.256L75.309 43.3381C76.711 44.1425 78.2332 44.786 79.7955 45.1882C81.3577 45.6306 82.96 45.872 84.5623 45.9122C85.8842 45.9122 86.8055 45.7915 87.3663 45.5502C87.847 45.3893 88.2075 44.9469 88.2075 44.3838C88.2075 43.7805 87.847 43.3381 87.0859 43.0565C85.9242 42.6543 84.7225 42.3326 83.4807 42.0912C81.6381 41.7293 79.8355 41.2466 78.073 40.6433C76.6309 40.1204 75.3491 39.2356 74.3076 38.0692C73.226 36.8626 72.7053 35.2538 72.7053 33.2427C72.7053 31.5133 73.226 29.824 74.1874 28.4163C75.309 26.8879 76.8312 25.6813 78.5937 24.9976C80.5565 24.1529 82.9199 23.7507 85.724 23.7507C87.6467 23.7507 89.5294 23.9518 91.3721 24.354C93.0945 24.716 94.7369 25.3193 96.2591 26.2042L93.415 33.0819C90.651 31.6742 88.0473 30.9904 85.6038 30.9904C83.1603 30.9904 81.9185 31.5937 81.9586 32.7601C81.9586 33.3232 82.3191 33.7656 83.0401 34.0069C84.2018 34.4091 85.4035 34.6907 86.6052 34.8918C88.4479 35.2135 90.2505 35.6962 92.013 36.2593C93.4951 36.7821 94.777 37.667 95.8184 38.7932C96.9 39.9596 97.4207 41.5684 97.4207 43.6196C97.4207 45.3491 96.9 46.9981 95.9386 48.4058C94.817 49.9342 93.2948 51.1408 91.5323 51.8246C89.5695 52.6692 87.2061 53.1116 84.4021 53.1116C82.1989 53.1518 79.9156 52.8703 77.6724 52.3474Z" fill="#312A6C"/>
<path d="M106.874 51.2212C99.8241 47.5611 97.0602 38.8735 100.665 31.7947C102.027 29.1402 104.19 26.9683 106.874 25.5606C112.002 23.0267 118.01 23.0267 123.138 25.5606C130.188 29.2206 132.952 37.9082 129.346 44.987C127.984 47.6416 125.821 49.8135 123.138 51.2212C118.01 53.7551 112.002 53.7551 106.874 51.2212ZM118.17 44.5848C119.132 43.9815 119.933 43.1369 120.414 42.1314C121.535 39.7986 121.535 37.0636 120.414 34.6906C119.893 33.6851 119.132 32.8405 118.17 32.2372C116.208 31.0708 113.764 31.0708 111.801 32.2372C110.84 32.8405 110.039 33.6851 109.558 34.6906C108.436 37.0234 108.436 39.7584 109.558 42.1314C110.079 43.1369 110.84 43.9815 111.801 44.5848C113.804 45.7512 116.208 45.7512 118.17 44.5848Z" fill="#312A6C"/>
<path d="M142.646 31.5137V36.3402H154.342V43.4994H142.646V52.5088H133.192V24.3545H155.985V31.5137H142.646Z" fill="#312A6C"/>
<path d="M166.84 31.7148H158.629V24.3545H184.466V31.7148H176.254V52.5088H166.8V31.7148H166.84Z" fill="#312A6C"/>
<path d="M190.714 49.6129C188.311 47.2801 187.109 44.0223 187.109 39.7991V24.3545H196.563V39.5578C196.563 41.6091 196.923 43.1374 197.684 44.0625C198.405 44.9876 199.487 45.4702 200.849 45.4702C202.251 45.4702 203.292 44.9876 204.014 44.0625C204.735 43.1374 205.135 41.6091 205.135 39.5578V24.3545H214.428V39.8394C214.428 44.0625 213.227 47.3203 210.823 49.6531C208.42 51.9859 205.055 53.1523 200.769 53.1523C196.443 53.1121 193.118 51.9457 190.714 49.6129Z" fill="#312A6C"/>
<path d="M242.389 52.5088L242.309 39.6785L236.22 49.9749H232.054L225.965 40.1209V52.5088H217.353V24.3545H225.124L234.257 39.3567L243.15 24.3545H250.921L251.001 52.5088H242.389Z" fill="#312A6C"/>
<defs>
<linearGradient id="paint0_linear" x1="-25.0798" y1="75.0532" x2="52.5188" y2="19.8566" gradientUnits="userSpaceOnUse">
<stop stop-color="#312A6C"/>
<stop offset="1" stop-color="#852D91"/>
</linearGradient>
<linearGradient id="paint1_linear" x1="-17.242" y1="29.7286" x2="15.7374" y2="-9.79041" gradientUnits="userSpaceOnUse">
<stop stop-color="#312A6C"/>
<stop offset="1" stop-color="#852D91"/>
</linearGradient>
<linearGradient id="paint2_linear" x1="-13.7191" y1="87.39" x2="63.7729" y2="32.3776" gradientUnits="userSpaceOnUse">
<stop stop-color="#312A6C"/>
<stop offset="1" stop-color="#852D91"/>
</linearGradient>
<linearGradient id="paint3_linear" x1="12.1099" y1="82.0765" x2="45.0895" y2="42.5587" gradientUnits="userSpaceOnUse">
<stop stop-color="#312A6C"/>
<stop offset="1" stop-color="#852D91"/>
</linearGradient>
</defs>
</svg>
